{
.appVersion = "3436";
.formatVersion = 3;
axes = (
{
name = Weight;
tag = wght;
},
{
name = Width;
tag = wdth;
}
);
customParameters = (
{
name = "meta Table";
value = (
{
data = Latn;
tag = dlng;
},
{
data = Latn;
tag = slng;
}
);
},
{
name = vendorID;
value = NONE;
},
{
name = panose;
value = (
0,
0,
0,
0,
0,
0,
0,
0,
0,
0
);
},
{
name = unicodeRanges;
value = (
0,
1,
2,
3,
5,
6,
29,
31,
33,
35,
38
);
},
{
name = fsType;
value = (
);
},
{
name = glyphOrder;
value = (
.notdef,
space,
uni0024,
uni0025,
uni0026,
uni002B,
uni003C,
uni003D,
uni003E,
uni0040,
uni005E,
uni007C,
uni007E,
uni00A2,
uni00A3,
uni00A5,
uni00A7,
uni00A9,
uni00AE,
uni00B0,
uni00B6,
uni00D7,
uni00F7,
Euro,
uni2122,
uni2212,
uni25CC,
uni0021,
uni0022,
uni0023,
uni0027,
uni0028,
uni0029,
uni002A,
uni002C,
uni002D,
uni002E,
uni002F,
uni003A,
uni003B,
uni003F,
uni005B,
uni005C,
uni005D,
uni005F,
uni007B,
uni007D,
uni00A1,
guillemotleft,
uni00B7,
guillemotright,
uni00BF,
uni2013,
uni2014,
uni2018,
uni2019,
uni201A,
uni201C,
uni201D,
uni201E,
uni2022,
uni2026,
uni2039,
uni203A,
uni0030,
uni0031,
uni0032,
uni0033,
uni0034,
uni0035,
uni0036,
uni0037,
uni0038,
uni0039,
uni0060,
uni00A8,
uni00AF,
uni00B4,
uni00B8,
uni02C6,
uni02C7,
uni02D9,
uni02DA,
uni02DB,
uni02DC,
uni02DD,
uni0300,
uni0301,
uni0302,
uni0303,
uni0304,
uni0307,
uni0308,
uni030A,
uni030B,
uni030C,
uni0326,
uni0327,
uni0328,
uni0041,
uni0042,
uni0043,
uni0044,
uni0045,
uni0046,
uni0047,
uni0048,
uni0049,
uni004A,
uni004B,
uni004C,
uni004D,
uni004E,
uni004F,
uni0050,
uni0051,
uni0052,
uni0053,
uni0054,
uni0055,
uni0056,
uni0057,
uni0058,
uni0059,
uni005A,
uni0061,
uni0062,
uni0063,
uni0064,
uni0065,
uni0066,
uni0067,
uni0068,
uni0069,
uni006A,
uni006B,
uni006C,
uni006D,
uni006E,
uni006F,
uni0070,
uni0071,
uni0072,
uni0073,
uni0074,
uni0075,
uni0076,
uni0077,
uni0078,
uni0079,
uni007A,
uni00AA,
uni00BA,
uni00C0,
uni00C1,
uni00C2,
uni00C3,
uni00C4,
uni00C5,
uni00C6,
uni00C7,
uni00C8,
uni00C9,
uni00CA,
uni00CB,
uni00CC,
uni00CD,
uni00CE,

glyphs = (
{
glyphname = .notdef;
layers = (
{
layerId = m01;
shapes = (
{
closed = 1;
nodes = (
(450,700,l),
(50,700,l),
(50,0,l),
(450,0,l)
);
}
);
width = 500;
}
);
note = .notdef;
},
{
glyphname = uni0024;
layers = (
{
layerId = m01;
shapes = (
{
closed = 1;
nodes = (
(242.2,90,o),
(267.2,127.2,o),
(267.2,164.4,cs),
(267.2,207.9,o),
(233,251.2,o),
(181.1,314.6,cs),
(163.9,335.7,o),
(127,378,o),
(127,410.6,cs),
(127,425.4,o),
(134.6,438.2,o),
(155.2,446.1,c),
(172.5,422.5,o),
(163.2,385.6,o),
(181.8,365.1,cs),
(191,355,o),
(200.5,350.8,o),
(209.6,350.8,cs),
(238.6,350.8,o),
(264,393.4,o),
(264,426.7,cs),
(264,434.7,o),
(262.5,442.2,o),
(259.2,448.4,cs),
(242.8,479.3,o),
(204.2,499.9,o),
(178,522,c),
(178,597,l),
(121.1,594.6,l),
(114,517.6,l),
(52.6,474.7,o),
(30.5,437.9,o),
(30.5,404.1,cs),
(30.5,314.2,o),
(187.1,245.4,o),
(173.8,137.1,cs),
(172.6,126.8,o),
(165.6,112.4,o),
(153.2,112.4,cs),
(128,112.4,o),
(137.8,214.7,o),
(91.5,218.6,cs),
(78.9,219.6,o),
(66.6,216.1,o),
(57.7,206.9,cs),
(35.4,183.7,o),
(26.8,164.9,o),
(26.8,148.5,cs),
(26.8,104.9,o),
(87.8,79,o),
(111.8,36.3,cs),
(123,16.5,o),
(122.2,-11.1,o),
(124.9,-33.2,c),
(177.1,-30.8,l),
(182,40,l)
);
}
);
width = 289;
}
);
note = uni0024;
unicode = 36;
},
{
glyphname = uni0025;
layers = (
{
layerId = m01;
shapes = (
{
closed = 1;
nodes = (
(302.8,590.5,l),
(77,-16.9,l),
(84.5,-18.4,o),
(93,-20.3,o),
(101.2,-20.3,cs),
(110,-20.3,o),
(118.5,-18.1,o),
(124.6,-10.7,cs),
(152.2,22.5,o),
(163.1,87.5,o),
(178.2,128,cs),
(235,280.8,o),
(298.7,433.5,o),
(344.2,590.1,c)
);
},
{
closed = 1;
nodes = (
(396.4,43.3,o),
(402.4,100.2,o),
(402.4,150.7,cs),
(402.4,186.2,o),
(399.4,218.5,o),
(389.8,236,cs),
(376.7,259.8,o),
(353.1,270.7,o),
(329.4,270.7,cs),
(296.9,270.7,o),
(264.1,250.3,o),
(257.4,213.9,cs),
(253.8,194,o),
(250.2,160.8,o),
(250.2,125,cs),
(250.2,49,o),
(266.4,-38.3,o),
(333,-32.5,cs),
(361.4,-30,o),
(382.8,-11.4,o),
(395,13,c)
);
},
{
closed = 1;
nodes = (
(335.1,213.4,o),
(340.3,167,o),
(340.3,119.7,cs),
(340.3,75.5,o),
(335.8,30.4,o),
(330.7,13.1,c),
(316.8,22.1,o),
(312,72.8,o),
(312,122.8,cs),
(312,165.8,o),
(315.5,208.3,o),
(319.9,223.7,c)
);
},
{
closed = 1;
nodes = (
(132.8,299.8,o),
(147.3,307.4,o),
(155.2,323.3,cs),
(164.8,342.6,o),
(171.7,386.7,o),
(171.7,434.1,cs),
(171.7,511.1,o),
(153.4,596.5,o),
(98.3,596.5,cs),
(91.1,596.5,o),
(83.2,595,o),
(74.6,591.9,cs),
(55.7,584.9,o),
(38.1,569.6,o),
(30.3,550.8,cs),
(18.1,521.5,o),
(24.3,481.2,o),
(24.5,450,cs),
(24.8,382.4,o),
(15.3,270.3,o),
(117.5,292.5,c)
);
},
{
closed = 1;
nodes = (
(102.9,338,l),
(88.1,335.8,l),
(85,349.1,o),
(81.5,419.6,o),
(81.5,473.6,cs),
(81.5,506,o),
(82.8,532.5,o),
(86.1,537,cs),
(90.4,542.8,o),
(100.7,541.7,o),
(107,541.9,c)
);
}
);
width = 423;
}
);
note = uni0025;
unicode = 37;
},
{
glyphname = uni0026;
layers = (
{
layerId = m01;
shapes = (
{
closed = 1;
nodes = (
(405.8,38.1,o),
(332.7,138.9,o),
(332.7,208.7,cs),
(332.7,228.1,o),
(338.3,245,o),
(352.1,257.7,cs),
(379.4,282.6,o),
(421.8,288,o),
(453.4,305.7,c),
(450.8,328.6,o),
(447.1,350.7,o),
(437.2,371.6,c),
(397.2,373.4,o),
(309.6,333.8,o),
(291.1,296.1,cs),
(280.4,274.5,o),
(285.5,243.7,o),
(284.8,220.2,c),
(258.2,252.9,o),
(144.7,400.5,o),
(144.7,476.8,cs),
(144.7,499.3,o),
(159.1,520.4,o),
(182.9,520.4,cs),
(193.8,520.4,o),
(204.3,515.9,o),
(214.3,510.7,c),
(212.3,490.6,o),
(204.8,469.9,o),
(208.7,449.7,cs),
(214.9,417.6,o),
(234.5,404.4,o),
(256.1,404.4,cs),
(289.8,404.4,o),
(328.2,436.5,o),
(328.2,479.4,cs),
(328.2,504,o),
(315.6,532.1,o),
(282.3,559.8,cs),
(251.2,585.7,o),
(209.7,602,o),
(168.9,595.2,cs),
(137.4,590,o),
(103,569.7,o),
(81.5,546.5,cs),
(57.9,521.1,o),
(48.9,494.9,o),
(48.9,468.5,cs),
(48.9,406.9,o),
(97.9,344.4,o),
(126.3,289.6,c),
(101.4,253.8,o),
(60.1,234.1,o),
(42.9,191.6,cs),
(35.9,174.3,o),
(32.6,156.6,o),
(32.6,139.1,cs),
(32.6,61,o),
(97.5,-11.3,o),
(182.3,-9.5,cs),
(223.3,-8.6,o),
(254.7,12.8,o),
(291.2,27.6,c),
(327.7,-33.8,l),
(359.1,-26.3,o),
(406.8,-23.8,o),
(431.3,-2.3,c)
);
},
{
closed = 1;
nodes = (
(230.9,78.7,o),
(215.1,75,o),
(201.3,75,cs),
(158.6,75,o),
(134.5,110.7,o),
(134.5,151,cs),
(134.5,176.7,o),
(144.2,204.3,o),
(165.3,225.6,c),
(198.1,195.5,o),
(237.7,130.6,o),
(248.4,87.3,c)
);
}
);
width = 471;
}
);
note = uni0026;
unicode = 38;
},
{
glyphname = uni002B;
layers = (
{
layerId = m01;
shapes = (
{
closed = 1;
nodes = (
(282.5,180,o),
(388.4,172.1,o),
(404.7,191.8,cs),
(416.2,205.8,o),
(412.8,231.4,o),
(413,248.4,c),
(360.1,249.3,o),
(307.6,246.5,o),
(253.3,250,c),
(253.3,414.3,l),
(182,414.7,l),
(182,250.8,l),
(26.8,250.8,l),
(24,180.8,l),
(176.1,176.6,l),
(183.2,156.2,o),
(185.1,132.4,o),
(185.1,107.8,cs),
(185.1,76,o),
(181.8,43.1,o),
(182,15.1,c),
(252.4,15,l),
(252.4,180,l)
);
}
);
width = 438;
}
);
note = uni002B;
unicode = 43;
},
{
glyphname = uni003C;
layers = (
{
layerId = m01;
shapes = (
{
closed = 1;
nodes = (
(253.3,414.7,l),
(199.5,392.6,o),
(62.8,272.3,o),
(24.8,225.2,c),
(56.6,154.2,o),
(180.3,59.9,o),
(245.4,15.4,c),
(255.5,29.6,o),
(263.2,43.6,o),
(269.3,59.9,c),
(222.6,124.2,o),
(142.2,161.6,o),
(87.1,218.4,c),
(274,365,l)
);
}
);
width = 299;
}
);
note = uni003C;
unicode = 60;
},
{
glyphname = uni003D;
layers = (
{
layerId = m01;
shapes = (
{
closed = 1;
nodes = (
(26,93.8,o),
(25,55.9,o),
(26.9,15.7,c),
(418.6,15.7,l),
(425.7,51.1,o),
(432.1,87.7,o),
(434.1,124.5,c),
(384.7,134.2,o),
(325.4,136.9,o),
(264.3,136.9,cs),
(183.6,136.9,o),
(99.6,132.2,o),
(31,133,c)
);
},
{
closed = 1;
nodes = (
(26,377.8,o),
(25,339.9,o),
(26.9,299.7,c),
(418.6,299.7,l),
(426.1,335,o),
(432.8,371.6,o),
(433.6,408.4,c),
(386.3,418,o),
(325.5,420.6,o),
(262.5,420.6,cs),
(181.2,420.6,o),
(96.2,416.3,o),
(31,417,c)
);
}
);
width = 458;
}
);
note = uni003D;
unicode = 61;
},
{
glyphname = uni003E;
layers = (
{
layerId = m01;
shapes = (
{
closed = 1;
nodes = (
(237.6,271,o),
(95.8,394.3,o),
(43.9,414.9,c),
(24.1,365.1,l),
(84.7,317.4,o),
(158.6,273.9,o),
(210.1,216.2,c),
(151.6,167.5,o),
(76.2,120.2,o),
(29.5,59.9,c),
(35.2,43.1,o),
(42.1,29.7,o),
(53.4,16,c),
(117,59.2,o),
(243.5,155.6,o),
(273.2,225.2,c)
);
}
);
width = 298;
}
);
note = uni003E;
unicode = 62;
},
{
glyphname = uni0040;
layers = (
{
layerId = m01;
shapes = (
{
closed = 1;
nodes = (
(144.8,560.9,o),
(81.2,515.6,o),
(24.8,468.7,c),
(22.7,424.1,o),
(18.2,333.5,o),
(18.2,250.5,cs),
(18.2,185.2,o),
(21,124.6,o),
(29.8,94.8,cs),
(36.5,72.2,o),
(192.7,-31.8,o),
(215.2,-28.9,cs),
(247,-24.9,o),
(363.3,53.2,o),
(385.6,78.5,cs),
(396,90.3,o),
(402.4,221.4,o),
(402.4,329,cs),
(402.4,399.8,o),
(399.7,460.4,o),
(393.4,470.2,cs),
(364.4,515.6,o),
(256.9,567,o),
(209,596.4,c)
);
},
{
closed = 1;
nodes = (
(259.3,513.5,o),
(309.6,480.4,o),
(354.4,440.6,c),
(356.6,393.7,o),
(363,300.5,o),
(363,223.7,cs),
(363,182.1,o),
(361.1,145.3,o),
(355.6,123.4,cs),
(349.4,98.3,o),
(230,20.6,o),
(204.9,25,cs),
(168,31.5,o),
(108.6,77.4,o),
(83.6,104.6,cs),
(70.7,118.8,o),
(63.7,224.4,o),
(63.7,315.3,cs),
(63.7,378.7,o),
(67.1,434.9,o),
(74.2,447.8,cs),
(95.8,487.4,o),
(167.8,516.4,o),
(205.3,539.6,c)
);
},
{
closed = 1;
nodes = (
(246.8,143.3,o),
(256.7,116.2,o),
(283.2,116.2,cs),
(289,116.2,o),
(295.6,117.5,o),
(303.2,120.5,cs),
(314.5,124.8,o),
(327.4,132.8,o),
(333.4,143.7,cs),
(340.6,156.8,o),
(303,197.1,o),
(300.3,221,cs),
(296.4,255.7,o),
(309.1,381.2,o),
(305.1,393.9,cs),
(298.3,415.1,o),
(236.6,461.2,o),
(216.1,472.3,cs),
(191,485.8,o),
(116.8,424.6,o),
(110,400,cs),
(107.1,389.4,o),
(115.2,375.9,o),
(119.7,366.6,cs),
(125.8,353.9,o),
(147.7,325.7,o),
(166.2,325.7,cs),
(172.7,325.7,o),
(178.8,329.1,o),
(183.7,337.8,cs),
(193.9,356,o),
(184.6,379.2,o),
(194.6,397.9,c),
(223,390.5,l),
(220.6,315.9,l),
(193.8,306.4,o),
(142.7,297.5,o),
(128.1,270.7,cs),
(115.4,247.4,o),
(110.6,202.2,o),
(117,176.5,cs),
(122.5,154,o),
(164.1,106.2,o),
(190.1,118,cs),
(208.2,126.2,o),
(211.3,147.1,o),
(223.9,160.2,c)
);
},
{
closed = 1;
nodes = (
(193.4,191.9,o),
(188.1,210.7,o),
(188.1,229,cs),
(188.1,254.1,o),
(198.1,278.4,o),
(222.5,283.6,c),
(225.4,270.4,o),
(227.7,255.3,o),
(227.7,240.4,cs),
(227.7,216.6,o),
(221.7,193.4,o),
(202.2,179.6,c)
);
}
);
width = 425;
}
);
note = uni0040;
unicode = 64;
},
{
glyphname = uni005E;
layers = (
{
layerId = m01;
shapes = (
{
closed = 1;
nodes = (
(163.7,269.2,o),
(193.5,315.7,o),
(235,354.1,cs),
(241.7,360.3,o),
(249.2,363,o),
(257.3,363,cs),
(309.3,363,o),
(386.3,251.7,o),
(426.1,229.9,c),
(464.2,272.3,o),
(499.9,335.3,o),
(516.5,389.9,c),
(480.8,420.5,o),
(296.2,586.3,o),
(268,585.6,cs),
(244.3,585.1,o),
(32.3,401.3,o),
(30.2,382,cs),
(26.1,345.4,o),
(91.4,259.4,o),
(117.9,234.6,c)
);
}
);
width = 541;
}
);
note = uni005E;
unicode = 94;
},
{
glyphname = uni007C;
layers = (
{
layerId = m01;
shapes = (
{
closed = 1;
nodes = (
(27.4,596.4,l),
(22.5,563.3,o),
(21,529,o),
(21,494.4,cs),
(21,440.4,o),
(24.6,385.7,o),
(24.5,333.5,cs),
(24.3,262.9,o),
(20.5,190,o),
(20.5,117.7,cs),
(20.5,67.2,o),
(22.4,17,o),
(28.7,-32.1,c),
(61.6,-34,l),
(65.3,100.7,o),
(62,235.8,o),
(62,370.6,cs),
(62,415.6,o),
(65.3,462.9,o),
(65.3,509.4,cs),
(65.3,538.3,o),
(64,567,o),
(59.9,594.6,c)
);
}
);
width = 87;
}
);
note = uni007C;
unicode = 124;
},
{
glyphname = uni007E;
layers = (
{
layerId = m01;
shapes = (
{
closed = 1;
nodes = (
(168.4,64.5,o),
(176,154.6,o),
(212.9,157.6,cs),
(277.9,163,o),
(353.2,62.5,o),
(423,49.7,cs),
(523.8,31.4,o),
(656,194.9,o),
(656,308.1,cs),
(656,329.4,o),
(651.3,349,o),
(640.8,365.2,cs),
(631,380.2,o),
(614.8,389.6,o),
(597.8,394.3,cs),
(512.1,417.7,o),
(523.9,290.3,o),
(462.8,275.8,cs),
(406.6,262.4,o),
(316.2,361.6,o),
(223.5,361.6,cs),
(203.1,361.6,o),
(182.5,356.8,o),
(162.1,344.9,cs),
(100.4,308.6,o),
(25.1,222.7,o),
(25.1,143.2,cs),
(25.1,113.9,o),
(35.3,85.4,o),
(60.2,60.7,cs),
(84.5,36.5,o),
(115.5,30.6,o),
(148,37,c)
);
}
);
width = 674;
}
);
note = uni007E;
unicode = 126;
},
{
glyphname = uni00A2;
layers = (
{
layerId = m01;
shapes = (
{
closed = 1;
nodes = (
(200.5,-6.1,o),
(195.5,24.5,o),
(208.4,47,cs),
(229.6,84.1,o),
(296.8,105.7,o),
(303.1,150.6,cs),
(307.5,182.7,o),
(264.3,259.1,o),
(225.6,259.1,cs),
(215,259.1,o),
(204.7,253.4,o),
(195.9,239.3,cs),
(179.5,213.4,o),
(191.9,173,o),
(184.4,143.7,c),
(170.7,143.2,o),
(155.6,143.5,o),
(147.8,157.1,cs),
(131.7,185.5,o),
(137.9,372.9,o),
(139.9,415.4,c),
(215.6,436.4,o),
(165.4,339,o),
(221.8,326.6,cs),
(242.2,322.1,o),
(260,330.7,o),
(272.8,346.3,cs),
(290.5,367.9,o),
(297.8,386.4,o),
(297.8,402.8,cs),
(297.8,447.9,o),
(243.4,477.7,o),
(200.6,515.8,c),
(200.6,596,l),
(180.1,596.7,o),
(161.6,597.4,o),
(142.8,594.3,c),
(132.7,569.2,o),
(137.9,537.7,o),
(123.7,514.6,cs),
(100.2,476.4,o),
(50.3,457.2,o),
(30.6,415,cs),
(25.2,403.5,o),
(29.3,163.8,o),
(36.1,149,cs),
(54.2,109.4,o),
(101.4,76.5,o),
(133.5,48.4,c),
(139.3,-31.1,l),
(157.6,-32.6,o),
(174.8,-33.9,o),
(193.1,-30.8,c)
);
}
);
width = 332;
}
);
note = uni00A2;
unicode = 162;
},
{
glyphname = uni00A3;
layers = (
{
layerId = m01;
shapes = (
{
closed = 1;
nodes = (
(214.4,74.5,o),
(183.6,85.1,o),
(157,99.2,c),
(197.2,159.8,o),
(208.7,203.1,o),
(214.9,276.2,c),
(236.5,277.4,o),
(257.9,276.3,o),
(279,281.5,c),
(282.1,295.3,o),
(282.4,305.2,o),
(280.2,319.2,c),
(259.7,322.7,o),
(232,320.6,o),
(214.2,332.4,cs),
(192.3,346.9,o),
(167.1,421.6,o),
(167.1,470.6,cs),
(167.1,496.6,o),
(178.4,523.2,o),
(206.9,510.2,cs),
(232.9,498.3,o),
(188.4,413.3,o),
(268.5,368.2,c),
(311.5,410.8,o),
(328.6,449.7,o),
(328.6,482.6,cs),
(328.6,548.4,o),
(260.1,590.4,o),
(193.8,590.4,cs),
(130.6,590.4,o),
(69.4,552.3,o),
(71.1,460.5,cs),
(71.9,414.6,o),
(92.7,373.9,o),
(107.8,331.6,c),
(89.9,326.3,o),
(71.8,325.8,o),
(53.2,325,c),
(53.8,278,l),
(76.8,277.4,o),
(99.4,277.2,o),
(121.7,271.1,c),
(127,248.7,o),
(129.3,229.9,o),
(129.3,213.9,cs),
(129.3,120.4,o),
(49.8,124.5,o),
(32,62.6,cs),
(24.8,37.5,o),
(50.1,-43.1,o),
(87.4,-28.1,cs),
(106.3,-20.5,o),
(118.3,6.8,o),
(132.3,21.1,c),
(173.8,13.5,o),
(222.2,-22.5,o),
(266.7,-22.5,cs),
(274.4,-22.5,o),
(281.9,-21.4,o),
(289.2,-19,cs),
(339.9,-2.2,o),
(358.7,41.1,o),
(358.7,83.6,cs),
(358.7,135.3,o),
(330.8,185.8,o),
(298.7,185.8,cs),
(289.9,185.8,o),
(280.7,182,o),
(271.8,173.4,cs),
(248,150.4,o),
(261.3,102.1,o),
(244.6,73.5,c)
);
}
);
width = 385;
}
);
note = uni00A3;
unicode = 163;
},
{
glyphname = uni00A5;
layers = (
{
layerId = m01;
shapes = (
{
closed = 1;
nodes = (
(307,135.8,l),
(276.9,136.4,o),
(240.6,130.6,o),
(212.1,141.2,c),
(208.3,153.9,o),
(208.2,166.3,o),
(208,179.5,c),
(307,184.5,l),
(306.5,233.9,l),
(287.4,232.7,o),
(265,229.2,o),
(243.8,229.2,cs),
(231.4,229.2,o),
(219.4,230.4,o),
(208.7,233.8,c),
(210.3,301.4,o),
(261,370.7,o),
(294.1,426.8,cs),
(303.3,442.3,o),
(321.4,463.7,o),
(322.4,482.2,cs),
(323.2,497.6,o),
(314.4,516.7,o),
(309.4,531,cs),
(302.8,550.2,o),
(292,584.7,o),
(272.1,594.2,cs),
(243.6,607.8,o),
(202.9,551.6,o),
(193.9,530.7,cs),
(190,521.5,o),
(188.5,512.5,o),
(188.5,503.6,cs),
(188.5,478.7,o),
(200.1,454.4,o),
(201.6,428.4,cs),
(203,403.7,o),
(197,378.3,o),
(192.3,354.2,cs),
(189.9,341.9,o),
(189.6,326.7,o),
(180.4,318.2,c),
(161.8,352,o),
(145,403.3,o),
(152.3,442.2,cs),
(156.1,462.6,o),
(166,482.2,o),
(162.3,503.7,cs),
(154.7,546.8,o),
(125.4,592.3,o),
(93,592.3,cs),
(76.5,592.3,o),
(59.2,580.5,o),
(43.5,550.3,cs),
(35.4,534.7,o),
(25.4,515,o),
(24.9,496.9,cs),
(23.7,452,o),
(135.7,316.1,o),
(140.4,235.7,c),
(115.2,221.1,o),
(67.1,228.7,o),
(38,228,c),
(36,182.6,l),
(136.9,182.6,l),
(135.1,136.6,l),
(34,136.6,l),
(34.9,91,l),
(66.2,90.9,o),
(98.8,92,o),
(129.8,86.3,c),
(124.9,70.9,o),
(122,55.6,o),
(122,41.1,cs),
(122,9.5,o),
(135.8,-18,o),
(172.1,-33.5,c),
(212.1,-23.4,o),
(225.3,9.2,o),
(225.3,43.1,cs),
(225.3,58.5,o),
(222.6,74.2,o),
(218.4,89.6,c),
(311,89.6,l)
);
}
);
width = 349;
}
);
note = uni00A5;
unicode = 165;
},
{
glyphname = uni00A7;
layers = (
{
layerId = m01;
shapes = (
{
closed = 1;
nodes = (
(184.7,217.1,o),
(202.5,243.2,o),
(214.6,273.6,cs),
(221,289.8,o),
(223.8,304.1,o),
(223.8,317,cs),
(223.8,396.9,o),
(116.8,421.6,o),
(106.8,495.5,cs),
(104.7,511.5,o),
(120.9,539.4,o),
(138.3,525.4,cs),
(159.9,508,o),
(138.7,464.8,o),
(161.4,452.2,cs),
(167.5,448.8,o),
(173.5,447.3,o),
(179.2,447.3,cs),
(213,447.3,o),
(237.7,500.5,o),
(231.1,529.5,cs),
(227.4,545.5,o),
(210,557.3,o),
(197.3,565.9,cs),
(172.3,582.9,o),
(149.6,593.3,o),
(127.1,593.3,cs),
(107.2,593.3,o),
(87.5,585.3,o),
(66.4,566.6,cs),
(53.4,555.1,o),
(39,541.7,o),
(33,525,cs),
(29,513.7,o),
(27.3,503.2,o),
(27.3,493.3,cs),
(27.3,444.3,o),
(70.3,410.1,o),
(97,368.6,c),
(63.5,354.3,o),
(35.8,334,o),
(28.3,296.1,cs),
(6.5,185.7,o),
(145.9,146.4,o),
(153.5,64.7,cs),
(155.4,44.5,o),
(134.9,24.8,o),
(116.7,38.4,cs),
(92.1,57,o),
(118.8,98.6,o),
(97.7,119.3,cs),
(91.2,125.6,o),
(81.3,125.8,o),
(72.8,125.2,cs),
(31.3,122.5,o),
(19.9,73.4,o),
(25,37.6,cs),
(27.3,20.9,o),
(44.1,9.1,o),
(56.3,-0.7,cs),
(75,-15.7,o),
(93.9,-31.3,o),
(118.5,-34.6,cs),
(183.1,-43.4,o),
(240.5,32.5,o),
(228.6,92.4,cs),
(220.1,135.6,o),
(187.7,167.7,o),
(158,198,c)
);
},
{
closed = 1;
nodes = (
(118.6,239,o),
(109.3,262.2,o),
(109.3,288.3,cs),
(109.3,302.4,o),
(112,317.4,o),
(116.3,333.1,c),
(142.1,323.3,o),
(157.7,290.3,o),
(157.7,260.2,cs),
(157.7,244.8,o),
(153.5,230.1,o),
(144.6,219.8,c)
);
}
);
width = 257;
}
);
note = uni00A7;
unicode = 167;
},
{
glyphname = uni00A9;
layers = (
{
layerId = m01;
shapes = (
{
closed = 1;
nodes = (
(414.1,484.1,o),
(269.8,596.8,o),
(229.7,591.7,cs),
(180.2,585.4,o),
(73.6,494.6,o),
(28.8,463.7,c),
(28.8,95.6,l),
(95.1,51.2,o),
(160.8,5.1,o),
(230.9,-33.4,c),
(280.4,-10.3,o),
(399.9,49.3,o),
(429.5,92.8,cs),
(452.3,126.3,o),
(444,395.2,o),
(445,453.3,c)
);
},
{
closed = 1;
nodes = (
(67.4,161.8,o),
(63.7,236.7,o),
(63.7,304.8,cs),
(63.7,360.5,o),
(66.2,411.7,o),
(75.6,432.3,cs),
(85,452.9,o),
(213.6,539.5,o),
(235.7,538.7,cs),
(264,537.8,o),
(380.5,457.7,o),
(393.8,432.4,cs),
(403,414.7,o),
(405.9,370.5,o),
(405.9,320.4,cs),
(405.9,246.8,o),
(399.7,160.3,o),
(398.1,125.4,c),
(368.8,101.7,o),
(261.9,25.2,o),
(227.6,25.5,cs),
(192.5,25.9,o),
(95.7,103.4,o),
(67,128,c)
);
},
{
closed = 1;
nodes = (
(264.6,232,o),
(276.3,185.9,o),
(255.6,163.5,cs),
(248.7,156,o),
(242.4,152.6,o),
(236.8,152.6,cs),
(212,152.6,o),
(199.5,217.6,o),
(199.5,282.6,cs),
(199.5,347.8,o),
(212,413,o),
(237.4,413,cs),
(243.8,413,o),
(251.1,408.7,o),
(259.2,399.2,cs),
(277.2,378,o),
(273.1,343.5,o),
(285.5,319,c),
(319,317.4,o),
(356.1,362.9,o),
(345.5,397.3,cs),
(339.9,415.7,o),
(318.2,430.3,o),
(304.3,442.3,cs),
(287.6,456.7,o),
(266.1,479.2,o),
(243.8,483.8,cs),
(211.4,490.5,o),
(155.5,432.8,o),
(140.9,407.5,cs),
(136.5,399.9,o),
(134.9,390.6,o),
(134.9,380.3,cs),
(134.9,353.2,o),
(146.1,319.9,o),
(146.7,297.3,cs),
(147.6,259.2,o),
(131.3,212,o),
(138.5,175.8,cs),
(142.6,155.1,o),
(162.1,138.2,o),
(176.6,124.2,cs),
(197.1,104.4,o),
(216.5,96.4,o),
(235.2,96.4,cs),
(273.8,96.4,o),
(309.3,130.3,o),
(344.9,162.8,c),
(344.4,201.9,o),
(319.9,265.7,o),
(274.1,260.1,c)
);
}
);
width = 470;
}
);
note = uni00A9;
unicode = 169;
},
{
glyphname = uni00AE;
layers = (
{
layerId = m01;
shapes = (
{
closed = 1;
nodes = (
(24,338,o),
(20.8,215.6,o),
(28.1,94,c),
(71.4,63.4,o),
(185.7,-26.4,o),
(234.5,-30.6,cs),
(263.5,-33.1,o),
(430.8,74,o),
(441.9,101.1,cs),
(447.5,114.7,o),
(450.3,191.5,o),
(450.3,271.2,cs),
(450.3,359.8,o),
(446.9,451.9,o),
(439.9,464.6,cs),
(418.7,503.3,o),
(349.6,531.1,o),
(312.7,552.4,cs),
(291.1,564.9,o),
(252.5,597.4,o),
(226.3,590.9,cs),
(169.4,576.7,o),
(70.1,498.5,o),
(24,459.9,c)
);
},
{
closed = 1;
nodes = (
(378.2,99.1,o),
(267.9,19.7,o),
(231,24.3,cs),
(201.1,28.1,o),
(167.6,58.3,o),
(142.2,73.6,cs),
(121,86.3,o),
(85.3,100.9,o),
(75.7,125.4,cs),
(67.6,146.1,o),
(65.2,172.1,o),
(65.2,199.2,cs),
(65.2,237.8,o),
(70,278.8,o),
(70,310.3,cs),
(70,346.6,o),
(59.2,408,o),
(79.3,439.9,cs),
(94.4,463.8,o),
(203.4,533.3,o),
(231.5,535.2,cs),
(257.5,536.9,o),
(387.4,458.3,o),
(399.8,435.1,cs),
(414.5,407.7,o),
(405.9,359.3,o),
(406.1,329,cs),
(406.5,261,o),
(406.8,193,o),
(407,125,c)
);
},
{
closed = 1;
nodes = (
(329.9,271.5,o),
(217.8,98.8,o),
(305.5,116,cs),
(333.1,121.4,o),
(343.1,141.3,o),
(343.1,166,cs),
(343.1,209.7,o),
(311.9,268.6,o),
(290.2,290.7,c),
(323.6,331.8,o),
(339.3,360.4,o),
(339.3,383.7,cs),
(339.3,419.6,o),
(302,443,o),
(234.8,480.9,c),
(124.1,414.6,l),
(145.6,369.8,o),
(156.8,322,o),
(156.8,273,cs),
(156.8,251,o),
(154.5,228.8,o),
(150,206.5,cs),
(146.4,189.3,o),
(129,170.9,o),
(133.5,152.9,cs),
(139.3,129.5,o),
(169.2,113.2,o),
(189.7,105.1,c),
(206.8,123.4,o),
(211.5,149.5,o),
(211.5,177.3,cs),
(211.5,210.3,o),
(204.9,245.7,o),
(204.9,273,c)
);
},
{
closed = 1;
nodes = (
(207.7,337.9,o),
(205.1,373.1,o),
(214.1,404.9,c),
(275.8,404.8,o),
(269,353.9,o),
(270,305.1,c),
(260.6,302.8,o),
(251.4,301.9,o),
(242.3,301.9,cs),
(230.7,301.9,o),
(219.1,303.3,o),
(207,305,c)
);
}
);
width = 472;
}
);
note = uni00AE;
unicode = 174;
},
{
glyphname = uni00B0;
layers = (
{
layerId = m01;
shapes = (
{
closed = 1;
nodes = (
(129.4,531.6,o),
(99.4,563.8,o),
(69.8,563.8,cs),
(55,563.8,o),
(40.2,555.7,o),
(30.9,536.7,cs),
(26.8,528.3,o),
(25,520.4,o),
(25,513.1,cs),
(25,486.5,o),
(49.2,468.4,o),
(74.9,468.4,cs),
(90,468.4,o),
(105.5,474.7,o),
(117,489,c)
);
},
{
closed = 1;
nodes = (
(64.4,501.3,o),
(62.6,507.3,o),
(62.6,513.2,cs),
(62.6,519.2,o),
(64.4,525.1,o),
(68.1,532.8,c),
(79.1,528.4,o),
(84.6,521,o),
(84.6,513.5,cs),
(84.6,506,o),
(79,498.4,o),
(68.2,493.7,c)
);
}
);
width = 146;
}
);
note = uni00B0;
unicode = 176;
},
{
glyphname = uni00B6;
layers = (
{
layerId = m01;
shapes = (
{
closed = 1;
nodes = (
(267.9,530.3,l),
(281.8,481.4,o),
(273,419.4,o),
(273.6,368.6,cs),
(275.1,235.8,o),
(274.1,102.7,o),
(278.3,-30,c),
(308,-29.7,l),
(308,531.3,l),
(339.1,537.9,l),
(343.8,579.7,l),
(306.8,583.6,o),
(242.3,592.1,o),
(183.7,592.1,cs),
(136.9,592.1,o),
(93.8,586.7,o),
(71.8,569.2,cs),
(36.6,541.3,o),
(20.4,493.4,o),
(20.4,443.7,cs),
(20.4,377.9,o),
(48.9,309.1,o),
(99.4,280.4,cs),
(131.8,262,o),
(174.1,267.4,o),
(210.4,265.1,c),
(210.4,-33.9,l),
(248.3,-30,l),
(248.3,529,l)
);
}
);
width = 369;
}
);
note = uni00B6;
unicode = 182;
},
{
glyphname = uni00D7;
layers = (
{
layerId = m01;
shapes = (
{
closed = 1;
nodes = (
(254.3,114.6,o),
(288.6,52.6,o),
(342.3,18.3,c),
(364.4,30.6,o),
(380,49.6,o),
(396.2,68.7,c),
(358.3,122.5,o),
(304.9,166.1,o),
(261.4,215.4,c),
(307.1,261.1,o),
(357.5,303.8,o),
(399.6,352.8,c),
(386.6,376.7,o),
(365.6,395.9,o),
(347.6,416.3,c),
(207.6,274.4,l),
(168.8,319.4,o),
(129.6,381.8,o),
(80.3,414.9,c),
(60.3,398.6,o),
(40.5,381.6,o),
(27.2,359.5,c),
(62.1,305.4,o),
(115.4,264.9,o),
(152.1,211.9,c),
(110.6,163.4,o),
(62.5,119.9,o),
(25.1,68.1,c),
(78.4,15.6,l),
(124.5,59.8,o),
(161.2,113,o),
(207,157,c)
);
}
);
width = 424;
}
);
note = uni00D7;
unicode = 215;
},
{
glyphname = uni00F7;
layers = (
{
layerId = m01;
shapes = (
{
closed = 1;
nodes = (
(76.8,401.8,o),
(66.2,382.2,o),
(66.2,363,cs),
(66.2,344.3,o),
(76.4,326.1,o),
(98.6,313.3,c),
(116.4,328.9,o),
(125.8,347.6,o),
(125.8,366,cs),
(125.8,384.5,o),
(116.3,402.6,o),
(96.1,416.8,c)
);
},
{
closed = 1;
nodes = (
(76.8,103.6,o),
(66.2,83.7,o),
(66.2,64.6,cs),
(66.2,45.8,o),
(76.4,27.7,o),
(99.1,15.5,c),
(116.3,31.6,o),
(125.5,49.9,o),
(125.5,67.8,cs),
(125.5,86.1,o),
(115.9,104,o),
(95.6,118.7,c)
);
},
{
closed = 1;
nodes = (
(25,194.5,l),
(162.2,194.5,l),
(167.1,230.6,l),
(122.2,240.3,o),
(71.8,235.3,o),
(26,236,c)
);
}
);
width = 192;
}
);
note = uni00F7;
unicode = 247;
},
{
glyphname = Euro;
layers = (
{
layerId = m01;
shapes = (
{
closed = 1;
nodes = (
(232.7,208.5,o),
(253.6,208.2,o),
(271.8,215.9,c),
(276.2,230.7,o),
(275.5,244.7,o),
(273.8,260,c),
(211,255.1,l),
(210,317,l),
(262.8,319.9,o),
(281.6,300.4,o),
(284.9,366.6,c),
(209,372.5,l),
(211,408.6,o),
(205.3,509.5,o),
(245.5,509.5,cs),
(255.1,509.5,o),
(267.3,503.7,o),
(283,489.8,c),
(279.1,472.6,o),
(276.1,453.9,o),
(276.1,436,cs),
(276.1,397.2,o),
(290.3,362.2,o),
(340.9,354.5,c),
(359.8,373,o),
(405.5,455.9,o),
(401.2,481.8,cs),
(397.4,504.3,o),
(374.9,523.7,o),
(359.7,539.2,cs),
(325.6,573.9,o),
(290.6,593.3,o),
(253.8,593.3,cs),
(226.5,593.3,o),
(198.2,582.5,o),
(168.7,559.5,cs),
(149.5,544.5,o),
(128.6,527.7,o),
(116.8,506.1,cs),
(108.9,491.7,o),
(106.7,472.3,o),
(106.7,451.8,cs),
(106.7,424.9,o),
(110.6,396.3,o),
(111,375.3,c),
(31.4,372.3,l),
(26,319.6,l),
(106.3,315,l),
(107.8,259,l),
(26.8,259,l),
(24.2,205,l),
(111.2,205,l),
(112.4,178.6,o),
(107.7,148,o),
(107.7,119,cs),
(107.7,103.3,o),
(109.1,88,o),
(113.6,74.2,cs),
(129,27,o),
(205.2,-33.3,o),
(264.4,-33.3,cs),
(277.1,-33.3,o),
(288.9,-30.5,o),
(299.3,-24.3,cs),
(325,-8.9,o),
(392.4,52.2,o),
(397.8,81.4,cs),
(401.6,102.2,o),
(390.4,126,o),
(382.8,144.8,cs),
(375.4,163,o),
(365.6,200.9,o),
(341.9,202.4,cs),
(330.1,203.1,o),
(318.2,197.2,o),
(308.2,191.6,cs),
(249.5,158.6,o),
(307.8,106.4,o),
(282.4,73.3,cs),
(275.9,64.8,o),
(263.8,60.7,o),
(253.5,60.6,cs),
(205.6,60.3,o),
(209.9,173.8,o),
(213.2,207.1,c)
);
}
);
width = 428;
}
);
note = Euro;
unicode = 8364;
},
{
glyphname = uni2122;
layers = (
{
layerId = m01;
shapes = (
{
closed = 1;
nodes = (
(246.9,465.9,o),
(196.4,385.8,o),
(245.9,345,c),
(295.9,389.6,o),
(236.4,467.6,o),
(282.8,519.3,c),
(288,489.5,o),
(277.5,446.5,o),
(277.5,409,cs),
(277.5,380.6,o),
(283.5,355.4,o),
(307,341.4,c),
(319.2,352.8,o),
(326.5,364.7,o),
(333.7,379.6,c),
(322.8,407.5,o),
(314.9,437.3,o),
(314.9,467,cs),
(314.9,483.5,o),
(317.3,500,o),
(323,516.2,c),
(316.4,536.6,o),
(302.9,550.3,o),
(286.2,563.3,c),
(249.8,539.3,o),
(254.8,509.7,o),
(246.8,471.5,c),
(230.7,507.6,o),
(244.9,539.1,o),
(204.7,562.4,c),
(192.1,553.1,o),
(177.3,541.7,o),
(172.1,526.1,cs),
(165.6,506.7,o),
(177.2,478.5,o),
(176,457.5,cs),
(175.4,445,o),
(160.7,405,o),
(160.7,377.1,cs),
(160.7,353.4,o),
(183.3,337.3,o),
(200.9,357.3,cs),
(209.5,367.1,o),
(211.9,379.7,o),
(211.9,392.7,cs),
(211.9,405.7,o),
(209.5,419.1,o),
(208.5,430.8,cs),
(206.9,448.3,o),
(205.1,465.9,o),
(205.1,483.4,cs),
(205.1,495.6,o),
(206,507.8,o),
(208.5,519.8,c)
);
},
{
closed = 1;
nodes = (
(111.5,501.1,l),
(125.9,512.2,o),
(131.7,521.9,o),
(131.7,529.9,cs),
(131.7,547.7,o),
(103.1,557.4,o),
(75.6,557.4,cs),
(50.3,557.4,o),
(26.1,549.2,o),
(26.1,531.5,cs),
(26.1,523.4,o),
(31.2,513.3,o),
(43.8,501,c),
(57.9,526.3,l),
(74,488.8,o),
(36.9,353.5,o),
(78.9,350,cs),
(88,349.2,o),
(95.2,356.3,o),
(99.7,363.4,cs),
(103.2,369.1,o),
(104.5,380.3,o),
(104.5,394.5,cs),
(104.5,434.7,o),
(94.2,498.7,o),
(96.8,525.8,c)
);
}
);
width = 359;
}
);
note = uni2122;
unicode = 8482;
},
{
glyphname = uni2212;
layers = (
{
layerId = m01;
shapes = (
{
closed = 1;
nodes = (
(198.1,248.6,o),
(166.2,249.7,o),
(134.3,249.7,cs),
(97.9,249.7,o),
(61.4,248.3,o),
(26,246.1,c),
(24,202.5,l),
(224.1,202.5,l),
(229,246,l)
);
}
);
width = 254;
}
);
note = uni2212;
unicode = 8722;
},
{
glyphname = uni25CC;
layers = (
{
anchors = (
{
name = top;
pos = (270,707);
},
{
name = top_;
pos = (270,615);
},
{
name = top__;
pos = (270,615);
},
{
name = top___;
pos = (270,615);
},
{
name = top____;
pos = (270,615);
},
{
name = top_____;
pos = (270,615);
},
{
name = top______;
pos = (270,615);
},
{
name = top_______;
pos = (270,615);
},
{
name = top________;
pos = (270,615);
},
{
name = top_________;
pos = (270,615);
},
{
name = top__________;
pos = (270,615);
},
{
name = top___________;
pos = (270,615);
}
);
layerId = m01;
shapes = (
{
closed = 1;
nodes = (
(254.3,583.3,o),
(245.8,568.2,o),
(245.8,554.2,cs),
(245.8,536.6,o),
(259.5,521,o),
(274.4,521,cs),
(289.4,521,o),
(302.5,537.8,o),
(302.5,552.3,cs),
(302.5,568,o),
(288.2,581.9,o),
(277.6,593,c)
);
},
{
closed = 1;
nodes = (
(394.3,528.3,o),
(385.8,513.2,o),
(385.8,499.2,cs),
(385.8,481.6,o),
(399.5,466,o),
(414.4,466,cs),
(429.4,466,o),
(442.5,482.8,o),
(442.5,497.3,cs),
(442.5,513,o),
(428.2,526.9,o),
(417.6,538,c)
);
},
{
closed = 1;
nodes = (
(449.3,363.3,o),
(440.8,348.2,o),
(440.8,334.2,cs),
(440.8,316.6,o),
(454.5,301,o),
(469.4,301,cs),
(484.4,301,o),
(497.5,317.8,o),
(497.5,332.3,cs),
(497.5,348,o),
(483.2,361.9,o),
(472.6,373,c)
);
},
{
closed = 1;
nodes = (
(389.3,198.3,o),
(380.8,183.2,o),
(380.8,169.2,cs),
(380.8,151.6,o),
(394.5,136,o),
(409.4,136,cs),
(424.4,136,o),
(437.5,152.8,o),
(437.5,167.3,cs),
(437.5,183,o),
(423.2,196.9,o),
(412.6,208,c)
);
},
{
closed = 1;
nodes = (
(254.3,143.3,o),
(245.8,128.2,o),
(245.8,114.2,cs),
(245.8,96.6,o),
(259.5,81,o),
(274.4,81,cs),
(289.4,81,o),
(302.5,97.8,o),
(302.5,112.3,cs),
(302.5,128,o),
(288.2,141.9,o),
(277.6,153,c)
);
},
{
closed = 1;
nodes = (
(119.3,198.3,o),
(110.8,183.2,o),
(110.8,169.2,cs),
(110.8,151.6,o),
(124.5,136,o),
(139.4,136,cs),
(154.4,136,o),
(167.5,152.8,o),
(167.5,167.3,cs),
(167.5,183,o),
(153.2,196.9,o),
(142.6,208,c)
);
},
{
closed = 1;
nodes = (
(59.3,363.3,o),
(50.8,348.2,o),
(50.8,334.2,cs),
(50.8,316.6,o),
(64.5,301,o),
(79.4,301,cs),
(94.4,301,o),
(107.5,317.8,o),
(107.5,332.3,cs),
(107.5,348,o),
(93.2,361.9,o),
(82.6,373,c)
);
},
{
closed = 1;
nodes = (
(114.3,528.3,o),
(105.8,513.2,o),
(105.8,499.2,cs),
(105.8,481.6,o),
(119.5,466,o),
(134.4,466,cs),
(149.4,466,o),
(162.5,482.8,o),
(162.5,497.3,cs),
(162.5,513,o),
(148.2,526.9,o),
(137.6,538,c)
);
}
);
width = 540;
}
);
note = uni25CC;
unicode = 9676;
},
{
glyphname = uni0021;
layers = (
{
layerId = m01;
shapes = (
{
closed = 1;
nodes = (
(96.9,229.5,o),
(159.5,543.5,o),
(158.3,567.7,cs),
(157,596,o),
(129,674.2,o),
(95.9,678.8,cs),
(58.6,684.1,o),
(27,594.6,o),
(26.6,566.7,cs),
(26.3,539.7,o),
(82.1,234.4,o),
(90.4,223,c)
);
},
{
closed = 1;
nodes = (
(66.4,160,o),
(50.1,131.7,o),
(45.7,101.1,cs),
(41.9,74.9,o),
(50.7,46.6,o),
(65.4,25,cs),
(75,10.9,o),
(84.8,4.9,o),
(94,4.9,cs),
(118.3,4.9,o),
(138.3,47.2,o),
(138.3,91.3,cs),
(138.3,128.1,o),
(124.3,166.3,o),
(87.4,182.1,c)
);
}
);
width = 185;
}
);
note = uni0021;
unicode = 33;
},
{
glyphname = uni0022;
layers = (
{
layerId = m01;
shapes = (
{
closed = 1;
nodes = (
(204,551.1,o),
(207.1,586.1,o),
(218,614,cs),
(221.5,622.9,o),
(223.7,632.6,o),
(223.7,642.2,cs),
(223.7,652.8,o),
(220.9,663.3,o),
(213.7,672.1,cs),
(205.3,682.5,o),
(192,688.1,o),
(178.5,686.1,cs),
(156,682.7,o),
(147.7,661.3,o),
(147.7,635.1,cs),
(147.7,592.1,o),
(169.9,536.4,o),
(188.1,526.4,c)
);
},
{
closed = 1;
nodes = (
(82.6,543.5,o),
(81.5,572.9,o),
(91,596.9,cs),
(97.1,612.2,o),
(99.6,625.7,o),
(99.6,637.3,cs),
(99.6,668.6,o),
(81.2,686.1,o),
(63.4,686.1,cs),
(46.9,686.1,o),
(31.1,671.1,o),
(31.1,638.1,cs),
(31.1,624.6,o),
(33.7,608.2,o),
(40,588.5,cs),
(47,566.9,o),
(47.5,544.2,o),
(62,526.2,c)
);
}
);
width = 250;
}
);
note = uni0022;
unicode = 34;
},
{
glyphname = uni0023;
layers = (
{
layerId = m01;
shapes = (
{
closed = 1;
nodes = (
(298.9,141.2,l),
(293.9,82.2,o),
(275,26.3,o),
(266,-30.4,c),
(336.3,-32.8,l),
(351.1,24.5,o),
(358,86,o),
(378.4,141.4,c),
(482.3,147.3,l),
(486.4,167.9,o),
(492.2,188.7,o),
(490.7,209.8,c),
(398.5,216.4,l),
(401,255.3,o),
(409.3,295.7,o),
(420.4,334.1,c),
(534.3,334.1,l),
(543.1,402.7,l),
(438.7,407.1,l),
(439.9,470,o),
(470.1,530.5,o),
(470.2,593,c),
(401.3,595,l),
(359.1,411.2,l),
(327.7,406,o),
(295.4,404.3,o),
(263.6,406.1,c),
(262.5,467.8,o),
(286.8,535.5,o),
(299.9,595.7,c),
(228.4,595.4,l),
(204.2,538.9,o),
(198.8,469.3,o),
(186.2,409.2,c),
(73.9,404.3,l),
(71.7,381.9,o),
(68.6,359.7,o),
(73.2,337.5,c),
(170.8,332,l),
(144.9,221.1,l),
(108.4,211.5,o),
(67.6,215.4,o),
(30,213.7,c),
(25.5,151.1,l),
(57.8,143.4,o),
(92.8,144.7,o),
(126,143,c),
(90.2,-24.2,l),
(94.9,-31.1,l),
(117.3,-32.3,o),
(139.8,-35.8,o),
(161.3,-28.8,c),
(179.8,27.4,o),
(192.6,84.7,o),
(203,141.2,c)
);
},
{
closed = 1;
nodes = (
(245.9,333.1,l),
(343.9,333.1,l),
(336.2,293.9,o),
(331.4,254.3,o),
(318.6,218.1,c),
(286.5,214.7,o),
(254.2,216.2,o),
(222,217,c)
);
}
);
width = 568;
}
);
note = uni0023;
unicode = 35;
},
{
glyphname = uni0027;
layers = (
{
layerId = m01;
shapes = (
{
closed = 1;
nodes = (
(82.6,544.5,o),
(81.5,573.9,o),
(91,597.9,cs),
(97.1,613.2,o),
(99.6,626.7,o),
(99.6,638.3,cs),
(99.6,669.6,o),
(81.2,687.1,o),
(63.4,687.1,cs),
(46.9,687.1,o),
(31.1,672.1,o),
(31.1,639.1,cs),
(31.1,625.6,o),
(33.7,609.2,o),
(40,589.5,cs),
(47,567.9,o),
(47.5,545.2,o),
(62,527.2,c)
);
}
);
width = 130;
}
);
note = uni0027;
unicode = 39;
},
{
glyphname = uni0028;
layers = (
{
layerId = m01;
shapes = (
{
closed = 1;
nodes = (
(144.4,595.7,l),
(55.8,557.3,o),
(27,419.5,o),
(27,292.2,cs),
(27,216.5,o),
(37.2,144.5,o),
(51.1,99.5,cs),
(63.5,59.5,o),
(98,-25.7,o),
(143,-25.7,cs),
(154.4,-25.7,o),
(166.4,-20.3,o),
(179,-7.2,c),
(116.4,68.3,o),
(84.7,175.1,o),
(84.7,281.7,cs),
(84.7,387.4,o),
(115.9,492.8,o),
(179,567,c)
);
}
);
width = 202;
}
);
note = uni0028;
unicode = 40;
},
{
glyphname = uni0029;
layers = (
{
layerId = m01;
shapes = (
{
closed = 1;
nodes = (
(49,588.3,o),
(38.1,579.7,o),
(27.5,568.9,c),
(82.9,472.9,o),
(115.6,370,o),
(115.6,267.9,cs),
(115.6,173.6,o),
(87.7,80,o),
(24.1,-7,c),
(37.1,-20.9,o),
(49.5,-26.8,o),
(61.2,-26.8,cs),
(110.6,-26.8,o),
(146,78.6,o),
(156.5,119.4,cs),
(169.8,171,o),
(179.2,235.8,o),
(179.2,301.8,cs),
(179.2,417.8,o),
(150.1,537.6,o),
(61.7,596.5,c)
);
}
);
width = 202;
}
);
note = uni0029;
unicode = 41;
},
{
glyphname = uni002A;
layers = (
{
layerId = m01;
shapes = (
{
closed = 1;
nodes = (
(226.5,359.9,o),
(282.1,278.3,o),
(320.4,278.3,cs),
(332.8,278.3,o),
(343.4,286.9,o),
(350.2,308.8,cs),
(353.7,320,o),
(350.4,330.8,o),
(342.6,339.3,cs),
(313.7,370.7,o),
(263.9,381.6,o),
(226.8,399.8,c),
(264,422.4,o),
(312.6,429.7,o),
(345.3,460.1,cs),
(352.2,466.5,o),
(355.2,473.7,o),
(355.2,481,cs),
(355.2,489.7,o),
(351.1,498.4,o),
(344.6,506.5,cs),
(338.3,514.2,o),
(330.6,517.4,o),
(322.1,517.4,cs),
(287,517.4,o),
(237.8,462.3,o),
(215,447,c),
(222,495.1,o),
(227.8,546.8,o),
(222.2,595.3,c),
(203.2,602.5,o),
(184.9,604.6,o),
(164.6,603.1,c),
(159.3,585.6,o),
(156.7,564.9,o),
(156.7,543.6,cs),
(156.7,509.7,o),
(163.4,474.4,o),
(176.6,448.4,c),
(150.4,459.6,o),
(100.6,524.5,o),
(64.1,524.5,cs),
(55.3,524.5,o),
(47.3,520.8,o),
(40.6,511.6,cs),
(33.1,501.4,o),
(29.8,492.3,o),
(29.8,484.1,cs),
(29.8,439.4,o),
(126.1,421.8,o),
(153.6,398.2,c),
(111.4,382.3,o),
(54,361.2,o),
(25.3,325.5,c),
(36.7,296.8,o),
(51.1,286,o),
(66.7,286,cs),
(103.2,286,o),
(146.2,344.7,o),
(174,372,c),
(169.4,328.8,o),
(150.2,278.6,o),
(156.9,235.3,cs),
(159.9,216.2,o),
(177.3,205.7,o),
(195.9,206.5,cs),
(219.5,207.5,o),
(226.7,232.4,o),
(226.7,263.4,cs),
(226.7,306,o),
(213.2,360,o),
(210.9,379.3,c)
);
}
);
width = 384;
}
);
note = uni002A;
unicode = 42;
},
{
glyphname = uni002C;
layers = (
{
layerId = m01;
shapes = (
{
closed = 1;
nodes = (
(92.8,-101,o),
(135.2,29.5,o),
(125.2,75.5,cs),
(119.3,102.7,o),
(96.8,124.1,o),
(75.3,139.9,c),
(37.5,114.1,o),
(25.7,93.8,o),
(25.7,74.8,cs),
(25.7,44.5,o),
(55.9,17.3,o),
(59.2,-24.4,cs),
(61.5,-52.1,o),
(41.1,-76.1,o),
(39.5,-103.4,c)
);
}
);
width = 154;
}
);
note = uni002C;
unicode = 44;
},
{
glyphname = uni002D;
layers = (
{
layerId = m01;
shapes = (
{
closed = 1;
nodes = (
(24,192.6,l),
(151.9,192.6,l),
(157,233.5,l),
(140.3,240.1,o),
(121.2,242,o),
(101.5,242,cs),
(75.8,242,o),
(49.2,238.7,o),
(26.1,238,c)
);
}
);
width = 182;
}
);
note = uni002D;
unicode = 45;
},
{
glyphname = uni002E;
layers = (
{
layerId = m01;
shapes = (
{
closed = 1;
nodes = (
(48.1,144.5,o),
(31.1,112.5,o),
(31.1,80.8,cs),
(31.1,49.7,o),
(47.5,19,o),
(81.9,0,c),
(115.1,17.6,o),
(131,48.9,o),
(131,80.5,cs),
(131,113.6,o),
(113.6,146.9,o),
(80.5,165,c)
);
}
);
width = 160;
}
);
note = uni002E;
unicode = 46;
},
{
glyphname = uni002F;
layers = (
{
layerId = m01;
shapes = (
{
closed = 1;
nodes = (
(152.8,595.8,l),
(24.9,-30,l),
(39.9,-32.4,o),
(52.1,-33.3,o),
(66.8,-29.9,c),
(193.8,597,l)
);
}
);
width = 219;
}
);
note = uni002F;
unicode = 47;
},
{
glyphname = uni003A;
layers = (
{
layerId = m01;
shapes = (
{
closed = 1;
nodes = (
(46.6,416.3,o),
(31.8,387.6,o),
(31.8,359.3,cs),
(31.8,331.5,o),
(46,304.1,o),
(76.5,282.1,c),
(109.8,300,o),
(125,328.1,o),
(125,356.7,cs),
(125,388,o),
(106.7,420,o),
(74,439.9,c)
);
},
{
closed = 1;
nodes = (
(43.6,148.6,o),
(29.4,116.5,o),
(29.4,85.2,cs),
(29.4,45.5,o),
(52.3,7.1,o),
(77.8,7.1,cs),
(89.3,7.1,o),
(101.2,14.9,o),
(111.9,33.7,cs),
(120.6,49.1,o),
(127.2,65.7,o),
(127.2,82.8,cs),
(127.2,89.6,o),
(126.2,96.3,o),
(123.9,103.2,cs),
(116.1,126.8,o),
(101,147.6,o),
(82,163.3,c)
);
}
);
width = 157;
}
);
note = uni003A;
unicode = 58;
},
{
glyphname = uni003B;
layers = (
{
layerId = m01;
shapes = (
{
closed = 1;
nodes = (
(95.7,-99,o),
(136.4,22,o),
(129.1,66,cs),
(124.8,92,o),
(104.2,114.6,o),
(85,131.3,c),
(43.7,113.2,o),
(30.9,93.2,o),
(30.9,72.2,cs),
(30.9,39.2,o),
(62.4,3.8,o),
(64.4,-30.5,cs),
(65.9,-56.1,o),
(47.2,-77.8,o),
(45.4,-103,c)
);
},
{
closed = 1;
nodes = (
(111.3,276.1,o),
(126.5,304.4,o),
(126.5,332.3,cs),
(126.5,360.3,o),
(111.3,387.8,o),
(79.9,410,c),
(49.5,389.5,o),
(33.8,360.2,o),
(33.8,331.1,cs),
(33.8,301.8,o),
(49.7,272.5,o),
(82.1,252.3,c)
);
}
);
width = 159;
}
);
note = uni003B;
unicode = 59;
},
{
glyphname = uni003F;
layers = (
{
layerId = m01;
shapes = (
{
closed = 1;
nodes = (
(134,661.4,o),
(119.8,675.9,o),
(104.9,675.9,cs),
(94.9,675.9,o),
(84.5,669.3,o),
(71,651.3,cs),
(42.1,612.5,o),
(31.1,580.5,o),
(31.1,554.7,cs),
(31.1,497.2,o),
(85.9,471.1,o),
(117.7,471.1,cs),
(127.4,471.1,o),
(135,473.5,o),
(138.2,478.3,cs),
(143.8,486.7,o),
(145.5,497,o),
(145.5,507.8,cs),
(145.5,523.3,o),
(141.9,539.8,o),
(140.9,553.2,c),
(149.8,561.3,o),
(161,571.8,o),
(174.1,565.3,cs),
(187.6,558.7,o),
(192.7,543.7,o),
(192.7,524.4,cs),
(192.7,455.1,o),
(148.7,398.4,o),
(139.7,336.1,cs),
(134.9,302.5,o),
(133.9,244.9,o),
(163.2,223.1,c),
(178.8,253.2,o),
(168.5,290.7,o),
(182.2,322.8,cs),
(192.6,346.9,o),
(213.4,363.8,o),
(230.3,383.3,cs),
(271.3,430.6,o),
(289.8,488.9,o),
(290.2,551.4,cs),
(290.5,588.5,o),
(240.1,690.3,o),
(194.4,682.2,cs),
(178.2,679.4,o),
(167.3,659.7,o),
(156.8,648.5,c)
);
},
{
closed = 1;
nodes = (
(125.6,166.6,o),
(112.1,132.9,o),
(112.1,100.6,cs),
(112.1,54.2,o),
(140.2,10.6,o),
(166.1,10.6,cs),
(181.5,10.6,o),
(196,25.8,o),
(203.5,64.7,cs),
(212.5,111,o),
(194.8,154.7,o),
(162.9,188,c)
);
}
);
width = 315;
}
);
note = uni003F;
unicode = 63;
},
{
glyphname = uni005B;
layers = (
{
layerId = m01;
shapes = (
{
closed = 1;
nodes = (
(65.5,556,l),
(167.2,556,l),
(172.1,593.6,l),
(124.4,599.6,o),
(74.5,596,o),
(25.8,596,c),
(25.8,-29.5,l),
(165.5,-34,l),
(170.9,10.5,l),
(65.5,10.5,l)
);
}
);
width = 197;
}
);
note = uni005B;
unicode = 91;
},
{
glyphname = uni005C;
layers = (
{
layerId = m01;
shapes = (
{
closed = 1;
nodes = (
(24.2,596,l),
(153.7,-32.7,l),
(193.9,-29.6,l),
(65,597,l)
);
}
);
width = 219;
}
);
note = uni005C;
unicode = 92;
},
{
glyphname = uni005D;
layers = (
{
layerId = m01;
shapes = (
{
closed = 1;
nodes = (
(24.2,595.5,l),
(29.9,556.8,l),
(131.8,556.8,l),
(131.8,10.6,l),
(25,10.6,l),
(31.7,-31.4,l),
(172.3,-31.4,l),
(172.3,595.5,l)
);
}
);
width = 198;
}
);
note = uni005D;
unicode = 93;
},
{
glyphname = uni005F;
layers = (
{
layerId = m01;
shapes = (
{
closed = 1;
nodes = (
(220.4,-66.2,o),
(221.6,-53.1,o),
(220.7,-37.6,c),
(26,-37.6,l),
(24,-82.3,l),
(87.5,-85.2,o),
(153.6,-86.1,o),
(217,-81,c)
);
}
);
width = 247;
}
);
note = uni005F;
unicode = 95;
},
{
glyphname = uni007B;
layers = (
{
layerId = m01;
shapes = (
{
closed = 1;
nodes = (
(178.2,15.7,o),
(154.8,14.6,o),
(143,27,cs),
(115.6,55.6,o),
(141.5,195.1,o),
(129.5,240.4,cs),
(123.9,261.4,o),
(108,271.8,o),
(97,289,c),
(157.5,354.8,o),
(125.6,454.4,o),
(135.5,536.4,c),
(153.4,544.8,o),
(173.8,547.2,o),
(193.1,550.8,c),
(197.1,597,l),
(156,596.5,o),
(99.1,593.8,o),
(76.5,552,cs),
(57.8,517.3,o),
(71.4,376.9,o),
(66.1,328.4,c),
(26.4,307.5,l),
(24,294.1,o),
(23.4,280.6,o),
(26.8,267.4,c),
(38.6,261.3,o),
(56,254.3,o),
(62.4,241.7,cs),
(68.8,228.8,o),
(66.2,208.6,o),
(66.7,194.5,cs),
(68.7,125.6,o),
(43.6,3,o),
(125.8,-25.9,cs),
(138.8,-30.4,o),
(153.2,-33.6,o),
(167.4,-33.6,cs),
(175.2,-33.6,o),
(182.9,-32.6,o),
(190.2,-30.4,c),
(194.5,-15.7,o),
(194,-1.2,o),
(194,14,c)
);
}
);
width = 222;
}
);
note = uni007B;
unicode = 123;
},
{
glyphname = uni007D;
layers = (
{
layerId = m01;
shapes = (
{
closed = 1;
nodes = (
(198.2,280.5,o),
(197.4,293,o),
(197,306,c),
(182.3,312.8,o),
(168.9,319.2,o),
(155.6,328.6,c),
(151.9,375.5,o),
(163.6,522.2,o),
(143.4,554.8,cs),
(120.3,592.1,o),
(63.2,597.3,o),
(24,596.7,c),
(27.9,551.9,l),
(47.3,545.9,o),
(69,544.7,o),
(86.8,534.8,c),
(94.5,456.6,o),
(67.2,354.8,o),
(122.3,292.9,c),
(116.2,271.2,o),
(95.1,258.8,o),
(91.6,234.6,cs),
(86,196.2,o),
(100.3,48.5,o),
(79,26.9,cs),
(67.5,15.2,o),
(43.2,15.8,o),
(27.8,14.1,c),
(29.6,-27,l),
(38,-32.9,o),
(48.1,-35.4,o),
(58.8,-35.4,cs),
(93.7,-35.4,o),
(135.3,-8.5,o),
(147.1,18.9,cs),
(169.3,70.7,o),
(134,204.3,o),
(160.8,244.8,cs),
(168.6,256.5,o),
(182.7,262,o),
(194.9,267.8,c)
);
}
);
width = 222;
}
);
note = uni007D;
unicode = 125;
},
{
glyphname = uni00A1;
layers = (
{
layerId = m01;
shapes = (
{
closed = 1;
nodes = (
(88.4,300.6,o),
(84.3,299.2,o),
(81.1,288.2,cs),
(66.9,240,o),
(68.9,184.1,o),
(60.5,134.4,cs),
(51.4,80.1,o),
(23.8,16.2,o),
(26.8,-38.6,cs),
(28.4,-68.1,o),
(45.6,-102.6,o),
(62.5,-126.2,cs),
(72.3,-140,o),
(82.3,-145.6,o),
(91.8,-145.6,cs),
(124.8,-145.6,o),
(153.2,-78,o),
(157.3,-46.5,cs),
(159.8,-27.1,o),
(152.8,-7,o),
(148.6,11.7,cs),
(139.3,52.7,o),
(130.5,93.8,o),
(123.7,135.2,cs),
(114.7,189.9,o),
(115.9,251.1,o),
(98.5,303.6,c)
);
},
{
closed = 1;
nodes = (
(125.6,372.5,o),
(145.4,415,o),
(138.6,457.7,cs),
(131.8,500.9,o),
(116.1,517.7,o),
(99.5,517.7,cs),
(73.4,517.7,o),
(45.1,476.3,o),
(45.1,430.8,cs),
(45.1,399.5,o),
(58.5,366.2,o),
(95.5,343.2,c)
);
}
);
width = 185;
}
);
note = uni00A1;
unicode = 161;
},
{
glyphname = guillemotleft;
layers = (
{
layerId = m01;
shapes = (
{
closed = 1;
nodes = (
(143.1,415.6,l),
(104.4,381.5,o),
(48.2,262.5,o),
(24.3,212.5,c),
(61.8,147,o),
(95.1,73.8,o),
(143.3,15.3,c),
(156.8,28.8,o),
(173.9,42.1,o),
(182.2,59.4,c),
(169.1,98.7,o),
(113.2,181.7,o),
(112.2,214.7,cs),
(111.1,247.3,o),
(172.3,328.1,o),
(191,358,c)
);
},
{
closed = 1;
nodes = (
(251.2,377.3,o),
(173.9,255.8,o),
(172.9,210,cs),
(172,170.6,o),
(252.7,50.1,o),
(280.8,19.7,c),
(300,29.2,o),
(313.2,43.2,o),
(325.2,60.7,c),
(309.8,109.4,o),
(252.3,164.4,o),
(252.8,215.7,cs),
(253.4,274,o),
(319.2,308.6,o),
(319.2,354.1,cs),
(319.2,372,o),
(309,391.6,o),
(280.9,415,c)
);
}
);
width = 351;
}
);
note = guillemotleft;
unicode = 171;
},
{
glyphname = uni00B7;
layers = (
{
layerId = m01;
shapes = (
{
closed = 1;
nodes = (
(86.3,272.6,o),
(76.9,275.8,o),
(68.4,275.8,cs),
(44.5,275.8,o),
(27.3,250.1,o),
(27.3,223.5,cs),
(27.3,211.4,o),
(30.9,199,o),
(39.1,188.8,cs),
(49.7,175.8,o),
(60,170.4,o),
(69.3,170.4,cs),
(90.3,170.4,o),
(105.7,198.2,o),
(105.7,227.6,cs),
(105.7,240.5,o),
(102.8,253.7,o),
(96,265,c)
);
}
);
width = 132;
}
);
note = uni00B7;
unicode = 183;
},
{
glyphname = guillemotright;
layers = (
{
layerId = m01;
shapes = (
{
closed = 1;
nodes = (
(190.6,401.4,o),
(172.8,377.2,o),
(160.7,356.9,c),
(182,324.3,o),
(236.8,253.7,o),
(238.5,215.9,cs),
(239.5,191.8,o),
(181.8,91.3,o),
(169.8,60.3,c),
(176.6,43.4,o),
(195.3,27.2,o),
(209.8,16,c),
(230.5,44.2,o),
(322.9,185.5,o),
(324.5,212.6,cs),
(325.5,229.7,o),
(227,398.1,o),
(210,414.9,c)
);
},
{
closed = 1;
nodes = (
(35.7,44.7,o),
(49.2,30.7,o),
(66.6,20,c),
(89.6,29.4,o),
(183.2,186.8,o),
(180.5,211.8,cs),
(177.2,242.6,o),
(92.3,394.4,o),
(68.2,414.8,c),
(52.3,399.7,o),
(40,381.1,o),
(27.9,362.8,c),
(25.8,318.9,o),
(94.6,262.7,o),
(100.1,217.5,cs),
(103,192.9,o),
(36,94.9,o),
(25.4,62.4,c)
);
}
);
width = 351;
}
);
note = guillemotright;
unicode = 187;
},
{
glyphname = uni00BF;
layers = (
{
layerId = m01;
shapes = (
{
closed = 1;
nodes = (
(142,-12.3,o),
(142.8,-1.7,o),
(142.8,7.6,cs),
(142.8,45.3,o),
(129.1,59.2,o),
(111.1,59.2,cs),
(80.6,59.2,o),
(37.8,19.9,o),
(27.5,-10.4,cs),
(25.4,-16.6,o),
(24.4,-23.3,o),
(24.4,-30.2,cs),
(24.4,-77.7,o),
(70.3,-137.5,o),
(104.9,-158,c),
(123.2,-148,o),
(137.4,-132.9,o),
(154.4,-121,c),
(165.5,-131.8,o),
(176.9,-151.1,o),
(192.9,-154.2,cs),
(243.1,-164,o),
(289.4,-61,o),
(289.9,-21.9,cs),
(291.3,104,o),
(225.9,111.6,o),
(182.8,204.2,cs),
(167.9,236.2,o),
(176.2,272.6,o),
(163.5,304.9,c),
(130.8,277.1,o),
(130.8,215.6,o),
(143,177,cs),
(148.1,161,o),
(193.3,54.2,o),
(193.3,-4.2,cs),
(193.3,-28.4,o),
(185.5,-44.3,o),
(163.9,-42,cs),
(153,-40.8,o),
(146.7,-32.3,o),
(140.2,-24.6,c)
);
},
{
closed = 1;
nodes = (
(192.5,366.7,o),
(210.1,409.6,o),
(206.3,451.2,cs),
(201.8,499,o),
(185.5,517.5,o),
(167.6,517.5,cs),
(140.9,517.5,o),
(110.8,476.6,o),
(110.8,430,cs),
(110.8,398.8,o),
(124.3,365.1,o),
(161.3,339.4,c)
);
}
);
width = 315;
}
);
note = uni00BF;
unicode = 191;
},
{
glyphname = uni2013;
layers = (
{
layerId = m01;
shapes = (
{
closed = 1;
nodes = (
(198.1,248.6,o),
(166.2,249.7,o),
(134.3,249.7,cs),
(97.9,249.7,o),
(61.4,248.3,o),
(26,246.1,c),
(24,202.5,l),
(224.1,202.5,l),
(229,246,l)
);
}
);
width = 254;
}
);
note = uni2013;
unicode = 8211;
},
{
glyphname = uni2014;
layers = (
{
layerId = m01;
shapes = (
{
closed = 1;
nodes = (
(25.4,230.9,o),
(24.7,217.2,o),
(24,202.2,c),
(311.6,202.2,l),
(316.4,216.4,o),
(319,229,o),
(319.2,244.2,c),
(281,251.3,o),
(239,253.8,o),
(196.5,253.8,cs),
(139.3,253.8,o),
(81,249.3,o),
(29.1,245.2,c)
);
}
);
width = 346;
}
);
note = uni2014;
unicode = 8212;
},
{
glyphname = uni2018;
layers = (
{
layerId = m01;
shapes = (
{
closed = 1;
nodes = (
(82.6,544.5,o),
(81.5,573.9,o),
(91,597.9,cs),
(97.1,613.2,o),
(99.6,626.7,o),
(99.6,638.3,cs),
(99.6,669.6,o),
(81.2,687.1,o),
(63.4,687.1,cs),
(46.9,687.1,o),
(31.1,672.1,o),
(31.1,639.1,cs),
(31.1,625.6,o),
(33.7,609.2,o),
(40,589.5,cs),
(47,567.9,o),
(47.5,545.2,o),
(62,527.2,c)
);
}
);
width = 130;
}
);
note = uni2018;
unicode = 8216;
},
{
glyphname = uni2019;
layers = (
{
layerId = m01;
shapes = (
{
closed = 1;
nodes = (
(82.6,544.5,o),
(81.5,573.9,o),
(91,597.9,cs),
(97.1,613.2,o),
(99.6,626.7,o),
(99.6,638.3,cs),
(99.6,669.6,o),
(81.2,687.1,o),
(63.4,687.1,cs),
(46.9,687.1,o),
(31.1,672.1,o),
(31.1,639.1,cs),
(31.1,625.6,o),
(33.7,609.2,o),
(40,589.5,cs),
(47,567.9,o),
(47.5,545.2,o),
(62,527.2,c)
);
}
);
width = 130;
}
);
note = uni2019;
unicode = 8217;
},
{
glyphname = uni201A;
layers = (
{
layerId = m01;
shapes = (
{
closed = 1;
nodes = (
(83.6,127.5,o),
(120.1,231.5,o),
(111.7,273,cs),
(106.7,297.3,o),
(86.6,316,o),
(66.5,328.8,c),
(37.1,304.6,o),
(27.8,288,o),
(27.8,272.8,cs),
(27.8,249,o),
(50.9,229,o),
(54.1,189.4,cs),
(56,165.8,o),
(39.7,145.4,o),
(37.5,122.3,c)
);
}
);
width = 139;
}
);
note = uni201A;
unicode = 8218;
},
{
glyphname = uni201C;
layers = (
{
layerId = m01;
shapes = (
{
closed = 1;
nodes = (
(203.9,555.1,o),
(222.5,608.2,o),
(223.8,639.3,cs),
(224.5,654.7,o),
(218.7,670.4,o),
(205.8,679.6,cs),
(194.8,687.4,o),
(185.7,690.8,o),
(178.2,690.8,cs),
(157.9,690.8,o),
(149.6,665.6,o),
(149.6,635,cs),
(149.6,590.7,o),
(166.9,535,o),
(190,527.1,c)
);
},
{
closed = 1;
nodes = (
(82.6,543.5,o),
(81.5,572.9,o),
(91,596.9,cs),
(97.1,612.2,o),
(99.6,625.7,o),
(99.6,637.3,cs),
(99.6,668.6,o),
(81.2,686.1,o),
(63.4,686.1,cs),
(46.9,686.1,o),
(31.1,671.1,o),
(31.1,638.1,cs),
(31.1,624.6,o),
(33.7,608.2,o),
(40,588.5,cs),
(47,566.9,o),
(47.5,544.2,o),
(62,526.2,c)
);
}
);
width = 250;
}
);
note = uni201C;
unicode = 8220;
},
{
glyphname = uni201D;
layers = (
{
layerId = m01;
shapes = (
{
closed = 1;
nodes = (
(203.9,555.1,o),
(222.5,608.2,o),
(223.8,639.3,cs),
(224.5,654.7,o),
(218.7,670.4,o),
(205.8,679.6,cs),
(194.8,687.4,o),
(185.7,690.8,o),
(178.2,690.8,cs),
(157.9,690.8,o),
(149.6,665.6,o),
(149.6,635,cs),
(149.6,590.7,o),
(166.9,535,o),
(190,527.1,c)
);
},
{
closed = 1;
nodes = (
(82.6,543.5,o),
(81.5,572.9,o),
(91,596.9,cs),
(97.1,612.2,o),
(99.6,625.7,o),
(99.6,637.3,cs),
(99.6,668.6,o),
(81.2,686.1,o),
(63.4,686.1,cs),
(46.9,686.1,o),
(31.1,671.1,o),
(31.1,638.1,cs),
(31.1,624.6,o),
(33.7,608.2,o),
(40,588.5,cs),
(47,566.9,o),
(47.5,544.2,o),
(62,526.2,c)
);
}
);
width = 250;
}
);
note = uni201D;
unicode = 8221;
},
{
glyphname = uni201E;
layers = (
{
layerId = m01;
shapes = (
{
closed = 1;
nodes = (
(83.6,127.5,o),
(120.1,231.5,o),
(111.7,273,cs),
(106.7,297.3,o),
(86.6,316,o),
(66.5,328.8,c),
(37.1,304.6,o),
(27.8,288,o),
(27.8,272.8,cs),
(27.8,249,o),
(50.9,229,o),
(54.1,189.4,cs),
(56,165.8,o),
(39.7,145.4,o),
(37.5,122.3,c)
);
},
{
closed = 1;
nodes = (
(212.9,127.5,o),
(249.2,231.5,o),
(240.2,273,cs),
(235.2,296,o),
(216.3,314.8,o),
(198.6,328.9,c),
(166.5,307.5,o),
(156.6,290.7,o),
(156.6,274.6,cs),
(156.6,249.7,o),
(180.3,226.3,o),
(183.1,189.3,cs),
(185,165.7,o),
(168.7,145.3,o),
(166.5,122.3,c)
);
}
);
width = 268;
}
);
note = uni201E;
unicode = 8222;
},
{
glyphname = uni2022;
layers = (
{
layerId = m01;
shapes = (
{
closed = 1;
nodes = (
(109,299,o),
(97,302.8,o),
(86.2,302.8,cs),
(52,302.8,o),
(30.4,263.9,o),
(30.4,224.4,cs),
(30.4,201.9,o),
(37.5,179.2,o),
(53.2,163.5,cs),
(66.8,150,o),
(79.8,144.3,o),
(91.5,144.3,cs),
(122,144.3,o),
(143.7,183.4,o),
(143.7,225.1,cs),
(143.7,247.9,o),
(137.1,271.6,o),
(122,290,c)
);
}
);
width = 172;
}
);
note = uni2022;
unicode = 8226;
},
{
glyphname = uni2026;
layers = (
{
layerId = m01;
shapes = (
{
closed = 1;
nodes = (
(404.7,148.8,o),
(392,118.8,o),
(392,89.3,cs),
(392,50.2,o),
(414.2,11.8,o),
(436.8,11.8,cs),
(445.7,11.8,o),
(454.8,17.9,o),
(462.5,32.5,cs),
(472.7,51.8,o),
(481.4,75.9,o),
(478.6,98,cs),
(475.4,124.1,o),
(457.8,145.4,o),
(439.5,163,c)
);
},
{
closed = 1;
nodes = (
(45.8,142.5,o),
(22.4,107,o),
(30.2,70,cs),
(38.7,29.4,o),
(54.2,13.7,o),
(69.7,13.7,cs),
(92.7,13.7,o),
(115.6,48.2,o),
(115.6,87,cs),
(115.6,114.4,o),
(104.2,143.9,o),
(73.2,164.9,c)
);
},
{
closed = 1;
nodes = (
(224.1,148.4,o),
(211.3,117.7,o),
(211.3,87.9,cs),
(211.3,49.2,o),
(232.8,11.8,o),
(255,11.8,cs),
(263.4,11.8,o),
(271.9,17.1,o),
(279.4,29.7,cs),
(290.4,48.3,o),
(299,73,o),
(297.7,94.8,cs),
(296.1,122.1,o),
(278.2,145,o),
(259.3,163.1,c)
);
}
);
width = 501;
}
);
note = uni2026;
unicode = 8230;
},
{
glyphname = uni2039;
layers = (
{
layerId = m01;
shapes = (
{
closed = 1;
nodes = (
(189.8,362.5,l),
(176.8,382.3,o),
(164.1,402.4,o),
(144.8,416.4,c),
(116.4,382.9,o),
(31.4,259.9,o),
(29.2,219.2,cs),
(26.9,177.3,o),
(113.8,47.9,o),
(143.5,15.3,c),
(161.5,26.4,o),
(175.4,41,o),
(189.3,57,c),
(168.5,112,o),
(134.5,163.5,o),
(108,216,c)
);
}
);
width = 214;
}
);
note = uni2039;
unicode = 8249;
},
{
glyphname = uni203A;
layers = (
{
layerId = m01;
shapes = (
{
closed = 1;
nodes = (
(48.3,401.8,o),
(36.8,381.5,o),
(24.6,361.1,c),
(105.5,215.1,l),
(78.7,164.1,o),
(41.9,110.8,o),
(25.6,55.5,c),
(69.5,15,l),
(100.3,46.6,o),
(187.3,175.9,o),
(184.7,218.3,cs),
(182.1,260.9,o),
(98.6,382.2,o),
(68.2,415.3,c)
);
}
);
width = 213;
}
);
note = uni203A;
unicode = 8250;
},
{
glyphname = uni0030;
layers = (
{
layerId = m01;
shapes = (
{
closed = 1;
nodes = (
(274.8,618.3,o),
(232.4,685.6,o),
(177.7,685.6,cs),
(151.2,685.6,o),
(121.7,669.9,o),
(87.7,630.5,cs),
(67.3,607,o),
(32.1,575.8,o),
(25.6,544.5,cs),
(20,517.2,o),
(18.1,487.6,o),
(18.1,457.3,cs),
(18.1,402.9,o),
(24,346.3,o),
(24,296.1,cs),
(24,267.5,o),
(19.5,231.5,o),
(19.5,197.6,cs),
(19.5,175,o),
(21.5,153.3,o),
(28.1,135.3,cs),
(38,108.5,o),
(61.9,84.3,o),
(80.2,62.9,cs),
(115.2,22,o),
(142.6,0.6,o),
(170.3,0.6,cs),
(196.9,0.6,o),
(223.7,20.2,o),
(258,61.1,cs),
(276.7,83.4,o),
(301,108.7,o),
(311.2,136.5,cs),
(328.8,184.1,o),
(318.1,253.2,o),
(318.6,303.5,cs),
(319.3,386.3,o),
(319.7,469.2,o),
(320,552,c)
);
},
{
closed = 1;
nodes = (
(179,576,o),
(191.7,567.9,o),
(197.2,551.9,cs),
(205.3,528.3,o),
(208.9,442.5,o),
(208.9,354.2,cs),
(208.9,260.4,o),
(204.9,163.9,o),
(198,136.3,cs),
(195,124.5,o),
(187.6,110.6,o),
(174.2,108.8,cs),
(157.3,106.5,o),
(146.2,123.9,o),
(141.9,137.7,cs),
(133.5,165.6,o),
(128.4,290.4,o),
(128.4,395.5,cs),
(128.4,465,o),
(130.6,525.9,o),
(135.6,544.3,cs),
(140.1,561.1,o),
(151.3,572.9,o),
(164.7,583,c)
);
}
);
width = 344;
}
);
note = uni0030;
unicode = 48;
},
{
glyphname = uni0031;
layers = (
{
layerId = m01;
shapes = (
{
closed = 1;
nodes = (
(137.2,682.6,o),
(67.9,638.6,o),
(30.7,624.7,c),
(35.8,595.1,o),
(55.4,571.5,o),
(66.1,543.8,cs),
(80.9,505.5,o),
(79.9,459.9,o),
(80.4,419.4,cs),
(81.4,347,o),
(82.1,272.6,o),
(74.6,200.5,cs),
(71.4,169.4,o),
(50.3,132.8,o),
(55.5,102,cs),
(60.5,73.4,o),
(88.9,19.1,o),
(116.1,6,cs),
(155.8,-13.2,o),
(209.3,80.7,o),
(208,112.6,cs),
(206.4,151,o),
(185.7,188.3,o),
(184.2,228.7,cs),
(182.2,278.2,o),
(181,328.5,o),
(181,378.7,cs),
(181,421.9,o),
(181.9,465.1,o),
(184.1,507.7,cs),
(185.7,536.9,o),
(203,565.6,o),
(200,594.8,cs),
(196.7,626,o),
(178.8,658.7,o),
(166.7,687.4,c)
);
}
);
width = 231;
}
);
note = uni0031;
unicode = 49;
},
{
glyphname = uni0032;
layers = (
{
layerId = m01;
shapes = (
{
closed = 1;
nodes = (
(170.7,264.1,o),
(314.6,372.1,o),
(319.2,501.6,cs),
(320,524.4,o),
(323.6,551.2,o),
(316.9,573.2,cs),
(302.6,620.4,o),
(236.3,686.8,o),
(185.4,691.5,cs),
(145.5,695.3,o),
(39.4,608.1,o),
(30.6,569.6,cs),
(22.6,535,o),
(45.6,472.1,o),
(66.3,444.8,cs),
(76.6,431.2,o),
(92,421,o),
(109.6,424.5,cs),
(147.7,432.3,o),
(158,450.3,o),
(158,471.9,cs),
(158,502,o),
(137.9,539.2,o),
(144.9,565.4,cs),
(148.4,578.7,o),
(155.9,583.9,o),
(164.4,583.9,cs),
(179.6,583.9,o),
(197.6,567.3,o),
(200.8,551.1,cs),
(204.2,533.7,o),
(205.7,516.5,o),
(205.7,499.5,cs),
(205.7,389.2,o),
(141,284.7,o),
(81.3,196.4,cs),
(64.1,171,o),
(32.3,138.2,o),
(25.6,107.9,cs),
(18.7,76.9,o),
(57.8,17,o),
(80,-2.2,c),
(97.9,7.1,o),
(109.3,26.9,o),
(122.5,41.9,c),
(148.4,35.7,o),
(243.5,-9.6,o),
(259.7,-2.4,cs),
(290.5,11.4,o),
(335,64.8,o),
(341.3,98.3,cs),
(345.1,118.5,o),
(301.1,200.5,o),
(281.6,208.1,cs),
(274.5,210.9,o),
(268.5,212.1,o),
(263.4,212.1,cs),
(220.2,212.1,o),
(239.1,124.1,o),
(219.5,109.9,cs),
(214,105.9,o),
(207.9,104.3,o),
(201.6,104.3,cs),
(177.6,104.3,o),
(149.1,127.2,o),
(127.3,131.9,c)
);
}
);
width = 367;
}
);
note = uni0032;
unicode = 50;
},
{
glyphname = uni0033;
layers = (
{
layerId = m01;
shapes = (
{
closed = 1;
nodes = (
(220.5,401.6,o),
(240.8,412.3,o),
(256.3,429.9,cs),
(280,456.9,o),
(308.2,519.8,o),
(308.2,566.4,cs),
(308.2,578.1,o),
(306.4,588.7,o),
(302.4,597.5,cs),
(291.6,621.3,o),
(264.2,641.3,o),
(244.4,657.4,cs),
(225.1,673.1,o),
(200.5,694.8,o),
(174.1,693.9,cs),
(122.4,692.2,o),
(42.1,631.6,o),
(26.8,581.6,cs),
(19.7,558.2,o),
(26.2,530.1,o),
(37.5,509.3,cs),
(45.4,494.8,o),
(55.6,479.4,o),
(70.4,471.4,cs),
(78,467.3,o),
(86.5,465.3,o),
(95.1,465.3,cs),
(101.5,465.3,o),
(107.9,466.4,o),
(113.8,468.5,cs),
(182.5,492.4,o),
(106.3,581,o),
(152.8,587.8,cs),
(162.4,589.3,o),
(173.1,587.3,o),
(181.1,581.5,cs),
(193.5,572.4,o),
(198.7,548,o),
(198.7,520.4,cs),
(198.7,478.7,o),
(186.9,429.7,o),
(170.5,415.5,cs),
(154.3,401.4,o),
(122.7,399.7,o),
(102.3,395.1,c),
(99.9,382.8,o),
(98.7,372.2,o),
(101.1,359.9,c),
(124.9,351.1,o),
(158.4,360.7,o),
(176.9,339.5,cs),
(190.8,323.5,o),
(202.5,249,o),
(202.5,187.8,cs),
(202.5,146,o),
(197.1,110.5,o),
(183.2,104,cs),
(175.5,100.3,o),
(165.1,101.5,o),
(158,106.1,cs),
(101.5,142.8,o),
(186.9,243.5,o),
(116.4,271.8,cs),
(104.4,276.6,o),
(90.8,278.2,o),
(78.9,272.5,cs),
(44.8,256.3,o),
(25.7,197.6,o),
(25.7,152.3,cs),
(25.7,139.4,o),
(27.2,127.5,o),
(30.5,118,cs),
(45.3,74.9,o),
(128.2,-1.7,o),
(175,-2.7,cs),
(223.2,-3.7,o),
(306.5,100.2,o),
(316.6,144.5,cs),
(320,159.4,o),
(321.6,176.8,o),
(321.6,195.1,cs),
(321.6,233.3,o),
(314.3,275.1,o),
(300.3,303.8,cs),
(278.4,348.7,o),
(237.6,354.3,o),
(204.4,385.2,c)
);
}
);
width = 344;
}
);
note = uni0033;
unicode = 51;
},
{
glyphname = uni0034;
layers = (
{
layerId = m01;
shapes = (
{
closed = 1;
nodes = (
(303.3,618.3,o),
(278.3,662,o),
(248,691.4,c),
(214.6,671.8,o),
(105.3,620.9,o),
(90,589.9,cs),
(81.2,572.1,o),
(98.7,534.3,o),
(99.9,514.1,cs),
(104,449.3,o),
(97.3,383.8,o),
(81.9,320.7,cs),
(75.2,293.3,o),
(20,176,o),
(28.5,162.5,cs),
(53,123.2,o),
(138.5,136.7,o),
(178.9,135,c),
(184.4,73.8,o),
(196.1,30.6,o),
(251.4,-2.6,c),
(281,11.7,o),
(308.6,52.7,o),
(309.7,86.2,cs),
(310.2,101.3,o),
(304.9,115.4,o),
(306.7,130.4,c),
(320.9,136.6,o),
(338.6,136.7,o),
(351.7,145.4,cs),
(360.4,151.2,o),
(364,157,o),
(364,162.3,cs),
(364,181,o),
(321.5,195.5,o),
(307.3,197.1,c),
(298.3,209.4,o),
(295.4,276,o),
(295.4,343.6,cs),
(295.4,408.2,o),
(298,473.8,o),
(300.5,493.8,cs),
(304.1,523.3,o),
(314.3,552.5,o),
(322.7,580.9,c)
);
},
{
closed = 1;
nodes = (
(125.3,284.6,o),
(152.4,380,o),
(188.1,461.2,c),
(195.2,442.3,o),
(197.7,413,o),
(197.7,380.1,cs),
(197.7,317.3,o),
(188.6,241.6,o),
(185.1,200.7,c),
(106,198,l)
);
}
);
width = 387;
}
);
note = uni0034;
unicode = 52;
},
{
glyphname = uni0035;
layers = (
{
layerId = m01;
shapes = (
{
closed = 1;
nodes = (
(91.5,423,o),
(89.3,448,o),
(89.3,473.7,cs),
(89.3,509.3,o),
(93.5,546.2,o),
(100.1,574.7,c),
(129.9,577.5,o),
(160.1,576.8,o),
(189.7,572.5,c),
(196.8,549.6,o),
(194.3,522.4,o),
(207.8,501.9,cs),
(221.1,481.8,o),
(234.9,473.7,o),
(248.2,473.7,cs),
(288.5,473.7,o),
(323.6,548.8,o),
(322.7,588.4,cs),
(322,621.9,o),
(302.2,662.9,o),
(286.5,692,c),
(244,693.2,o),
(207.8,678.2,o),
(167,678.2,cs),
(155.7,678.2,o),
(143.9,679.3,o),
(131.6,682.4,cs),
(118.7,685.5,o),
(101.7,692,o),
(86.4,692,cs),
(79.2,692,o),
(72.4,690.6,o),
(66.6,686.8,cs),
(50.5,676.1,o),
(39.5,523.8,o),
(39.5,423,cs),
(39.5,379,o),
(41.6,344.7,o),
(46.3,336.5,cs),
(52.3,326,o),
(58.5,321.8,o),
(65,321.8,cs),
(91.8,321.8,o),
(122.6,392.8,o),
(157.7,379.5,cs),
(187.8,368.2,o),
(198.7,290.7,o),
(198.7,218.2,cs),
(198.7,165.1,o),
(192.9,114.7,o),
(184.4,95,c),
(93.5,93.4,o),
(192.2,242,o),
(104.4,256.9,cs),
(87.8,259.8,o),
(71,253.9,o),
(59.1,242.3,cs),
(37.5,221.1,o),
(28.4,194.7,o),
(28.4,167.1,cs),
(28.4,87.7,o),
(103.8,-1,o),
(172.1,-1,cs),
(187.5,-1,o),
(202.5,3.5,o),
(216.3,13.7,cs),
(249.1,38,o),
(294.9,87.3,o),
(308.8,126.2,cs),
(316.1,146.5,o),
(320,176.2,o),
(320,209.3,cs),
(320,308.3,o),
(284.6,438.4,o),
(197.3,443,cs),
(158.9,445,o),
(128.4,419.5,o),
(96.5,402.4,c)
);
}
);
width = 348;
}
);
note = uni0035;
unicode = 53;
},
{
glyphname = uni0036;
layers = (
{
layerId = m01;
shapes = (
{
closed = 1;
nodes = (
(133.4,440.2,o),
(125.8,595.1,o),
(177,595.1,cs),
(222.2,595.1,o),
(204.7,485.8,o),
(254.7,485.8,cs),
(263.2,485.8,o),
(273.2,490.7,o),
(285.1,502.5,cs),
(305.4,522.7,o),
(313.9,544.7,o),
(313.9,566.2,cs),
(313.9,626.4,o),
(247.2,682.3,o),
(185.8,682.3,cs),
(166,682.3,o),
(146.8,676.5,o),
(130.5,663.2,cs),
(94.7,633.9,o),
(47.3,584.5,o),
(33.1,539.6,cs),
(25.8,516.6,o),
(21.1,379.2,o),
(21.1,270.9,cs),
(21.1,207,o),
(22.7,153.2,o),
(26.4,139.1,cs),
(36.6,99.6,o),
(130.5,-4.7,o),
(173.2,-1.7,cs),
(221.4,1.6,o),
(299.9,89.9,o),
(312.7,134.5,cs),
(318,153.2,o),
(321.4,183.5,o),
(321.4,218,cs),
(321.4,321.7,o),
(291.3,463.7,o),
(195.9,446.8,cs),
(172.6,442.6,o),
(154.3,423.4,o),
(135,411,c)
);
},
{
closed = 1;
nodes = (
(138.4,273.3,o),
(134.2,314.2,o),
(143.5,348.4,cs),
(146.6,359.9,o),
(156.1,370.8,o),
(168.8,370.8,cs),
(196.2,370.8,o),
(202,302.8,o),
(202,241.4,cs),
(202,198.6,o),
(199.2,159,o),
(198.9,148,cs),
(198.5,134.8,o),
(196.2,120.8,o),
(185.9,111.5,cs),
(178.4,104.8,o),
(172.1,101.9,o),
(166.8,101.9,cs),
(132.5,101.9,o),
(138.3,223,o),
(138,238,cs)
);
}
);
width = 346;
}
);
note = uni0036;
unicode = 54;
},
{
glyphname = uni0037;
layers = (
{
layerId = m01;
shapes = (
{
closed = 1;
nodes = (
(243.8,135.1,o),
(231.9,163,o),
(228.3,192.9,cs),
(217.1,286.8,o),
(253.3,401.6,o),
(284.3,489.1,cs),
(292.6,512.6,o),
(301.8,536.3,o),
(314.8,557.5,cs),
(323.8,572.2,o),
(354.7,594.8,o),
(352.5,612.8,cs),
(350.2,631.4,o),
(319.6,684.5,o),
(302.3,692.4,cs),
(295.3,695.6,o),
(286.6,696.8,o),
(277.1,696.8,cs),
(249.4,696.8,o),
(214.7,686.7,o),
(192.4,686.4,cs),
(170.9,686.2,o),
(140,695.5,o),
(114.4,695.5,cs),
(104.8,695.5,o),
(95.9,694.2,o),
(88.5,690.6,cs),
(65.7,679.3,o),
(49.2,650.5,o),
(37.7,628.9,cs),
(31.5,617.1,o),
(24.1,603.4,o),
(24.6,589.7,cs),
(25.7,562.4,o),
(62,474.6,o),
(94.1,476.1,cs),
(158.5,479.2,o),
(104,573,o),
(158.3,573,cs),
(182.7,573,o),
(225,561.9,o),
(238.5,559.3,c),
(238.8,520.8,o),
(217.2,476.1,o),
(206.3,439.3,cs),
(172.6,326,o),
(136.7,214.2,o),
(99.4,102.2,c),
(132.4,34.7,o),
(152.8,3.2,o),
(173,3.2,cs),
(194.8,3.2,o),
(216.6,39.7,o),
(254,107,c)
);
}
);
width = 379;
}
);
note = uni0037;
unicode = 55;
},
{
glyphname = uni0038;
layers = (
{
layerId = m01;
shapes = (
{
closed = 1;
nodes = (
(257.6,392.3,o),
(288.1,417.4,o),
(299.3,447.8,cs),
(305.5,464.3,o),
(308.4,483.1,o),
(308.4,502.7,cs),
(308.4,584.2,o),
(257.9,679.7,o),
(176.5,689.6,cs),
(126.1,695.7,o),
(55.1,621.6,o),
(39.5,577.9,cs),
(27.8,545.1,o),
(28.4,502.3,o),
(32.7,468.1,cs),
(38.1,425.1,o),
(74,396.8,o),
(95.7,362,c),
(77,340.5,o),
(52.9,321.6,o),
(39.9,295.9,cs),
(29,274.7,o),
(30.1,249.1,o),
(29,225.9,cs),
(25.1,146.8,o),
(39.9,104.8,o),
(94.3,46.9,cs),
(113.8,26.2,o),
(138.9,-1.7,o),
(169.7,-1.4,cs),
(200.3,-1.2,o),
(225.9,26.2,o),
(245.4,46.8,cs),
(293.1,97.2,o),
(315,148.4,o),
(315,199.2,cs),
(315,256.9,o),
(286.8,314,o),
(236,369,c)
);
},
{
closed = 1;
nodes = (
(144.7,124.2,o),
(134.5,168.2,o),
(134.5,212.1,cs),
(134.5,252.8,o),
(143.3,293.4,o),
(159.5,314.9,c),
(188.4,302.8,o),
(202.8,253.5,o),
(202.8,205.2,cs),
(202.8,160.9,o),
(190.7,117.5,o),
(166.7,104,c)
);
},
{
closed = 1;
nodes = (
(152.8,425,o),
(145.2,476.7,o),
(145.2,521.1,cs),
(145.2,558,o),
(150.5,589.9,o),
(165.9,589.9,cs),
(171.3,589.9,o),
(178,585.9,o),
(186.2,576.8,cs),
(190.7,571.7,o),
(196.4,534.8,o),
(196.4,497.2,cs),
(196.4,451.9,o),
(188.2,405.6,o),
(159.9,412.4,c)
);
}
);
width = 332;
}
);
note = uni0038;
unicode = 56;
},
{
glyphname = uni0039;
layers = (
{
layerId = m01;
shapes = (
{
closed = 1;
nodes = (
(210.5,229.3,o),
(206.4,168,o),
(190.4,122.1,cs),
(186.6,111.2,o),
(180.6,98,o),
(168.9,93.8,cs),
(115.9,74.6,o),
(162.9,202.8,o),
(91.5,198.3,cs),
(76.9,197.4,o),
(62.5,192.5,o),
(52.5,181.4,cs),
(38.4,165.8,o),
(32.4,147.7,o),
(32.4,129.1,cs),
(32.4,67.4,o),
(99.2,0.5,o),
(159.8,0.5,cs),
(176.9,0.5,o),
(193.6,5.9,o),
(208.1,18.3,cs),
(249.4,53.7,o),
(294.2,112.1,o),
(309.7,164.8,cs),
(318.1,193.3,o),
(324.3,332.9,o),
(324.3,436.6,cs),
(324.3,489.8,o),
(322.7,533.6,o),
(318.9,547.9,cs),
(306.2,595.7,o),
(222.6,694.4,o),
(168.2,688.6,cs),
(116.6,683.2,o),
(49.4,608.2,o),
(34.3,560.8,cs),
(28.5,542.9,o),
(25.7,496,o),
(25.7,449.4,cs),
(25.7,403.8,o),
(28.4,358.5,o),
(33.8,340.8,cs),
(50.8,285.8,o),
(91.6,254,o),
(137,254,cs),
(159.1,254,o),
(182.2,261.5,o),
(204.1,277.4,c)
);
},
{
closed = 1;
nodes = (
(150.9,318.2,o),
(140,393.8,o),
(140,461.9,cs),
(140,530,o),
(150.8,590.7,o),
(178.1,581.5,cs),
(197.9,574.8,o),
(209.5,513.1,o),
(209.5,448.8,cs),
(209.5,380.9,o),
(196.6,310.1,o),
(166.8,298,c)
);
}
);
width = 347;
}
);
note = uni0039;
unicode = 57;
},
{
glyphname = uni0060;
layers = (
{
layerId = m01;
shapes = (
{
closed = 1;
nodes = (
(146,479.3,o),
(115.7,560.6,o),
(73.2,560.6,cs),
(65.1,560.6,o),
(56.6,557.6,o),
(47.6,550.8,cs),
(37.9,543.4,o),
(27.8,531.3,o),
(31.3,518.3,cs),
(40.6,482.6,o),
(126.1,450,o),
(158.6,446.3,c)
);
}
);
width = 180;
}
);
note = uni0060;
unicode = 96;
},
{
glyphname = uni00A8;
layers = (
{
layerId = m01;
shapes = (
{
closed = 1;
nodes = (
(217.7,182.8,o),
(230.9,203.4,o),
(230.9,224.6,cs),
(230.9,245.4,o),
(218.1,266.8,o),
(193.7,285.6,c),
(162.2,273.1,o),
(148.1,252,o),
(148.1,229.9,cs),
(148.1,206.9,o),
(163.2,182.8,o),
(189.8,166.1,c)
);
},
{
closed = 1;
nodes = (
(44.2,268.6,o),
(31.8,249.3,o),
(31.8,229.6,cs),
(31.8,208.9,o),
(45.5,187.8,o),
(70.4,167.2,c),
(97.1,185.8,o),
(111.3,207.4,o),
(111.3,228.9,cs),
(111.3,249.3,o),
(98.4,269.6,o),
(71,286.9,c)
);
}
);
width = 262;
}
);
note = uni00A8;
unicode = 168;
},
{
glyphname = uni00AF;
layers = (
{
layerId = m01;
shapes = (
{
closed = 1;
nodes = (
(27.3,252.5,l),
(24,195.2,l),
(215.6,195.2,l),
(218.7,214.2,o),
(219.9,231.8,o),
(216.3,252.5,c)
);
}
);
width = 244;
}
);
note = uni00AF;
unicode = 175;
},
{
glyphname = uni00B4;
layers = (
{
layerId = m01;
shapes = (
{
closed = 1;
nodes = (
(55.2,165.2,o),
(76.8,183.6,o),
(100.3,197.4,cs),
(116.7,207,o),
(143.1,216.9,o),
(152,234.9,cs),
(156.6,244.2,o),
(153.5,254.6,o),
(148.1,262.9,cs),
(136.3,281.3,o),
(124.2,288.7,o),
(112.4,288.7,cs),
(71.3,288.7,o),
(34.2,198.4,o),
(26.8,167.1,c)
);
}
);
width = 181;
}
);
note = uni00B4;
unicode = 180;
},
{
glyphname = uni00B8;
layers = (
{
layerId = m01;
shapes = (
{
closed = 1;
nodes = (
(38.4,316.5,o),
(27.1,297.5,o),
(27.1,279.8,cs),
(27.1,250,o),
(58.7,223.6,o),
(59.7,180.2,cs),
(60.3,157,o),
(43.4,135.3,o),
(35.5,114.2,c),
(69.4,105.3,o),
(118.2,180.3,o),
(118.2,250.5,cs),
(118.2,285.5,o),
(106.1,319.3,o),
(74,341,c)
);
}
);
width = 150;
}
);
note = uni00B8;
unicode = 184;
},
{
glyphname = uni02C6;
layers = (
{
anchors = (
{
name = top;
pos = (106,583);
},
{
name = top_;
pos = (106,583);
},
{
name = top__;
pos = (106,583);
},
{
name = top___;
pos = (106,583);
},
{
name = top____;
pos = (106,583);
},
{
name = top_____;
pos = (106,583);
},
{
name = top______;
pos = (106,583);
},
{
name = top_______;
pos = (106,583);
},
{
name = top________;
pos = (106,583);
},
{
name = top_________;
pos = (106,583);
},
{
name = top__________;
pos = (106,583);
}
);
layerId = m01;
shapes = (
{
closed = 1;
nodes = (
(141.9,534.1,o),
(124.7,558.1,o),
(105.2,558.1,cs),
(88.2,558.1,o),
(69.6,540.1,o),
(28.3,497.7,c),
(26.1,478.9,o),
(43,458.7,o),
(55.2,445.2,c),
(72.7,458.4,o),
(84.4,478.5,o),
(102.8,489.6,c),
(125.9,479.8,o),
(136.5,453.8,o),
(159.1,444.1,c),
(189,496,l)
);
}
);
width = 213;
}
);
note = uni02C6;
unicode = 710;
},
{
glyphname = uni02C7;
layers = (
{
anchors = (
{
name = top;
pos = (110,586);
},
{
name = top_;
pos = (110,586);
},
{
name = top__;
pos = (110,586);
},
{
name = top___;
pos = (110,586);
},
{
name = top____;
pos = (110,586);
},
{
name = top_____;
pos = (110,586);
},
{
name = top______;
pos = (110,586);
},
{
name = top_______;
pos = (110,586);
},
{
name = top________;
pos = (110,586);
},
{
name = top_________;
pos = (110,586);
},
{
name = top__________;
pos = (110,586);
}
);
layerId = m01;
shapes = (
{
closed = 1;
nodes = (
(150.6,574,o),
(128.7,509.3,o),
(108.5,487.2,c),
(91.7,519.5,o),
(70.7,566,o),
(27.5,557.7,c),
(34.6,514.8,o),
(76.6,455.5,o),
(108.2,426,c),
(141.5,459,o),
(176.9,507.9,o),
(190.6,553,c)
);
}
);
width = 219;
}
);
note = uni02C7;
unicode = 711;
},
{
glyphname = uni02D9;
layers = (
{
layerId = m01;
shapes = (
{
closed = 1;
nodes = (
(36.3,253.3,o),
(27.8,238.2,o),
(27.8,224.2,cs),
(27.8,206.6,o),
(41.5,191,o),
(56.4,191,cs),
(71.4,191,o),
(84.5,207.8,o),
(84.5,222.3,cs),
(84.5,238,o),
(70.2,251.9,o),
(59.6,263,c)
);
}
);
width = 113;
}
);
note = uni02D9;
unicode = 729;
},
{
glyphname = uni02DA;
layers = (
{
layerId = m01;
shapes = (
{
closed = 1;
nodes = (
(100.1,276.3,o),
(92.4,277.4,o),
(85.2,277.4,cs),
(49.1,277.4,o),
(23,251.2,o),
(23,223.5,cs),
(23,207.4,o),
(31.8,190.8,o),
(52.5,178.4,cs),
(63.6,171.8,o),
(73.7,168.9,o),
(82.7,168.9,cs),
(110.3,168.9,o),
(127.1,196,o),
(127.1,225.2,cs),
(127.1,242.5,o),
(121.1,260.5,o),
(108,274,c)
);
},
{
closed = 1;
nodes = (
(84.5,243,o),
(90.2,234.9,o),
(90.2,226.1,cs),
(90.2,218.1,o),
(85.4,209.4,o),
(76.5,202.3,c),
(69.5,210.9,o),
(66.4,218.4,o),
(66.4,226.5,cs),
(66.4,232.9,o),
(68.3,239.6,o),
(72,247.4,c)
);
}
);
width = 157;
}
);
note = uni02DA;
unicode = 730;
},
{
glyphname = uni02DB;
layers = (
{
layerId = m01;
shapes = (
{
closed = 1;
nodes = (
(89.6,98.3,o),
(138.1,238.4,o),
(130.1,280.1,cs),
(124.8,307.6,o),
(103.5,329.6,o),
(83.2,347.3,c),
(39.8,330.7,o),
(26.2,309.6,o),
(26.2,287.1,cs),
(26.2,251.4,o),
(60.5,212.3,o),
(63.7,182.4,cs),
(66.5,155.7,o),
(45.4,129.7,o),
(38.7,104.6,c)
);
}
);
width = 156;
}
);
note = uni02DB;
unicode = 731;
},
{
glyphname = uni02DC;
layers = (
{
layerId = m01;
shapes = (
{
closed = 1;
nodes = (
(117.2,200.8,o),
(142,165.6,o),
(173.8,169.9,cs),
(213,175.2,o),
(234.1,225.9,o),
(234.1,258.9,cs),
(234.1,278.9,o),
(222.9,294.7,o),
(204,282,cs),
(192.2,274.1,o),
(186,257.4,o),
(177.7,246.1,c),
(146.1,242.8,o),
(118.4,280.1,o),
(85.5,273.2,cs),
(46.4,264.9,o),
(31.8,231.4,o),
(31.8,203.2,cs),
(31.8,180.5,o),
(41.2,161.2,o),
(54.9,161.2,cs),
(59.8,161.2,o),
(65.3,163.7,o),
(71.1,169.4,cs),
(80.4,178.6,o),
(80,195.6,o),
(87.5,206.6,c)
);
}
);
width = 257;
}
);
note = uni02DC;
unicode = 732;
},
{
glyphname = uni02DD;
layers = (
{
layerId = m01;
shapes = (
{
closed = 1;
nodes = (
(90.6,195.8,o),
(112.1,226.1,o),
(112.1,247.6,cs),
(112.1,263.7,o),
(100.1,274.9,o),
(85,274.9,cs),
(61.7,274.9,o),
(31.1,248.3,o),
(26.2,171.9,c)
);
},
{
closed = 1;
nodes = (
(192.8,208.6,o),
(215.3,238.7,o),
(215.3,256.6,cs),
(215.3,268.8,o),
(204.9,275.4,o),
(191.2,275.4,cs),
(164.1,275.4,o),
(123.8,249.8,o),
(123.8,190.9,cs),
(123.8,184.2,o),
(124.3,177.1,o),
(125.5,169.5,c)
);
}
);
width = 241;
}
);
note = uni02DD;
unicode = 733;
},
{
glyphname = uni0300;
layers = (
{
anchors = (
{
name = _top;
pos = (91,165);
}
);
layerId = m01;
shapes = (
{
closed = 1;
nodes = (
(53,205.8,o),
(111.7,174.2,o),
(155.5,166.9,c),
(147.4,207.2,o),
(106.2,281,o),
(67.6,281,cs),
(52.6,281,o),
(37.9,269.8,o),
(25.8,241.1,c)
);
}
);
width = 0;
}
);
note = uni0300;
unicode = 768;
},
{
glyphname = uni0301;
layers = (
{
anchors = (
{
name = _top;
pos = (91,163);
}
);
layerId = m01;
shapes = (
{
closed = 1;
nodes = (
(55.2,165.2,o),
(76.8,183.6,o),
(100.3,197.4,cs),
(116.7,207,o),
(143.1,216.9,o),
(152,234.9,cs),
(156.6,244.2,o),
(153.5,254.6,o),
(148.1,262.9,cs),
(136.3,281.3,o),
(124.2,288.7,o),
(112.4,288.7,cs),
(71.3,288.7,o),
(34.2,198.4,o),
(26.8,167.1,c)
);
}
);
width = 0;
}
);
note = uni0301;
unicode = 769;
},
{
glyphname = uni0302;
layers = (
{
anchors = (
{
name = _top;
pos = (106,166);
}
);
layerId = m01;
shapes = (
{
closed = 1;
nodes = (
(141.9,257.1,o),
(124.7,281.1,o),
(105.2,281.1,cs),
(88.2,281.1,o),
(69.6,263.1,o),
(28.3,220.7,c),
(26.1,201.9,o),
(43,181.7,o),
(55.2,168.2,c),
(72.7,181.4,o),
(84.4,201.5,o),
(102.8,212.6,c),
(125.9,202.8,o),
(136.5,176.8,o),
(159.1,167.1,c),
(189,219,l)
);
}
);
width = 0;
}
);
note = uni0302;
unicode = 770;
},
{
glyphname = uni0303;
layers = (
{
anchors = (
{
name = _top;
pos = (132,164);
}
);
layerId = m01;
shapes = (
{
closed = 1;
nodes = (
(117.2,200.8,o),
(142,165.6,o),
(173.8,169.9,cs),
(213,175.2,o),
(234.1,225.9,o),
(234.1,258.9,cs),
(234.1,278.9,o),
(222.9,294.7,o),
(204,282,cs),
(192.2,274.1,o),
(186,257.4,o),
(177.7,246.1,c),
(146.1,242.8,o),
(118.4,280.1,o),
(85.5,273.2,cs),
(46.4,264.9,o),
(31.8,231.4,o),
(31.8,203.2,cs),
(31.8,180.5,o),
(41.2,161.2,o),
(54.9,161.2,cs),
(59.8,161.2,o),
(65.3,163.7,o),
(71.1,169.4,cs),
(80.4,178.6,o),
(80,195.6,o),
(87.5,206.6,c)
);
}
);
width = 0;
}
);
note = uni0303;
unicode = 771;
},
{
glyphname = uni0304;
layers = (
{
anchors = (
{
name = _top;
pos = (122,195);
}
);
layerId = m01;
shapes = (
{
closed = 1;
nodes = (
(27.3,252.5,l),
(24,195.2,l),
(215.6,195.2,l),
(218.7,214.2,o),
(219.9,231.8,o),
(216.3,252.5,c)
);
}
);
width = 0;
}
);
note = uni0304;
unicode = 772;
},
{
glyphname = uni0307;
layers = (
{
anchors = (
{
name = _top;
pos = (52,184);
}
);
layerId = m01;
shapes = (
{
closed = 1;
nodes = (
(36.3,253.3,o),
(27.8,238.2,o),
(27.8,224.2,cs),
(27.8,206.6,o),
(41.5,191,o),
(56.4,191,cs),
(71.4,191,o),
(84.5,207.8,o),
(84.5,222.3,cs),
(84.5,238,o),
(70.2,251.9,o),
(59.6,263,c)
);
}
);
width = 0;
}
);
note = uni0307;
unicode = 775;
},
{
glyphname = uni0308;
layers = (
{
anchors = (
{
name = _top;
pos = (132,166);
}
);
layerId = m01;
shapes = (
{
closed = 1;
nodes = (
(217.7,182.8,o),
(230.9,203.4,o),
(230.9,224.6,cs),
(230.9,245.4,o),
(218.1,266.8,o),
(193.7,285.6,c),
(162.2,273.1,o),
(148.1,252,o),
(148.1,229.9,cs),
(148.1,206.9,o),
(163.2,182.8,o),
(189.8,166.1,c)
);
},
{
closed = 1;
nodes = (
(44.2,268.6,o),
(31.8,249.3,o),
(31.8,229.6,cs),
(31.8,208.9,o),
(45.5,187.8,o),
(70.4,167.2,c),
(97.1,185.8,o),
(111.3,207.4,o),
(111.3,228.9,cs),
(111.3,249.3,o),
(98.4,269.6,o),
(71,286.9,c)
);
}
);
width = 0;
}
);
note = uni0308;
unicode = 776;
},
{
glyphname = uni030A;
layers = (
{
anchors = (
{
name = _top;
pos = (76,168);
}
);
layerId = m01;
shapes = (
{
closed = 1;
nodes = (
(100.1,276.3,o),
(92.4,277.4,o),
(85.2,277.4,cs),
(49.1,277.4,o),
(23,251.2,o),
(23,223.5,cs),
(23,207.4,o),
(31.8,190.8,o),
(52.5,178.4,cs),
(63.6,171.8,o),
(73.7,168.9,o),
(82.7,168.9,cs),
(110.3,168.9,o),
(127.1,196,o),
(127.1,225.2,cs),
(127.1,242.5,o),
(121.1,260.5,o),
(108,274,c)
);
},
{
closed = 1;
nodes = (
(84.5,243,o),
(90.2,234.9,o),
(90.2,226.1,cs),
(90.2,218.1,o),
(85.4,209.4,o),
(76.5,202.3,c),
(69.5,210.9,o),
(66.4,218.4,o),
(66.4,226.5,cs),
(66.4,232.9,o),
(68.3,239.6,o),
(72,247.4,c)
);
}
);
width = 0;
}
);
note = uni030A;
unicode = 778;
},
{
glyphname = uni030B;
layers = (
{
anchors = (
{
name = _top;
pos = (120,164);
}
);
layerId = m01;
shapes = (
{
closed = 1;
nodes = (
(90.6,195.8,o),
(112.1,226.1,o),
(112.1,247.6,cs),
(112.1,263.7,o),
(100.1,274.9,o),
(85,274.9,cs),
(61.7,274.9,o),
(31.1,248.3,o),
(26.2,171.9,c)
);
},
{
closed = 1;
nodes = (
(192.8,208.6,o),
(215.3,238.7,o),
(215.3,256.6,cs),
(215.3,268.8,o),
(204.9,275.4,o),
(191.2,275.4,cs),
(164.1,275.4,o),
(123.8,249.8,o),
(123.8,190.9,cs),
(123.8,184.2,o),
(124.3,177.1,o),
(125.5,169.5,c)
);
}
);
width = 0;
}
);
note = uni030B;
unicode = 779;
},
{
glyphname = uni030C;
layers = (
{
anchors = (
{
name = _top;
pos = (110,155);
}
);
layerId = m01;
shapes = (
{
closed = 1;
nodes = (
(141.6,191.6,o),
(179.8,242,o),
(189.7,287,c),
(150.3,303.3,o),
(130.4,244.5,o),
(109.5,220.4,c),
(89.2,252.2,o),
(72.4,293,o),
(29,292.2,c),
(28.8,251.3,o),
(77.7,183.6,o),
(109.6,159.3,c)
);
}
);
width = 0;
}
);
note = uni030C;
unicode = 780;
},
{
glyphname = uni0326;
layers = (
{
layerId = m01;
shapes = (
{
closed = 1;
nodes = (
(37.9,292.6,o),
(31.4,278.4,o),
(31.4,264.4,cs),
(31.4,244.4,o),
(44.7,224.6,o),
(48,194,cs),
(49.9,176,o),
(38.3,158.4,o),
(34,141.3,c),
(70.2,144.4,o),
(91.9,190.8,o),
(91.9,235.5,cs),
(91.9,266.2,o),
(81.6,296.2,o),
(58.9,310.6,c)
);
}
);
width = 0;
}
);
note = uni0326;
unicode = 806;
},
{
glyphname = uni0327;
layers = (
{
layerId = m01;
shapes = (
{
closed = 1;
nodes = (
(38.4,316.5,o),
(27.1,297.5,o),
(27.1,279.8,cs),
(27.1,250,o),
(58.7,223.6,o),
(59.7,180.2,cs),
(60.3,157,o),
(43.4,135.3,o),
(35.5,114.2,c),
(69.4,105.3,o),
(118.2,180.3,o),
(118.2,250.5,cs),
(118.2,285.5,o),
(106.1,319.3,o),
(74,341,c)
);
}
);
width = 0;
}
);
note = uni0327;
unicode = 807;
},
{
glyphname = uni0328;
layers = (
{
layerId = m01;
shapes = (
{
closed = 1;
nodes = (
(89.6,98.3,o),
(138.1,238.4,o),
(130.1,280.1,cs),
(124.8,307.6,o),
(103.5,329.6,o),
(83.2,347.3,c),
(39.8,330.7,o),
(26.2,309.6,o),
(26.2,287.1,cs),
(26.2,251.4,o),
(60.5,212.3,o),
(63.7,182.4,cs),
(66.5,155.7,o),
(45.4,129.7,o),
(38.7,104.6,c)
);
}
);
width = 0;
}
);
note = uni0328;
unicode = 808;
},
{
glyphname = uni0041;
layers = (
{
anchors = (
{
name = top;
pos = (221,709);
},
{
name = top_;
pos = (221,709);
},
{
name = top__;
pos = (221,709);
},
{
name = top___;
pos = (221,709);
},
{
name = top____;
pos = (221,709);
},
{
name = top_____;
pos = (221,709);
},
{
name = top______;
pos = (221,709);
},
{
name = top_______;
pos = (221,709);
},
{
name = top________;
pos = (221,709);
},
{
name = top_________;
pos = (221,709);
},
{
name = top__________;
pos = (221,709);
}
);
layerId = m01;
shapes = (
{
closed = 1;
nodes = (
(205.9,311.9,o),
(235.1,310.6,o),
(263.7,311,c),
(268.1,252.9,o),
(253.6,196.8,o),
(246.4,139.6,cs),
(238.8,80.3,o),
(284.2,7.6,o),
(333.4,7.6,cs),
(361.1,7.6,o),
(390,30.6,o),
(411.4,91.8,cs),
(413.7,98.3,o),
(414.7,105.2,o),
(414.7,112.4,cs),
(414.7,161.4,o),
(368.4,224.1,o),
(358.6,268.9,cs),
(344.4,333.5,o),
(335.4,405.6,o),
(343.3,471.6,cs),
(346.7,499.8,o),
(370.7,535.2,o),
(365.4,562.8,cs),
(361.4,583.9,o),
(248.8,685.4,o),
(227.2,686.3,cs),
(211.8,686.9,o),
(87.7,588.6,o),
(79.9,572.1,cs),
(76.8,565.7,o),
(75.6,558.6,o),
(75.6,550.9,cs),
(75.6,516.2,o),
(100.8,470.9,o),
(102,439.6,cs),
(104.6,367.6,o),
(93.3,285.7,o),
(67.6,218.4,cs),
(56.6,189.6,o),
(33.8,161.9,o),
(28,131.7,cs),
(24.8,115.1,o),
(30.6,98.2,o),
(36.6,83,cs),
(58.1,29.1,o),
(84.9,9,o),
(110.6,9,cs),
(162.5,9,o),
(210.2,90.7,o),
(201.8,140.4,cs),
(192.6,195.3,o),
(176.6,250,o),
(177.9,306.2,c)
);
},
{
closed = 1;
nodes = (
(232,371.1,o),
(209.4,369.6,o),
(186.3,371.8,c),
(180.1,425.7,o),
(188.2,522.5,o),
(214.7,570.2,c),
(253.5,555,o),
(252.3,413.9,o),
(255,373,c)
);
}
);
width = 442;
}
);
note = uni0041;
unicode = 65;
},
{
glyphname = uni0042;
layers = (
{
anchors = (
{
name = top;
pos = (200,706);
},
{
name = top_;
pos = (200,706);
},
{
name = top__;
pos = (200,706);
},
{
name = top___;
pos = (200,706);
},
{
name = top____;
pos = (200,706);
},
{
name = top_____;
pos = (200,706);
},
{
name = top______;
pos = (200,706);
},
{
name = top_______;
pos = (200,706);
},
{
name = top________;
pos = (200,706);
},
{
name = top_________;
pos = (200,706);
},
{
name = top__________;
pos = (200,706);
}
);
layerId = m01;
shapes = (
{
closed = 1;
nodes = (
(285.7,394.7,o),
(328.6,396.9,o),
(345.2,431,cs),
(355.8,452.7,o),
(360.5,484.6,o),
(360.5,514.6,cs),
(360.5,532.6,o),
(358.8,549.8,o),
(355.7,563.8,cs),
(348.4,596.4,o),
(289.7,688.6,o),
(250.5,679.1,cs),
(206.2,668.3,o),
(193.2,615.9,o),
(162.9,588.9,c),
(142.8,649.6,o),
(124,673.1,o),
(106.1,673.1,cs),
(78.8,673.1,o),
(53.7,618.6,o),
(29.3,557.7,c),
(58.3,491.1,o),
(72,417.3,o),
(72,343.2,cs),
(72,299.1,o),
(67.2,254.9,o),
(57.8,212,cs),
(51.7,183.6,o),
(24.5,152.4,o),
(27.6,123.5,cs),
(30.7,94.9,o),
(70.1,8.4,o),
(108.9,8.4,cs),
(143.1,8.4,o),
(152.7,58.4,o),
(166.3,81,c),
(190.8,55.9,o),
(207.4,8.5,o),
(246.1,1.8,cs),
(269.2,-2.3,o),
(361.8,99.1,o),
(371,122.8,cs),
(375.1,133.2,o),
(376.4,145.1,o),
(376.4,157.3,cs),
(376.4,173.8,o),
(374,190.8,o),
(373.1,205.7,cs),
(367.6,294.6,o),
(353.3,337.7,o),
(264.2,367,c)
);
},
{
closed = 1;
nodes = (
(183.6,335.2,o),
(190.6,336.6,o),
(197.1,336.6,cs),
(243.8,336.6,o),
(257.9,263.7,o),
(257.9,202.4,cs),
(257.9,163.8,o),
(252.3,129.8,o),
(245.6,121.7,cs),
(240.3,115.2,o),
(234.3,112.5,o),
(228.1,112.5,cs),
(209.5,112.5,o),
(189.7,136.6,o),
(184.4,152.3,cs),
(174.5,182.1,o),
(167.1,226.6,o),
(167.1,267.4,cs),
(167.1,291.6,o),
(169.7,314.5,o),
(175.9,332.2,c)
);
},
{
closed = 1;
nodes = (
(231.6,555.9,o),
(244.9,514.5,o),
(244.9,474.5,cs),
(244.9,423.3,o),
(223.1,374.4,o),
(172.2,380.1,c),
(169.4,400.3,o),
(166.5,427.1,o),
(166.5,454.8,cs),
(166.5,502.4,o),
(175.2,552.3,o),
(208.5,573.7,c)
);
}
);
width = 400;
}
);
note = uni0042;
unicode = 66;
},
{
glyphname = uni0043;
layers = (
{
anchors = (
{
name = top;
pos = (187,712);
},
{
name = top_;
pos = (187,712);
},
{
name = top__;
pos = (187,712);
},
{
name = top___;
pos = (187,712);
},
{
name = top____;
pos = (187,712);
},
{
name = top_____;
pos = (187,712);
},
{
name = top______;
pos = (187,712);
},
{
name = top_______;
pos = (187,712);
},
{
name = top________;
pos = (187,712);
},
{
name = top_________;
pos = (187,712);
},
{
name = top__________;
pos = (187,712);
}
);
layerId = m01;
shapes = (
{
closed = 1;
nodes = (
(345.6,169.7,o),
(340.4,198.2,o),
(333.6,226.4,cs),
(325,261.9,o),
(313.7,323.9,o),
(272.1,335.7,cs),
(259.8,339.2,o),
(247.8,334,o),
(238.1,326.6,cs),
(181.3,283.4,o),
(260.1,105.7,o),
(190.2,118.7,cs),
(177.5,121.1,o),
(165.5,131.5,o),
(158.3,141.9,cs),
(150.2,153.6,o),
(147,259.3,o),
(147,359.9,cs),
(147,443.8,o),
(149.2,524,o),
(152.5,543.3,cs),
(154.5,555.4,o),
(160.5,567.3,o),
(171.8,573,cs),
(178.9,576.5,o),
(184.8,578.1,o),
(189.7,578.1,cs),
(241.4,578.1,o),
(178.2,394.7,o),
(267.5,392.7,cs),
(316.9,391.6,o),
(347,498.4,o),
(346.3,536.6,cs),
(345.6,575,o),
(223.7,689.2,o),
(185.4,685.9,cs),
(152.9,683.2,o),
(50.3,594.6,o),
(32.7,565.7,cs),
(29.9,561,o),
(28.7,551.8,o),
(28.7,539.9,cs),
(28.7,497.5,o),
(43,421.1,o),
(43,393.4,cs),
(43,343.4,o),
(44.2,293.4,o),
(40.3,243.5,cs),
(37.8,211.3,o),
(23.4,171.6,o),
(30.7,139.9,cs),
(37.7,109,o),
(75.6,86.4,o),
(97.5,66,cs),
(119.9,45,o),
(146.6,8.3,o),
(177.9,1.1,cs),
(212.8,-6.8,o),
(328.3,110.2,o),
(350,141,c)
);
}
);
width = 374;
}
);
note = uni0043;
unicode = 67;
},
{
glyphname = uni0044;
layers = (
{
anchors = (
{
name = top;
pos = (199,709);
},
{
name = top_;
pos = (199,709);
},
{
name = top__;
pos = (199,709);
},
{
name = top___;
pos = (199,709);
},
{
name = top____;
pos = (199,709);
},
{
name = top_____;
pos = (199,709);
},
{
name = top______;
pos = (199,709);
},
{
name = top_______;
pos = (199,709);
},
{
name = top________;
pos = (199,709);
},
{
name = top_________;
pos = (199,709);
},
{
name = top__________;
pos = (199,709);
}
);
layerId = m01;
shapes = (
{
closed = 1;
nodes = (
(155.7,631,o),
(137.2,678.5,o),
(109.6,678.5,cs),
(96.6,678.5,o),
(81.6,667.9,o),
(64.4,640.7,cs),
(52.6,622.2,o),
(38.3,601.4,o),
(34.4,579.4,cs),
(31.2,560.9,o),
(67.4,443.7,o),
(68.1,396.3,cs),
(69,336.7,o),
(70.6,272.4,o),
(57.7,213.9,cs),
(50.9,183.3,o),
(26.6,152.5,o),
(26.2,121.4,cs),
(25.5,74.2,o),
(61.1,11,o),
(100.2,11,cs),
(120.5,11,o),
(141.8,28,o),
(159.5,72.9,c),
(190.3,57.3,o),
(204,5.4,o),
(243,3.9,cs),
(268.9,3,o),
(364.4,108.2,o),
(371.2,134.3,cs),
(373.6,143.4,o),
(374.5,153.3,o),
(374.5,163.7,cs),
(374.5,206.7,o),
(358.1,258.7,o),
(355.8,297.5,cs),
(352.8,350.2,o),
(352,403.7,o),
(356.7,456.4,cs),
(359.4,487,o),
(370.7,520.6,o),
(367,551.2,cs),
(363.6,578.7,o),
(289.1,682,o),
(261.4,684.4,cs),
(216.2,688.3,o),
(196.2,614.6,o),
(167,592.3,c)
);
},
{
closed = 1;
nodes = (
(226,567,o),
(235,557.3,o),
(239.1,540.3,cs),
(246.6,508.4,o),
(250.5,414.9,o),
(250.5,324,cs),
(250.5,240.7,o),
(247.2,159.6,o),
(240.6,130.4,cs),
(238.5,120.8,o),
(232.2,113,o),
(221.9,112.6,cs),
(200.9,111.8,o),
(186.3,134.7,o),
(180.7,152.2,cs),
(171.9,179.9,o),
(167.1,281,o),
(167.1,372.5,cs),
(167.1,442.6,o),
(169.9,507.1,o),
(175.9,528.7,cs),
(181.6,549.2,o),
(195.3,565,o),
(212.4,576.8,c)
);
}
);
width = 399;
}
);
note = uni0044;
unicode = 68;
},
{
glyphname = uni0045;
layers = (
{
anchors = (
{
name = top;
pos = (184,711);
},
{
name = top_;
pos = (184,711);
},
{
name = top__;
pos = (184,711);
},
{
name = top___;
pos = (184,711);
},
{
name = top____;
pos = (184,711);
},
{
name = top_____;
pos = (184,711);
},
{
name = top______;
pos = (184,711);
},
{
name = top_______;
pos = (184,711);
},
{
name = top________;
pos = (184,711);
},
{
name = top_________;
pos = (184,711);
},
{
name = top__________;
pos = (184,711);
}
);
layerId = m01;
shapes = (
{
closed = 1;
nodes = (
(191.9,329.6,o),
(210.4,317.1,o),
(231.6,316.9,cs),
(242,316.7,o),
(250,322.7,o),
(257,329.9,cs),
(264.9,338,o),
(268,346.2,o),
(268,354.2,cs),
(268,372.6,o),
(251.5,390.3,o),
(238.2,405.7,c),
(213.7,394.1,o),
(193.1,376.1,o),
(165.3,374,c),
(161.2,397.2,o),
(156.6,456.6,o),
(156.6,503.3,cs),
(156.6,527.1,o),
(157.8,547.6,o),
(160.9,558.4,cs),
(164.7,571.9,o),
(172.8,580.4,o),
(185.1,586.3,c),
(234.7,565.9,o),
(193.9,485.8,o),
(240,463.2,cs),
(245.8,460.3,o),
(251.9,459,o),
(257.8,459,cs),
(305.2,459,o),
(351.7,541.7,o),
(338.1,579.1,cs),
(331.4,597.3,o),
(210.6,688.2,o),
(191.4,686.8,cs),
(172.6,685.5,o),
(33,574.5,o),
(27.3,556.5,cs),
(21.2,537,o),
(33.5,517.2,o),
(41.4,500.1,cs),
(63.4,452.2,o),
(64.8,389.4,o),
(62.6,337.6,cs),
(61,301,o),
(23.2,135.9,o),
(34.1,120.4,cs),
(52.9,93.8,o),
(167,-6.2,o),
(196.6,2.3,cs),
(228.4,11.5,o),
(250.7,45.3,o),
(276.1,64.8,cs),
(299.1,82.4,o),
(339.6,101.1,o),
(344.3,132.7,cs),
(349.4,166.5,o),
(315.2,268.5,o),
(270.3,256.9,cs),
(175.3,232.4,o),
(257.3,136.9,o),
(209.9,118.1,cs),
(194.8,112.2,o),
(168.1,122.3,o),
(162.3,138.2,cs),
(158.5,148.6,o),
(156.8,171.3,o),
(156.8,197.8,cs),
(156.8,247.1,o),
(162.5,309.3,o),
(170.6,328.5,c)
);
}
);
width = 369;
}
);
note = uni0045;
unicode = 69;
},
{
glyphname = uni0046;
layers = (
{
anchors = (
{
name = top;
pos = (176,709);
},
{
name = top_;
pos = (176,709);
},
{
name = top__;
pos = (176,709);
},
{
name = top___;
pos = (176,709);
},
{
name = top____;
pos = (176,709);
},
{
name = top_____;
pos = (176,709);
},
{
name = top______;
pos = (176,709);
},
{
name = top_______;
pos = (176,709);
},
{
name = top________;
pos = (176,709);
},
{
name = top_________;
pos = (176,709);
},
{
name = top__________;
pos = (176,709);
}
);
layerId = m01;
shapes = (
{
closed = 1;
nodes = (
(196,327.8,o),
(218.9,312.7,o),
(241.4,304.5,c),
(257,322.3,o),
(265.2,338.5,o),
(265.2,354.5,cs),
(265.2,370.6,o),
(256.9,386.6,o),
(239.7,403.9,c),
(218.4,392.4,o),
(191.4,371.7,o),
(166.5,374.4,c),
(161.7,392,o),
(157.8,435.8,o),
(157.8,479.1,cs),
(157.8,524.3,o),
(162,569,o),
(173.6,582.8,c),
(223.6,584.4,o),
(205.1,525.5,o),
(216.9,496.4,cs),
(222.7,482.2,o),
(242,470,o),
(257.4,470,cs),
(283.3,470,o),
(298.5,504.7,o),
(309.8,527.6,cs),
(317,542,o),
(326.3,558.7,o),
(328,574.9,cs),
(330.3,597.1,o),
(235.6,683.4,o),
(213,684.8,cs),
(182.8,686.7,o),
(162,654.1,o),
(152.1,630.4,c),
(142,646.5,o),
(129.5,672.8,o),
(108.1,675.5,cs),
(81.6,678.8,o),
(34.3,580.7,o),
(24.1,557.9,c),
(37,528.5,o),
(54.1,497.7,o),
(61.4,466.3,cs),
(68.4,436.3,o),
(71,402.6,o),
(71,368.4,cs),
(71,327.9,o),
(67.4,286.8,o),
(62.9,250.8,cs),
(57.4,206.1,o),
(17.3,140.9,o),
(29.8,101.7,cs),
(46.6,49.1,o),
(77.4,2.8,o),
(114.2,2.8,cs),
(134.3,2.8,o),
(156.2,16.7,o),
(178.5,51,cs),
(190.7,69.7,o),
(205.9,93.1,o),
(206.6,116.1,cs),
(207.2,133.8,o),
(196.9,152.9,o),
(191.5,169.5,cs),
(180.2,204.3,o),
(166.3,248.5,o),
(166.3,288.8,cs),
(166.3,302.4,o),
(167.8,315.7,o),
(171.7,327.9,c)
);
}
);
width = 353;
}
);
note = uni0046;
unicode = 70;
},
{
glyphname = uni0047;
layers = (
{
anchors = (
{
name = top;
pos = (197,712);
},
{
name = top_;
pos = (197,712);
},
{
name = top__;
pos = (197,712);
},
{
name = top___;
pos = (197,712);
},
{
name = top____;
pos = (197,712);
},
{
name = top_____;
pos = (197,712);
},
{
name = top______;
pos = (197,712);
},
{
name = top_______;
pos = (197,712);
},
{
name = top________;
pos = (197,712);
},
{
name = top_________;
pos = (197,712);
},
{
name = top__________;
pos = (197,712);
}
);
layerId = m01;
shapes = (
{
closed = 1;
nodes = (
(259.7,57.7,o),
(257.6,23,o),
(299.9,3.8,c),
(325.8,26.5,o),
(353.3,66.8,o),
(360.5,101,cs),
(368,136.4,o),
(332.6,198.1,o),
(336,245.2,cs),
(338.5,279.3,o),
(371.9,323.9,o),
(366.2,354.6,cs),
(361.2,381.6,o),
(320.6,422.4,o),
(293.8,427.5,cs),
(269.7,432.1,o),
(248.4,415,o),
(229.4,402.9,cs),
(213.8,393.1,o),
(175.1,377,o),
(176.8,354.4,cs),
(178.6,328.4,o),
(214.8,327.8,o),
(226.2,308.4,cs),
(241.2,282.8,o),
(237.9,240.3,o),
(237.3,211.6,cs),
(236.9,185.8,o),
(221.8,117.4,o),
(196.1,117.4,cs),
(187,117.4,o),
(176.7,125.8,o),
(165.2,147.3,cs),
(156.9,163.1,o),
(152.7,240.9,o),
(152.7,326.3,cs),
(152.7,441,o),
(160.2,569.5,o),
(175,579.5,cs),
(181.5,583.8,o),
(186.8,585.8,o),
(191.4,585.8,cs),
(228.5,585.8,o),
(208.6,454.1,o),
(265.6,454.1,cs),
(274.2,454.1,o),
(284.5,457,o),
(297,463.9,cs),
(323.9,478.6,o),
(354.2,520.6,o),
(354.2,556.3,cs),
(354.2,564.5,o),
(352.6,572.4,o),
(349,579.6,cs),
(337.4,602.5,o),
(221.1,687.1,o),
(195.6,685.9,cs),
(172.9,684.8,o),
(35.6,579.9,o),
(28.6,558.2,cs),
(17.6,524.1,o),
(45.9,469.2,o),
(49.2,433.1,cs),
(51.6,406.9,o),
(52.7,380.3,o),
(52.7,353.6,cs),
(52.7,324,o),
(51.3,294.4,o),
(48.8,265.3,cs),
(46,233,o),
(26.9,188.3,o),
(26.9,152.2,cs),
(26.9,143.5,o),
(28,135.3,o),
(30.7,127.9,cs),
(40,102.5,o),
(66.7,81,o),
(83.8,60.4,cs),
(112.9,25.2,o),
(135.2,10.1,o),
(155,10.1,cs),
(184.5,10.1,o),
(208.5,43.7,o),
(241.3,94,c)
);
}
);
width = 393;
}
);
note = uni0047;
unicode = 71;
},
{
glyphname = uni0048;
layers = (
{
anchors = (
{
name = top;
pos = (213,710);
},
{
name = top_;
pos = (213,710);
},
{
name = top__;
pos = (213,710);
},
{
name = top___;
pos = (213,710);
},
{
name = top____;
pos = (213,710);
},
{
name = top_____;
pos = (213,710);
},
{
name = top______;
pos = (213,710);
},
{
name = top_______;
pos = (213,710);
},
{
name = top________;
pos = (213,710);
},
{
name = top_________;
pos = (213,710);
},
{
name = top__________;
pos = (213,710);
}
);
layerId = m01;
shapes = (
{
closed = 1;
nodes = (
(179.9,323.9,o),
(192.4,325,o),
(205,325,cs),
(222.3,325,o),
(239.6,323,o),
(256.4,320.1,c),
(260.9,263.5,o),
(231.4,186.3,o),
(231.4,126.8,cs),
(231.4,111.3,o),
(233.4,97,o),
(238.4,84.6,cs),
(257.1,39.2,o),
(284.3,6.7,o),
(313.7,6.7,cs),
(333.8,6.7,o),
(354.9,21.9,o),
(375,58.4,cs),
(384.5,75.8,o),
(396.7,95.8,o),
(398.2,116,cs),
(400.6,148.4,o),
(372.9,182.6,o),
(365,213.8,cs),
(350.8,269.4,o),
(348.9,329.6,o),
(351.7,386.7,cs),
(354,433.7,o),
(392.4,565.3,o),
(385.6,586.2,cs),
(369.2,636.2,o),
(344.1,677.5,o),
(312.6,677.5,cs),
(294.7,677.5,o),
(274.6,664,o),
(252.9,630.9,cs),
(239.8,611,o),
(225,587.6,o),
(226.6,562.8,cs),
(230.4,500.9,o),
(260.4,446.7,o),
(256.7,381.5,c),
(228.8,379.1,o),
(200.8,378.7,o),
(172.9,380.5,c),
(169.1,391.6,o),
(167.5,402.7,o),
(167.5,413.8,cs),
(167.5,473.2,o),
(212.6,531.9,o),
(200.2,577.9,cs),
(186.4,629.3,o),
(156.2,675.6,o),
(120.5,675.6,cs),
(101.7,675.6,o),
(81.3,662.7,o),
(61,630.9,cs),
(49.5,613.1,o),
(34.7,590.9,o),
(33.5,569.1,cs),
(31.5,533.9,o),
(60.4,499.3,o),
(66.7,464.8,cs),
(71.7,437,o),
(73.5,407,o),
(73.5,376.8,cs),
(73.5,338.6,o),
(70.6,299.8,o),
(68,264.2,cs),
(64.4,217.4,o),
(28.6,165.5,o),
(28.6,119,cs),
(28.6,111.2,o),
(29.6,103.5,o),
(32,96.1,cs),
(52.1,32.1,o),
(83.5,7.8,o),
(113.7,7.8,cs),
(159.7,7.8,o),
(203,64,o),
(200.1,122,cs),
(196.7,189,o),
(162.9,252,o),
(167.7,321.5,c)
);
}
);
width = 424;
}
);
note = uni0048;
unicode = 72;
},
{
glyphname = uni0049;
layers = (
{
anchors = (
{
name = top;
pos = (116,706);
},
{
name = top_;
pos = (116,706);
},
{
name = top__;
pos = (116,706);
},
{
name = top___;
pos = (116,706);
},
{
name = top____;
pos = (116,706);
},
{
name = top_____;
pos = (116,706);
},
{
name = top______;
pos = (116,706);
},
{
name = top_______;
pos = (116,706);
},
{
name = top________;
pos = (116,706);
},
{
name = top_________;
pos = (116,706);
},
{
name = top__________;
pos = (116,706);
}
);
layerId = m01;
shapes = (
{
closed = 1;
nodes = (
(81.9,663.9,o),
(46.1,615.6,o),
(36.7,574.5,cs),
(27.8,535.3,o),
(64.9,457,o),
(65.4,408.6,cs),
(66,350.1,o),
(66.6,286.7,o),
(55.6,229.1,cs),
(49.4,196.6,o),
(27.4,162.1,o),
(27.7,129.1,cs),
(28.1,88.7,o),
(75.5,4.2,o),
(120,2,cs),
(164.3,-0.2,o),
(206.8,86.5,o),
(204.9,124.3,cs),
(203.3,158.3,o),
(184.6,191.9,o),
(177.5,225.1,cs),
(167.8,270,o),
(163.2,317.3,o),
(163.2,364.4,cs),
(163.2,402.1,o),
(166.1,439.7,o),
(171.8,475.9,cs),
(176.7,507.1,o),
(198.9,542.3,o),
(192.3,573.8,cs),
(184.1,613.6,o),
(150.4,663.2,o),
(117.3,686,c)
);
}
);
width = 231;
}
);
note = uni0049;
unicode = 73;
},
{
glyphname = uni004A;
layers = (
{
anchors = (
{
name = top;
pos = (190,707);
},
{
name = top_;
pos = (180,706);
},
{
name = top__;
pos = (180,706);
},
{
name = top___;
pos = (180,706);
},
{
name = top____;
pos = (180,706);
},
{
name = top_____;
pos = (180,706);
},
{
name = top______;
pos = (180,706);
},
{
name = top_______;
pos = (180,706);
},
{
name = top________;
pos = (180,706);
},
{
name = top_________;
pos = (180,706);
},
{
name = top__________;
pos = (180,706);
},
{
name = top___________;
pos = (180,706);
}
);
layerId = m01;
shapes = (
{
closed = 1;
nodes = (
(217.1,665.1,o),
(184.6,616.2,o),
(178.8,576.6,cs),
(172.7,535.6,o),
(195.5,488.5,o),
(198.6,447.1,cs),
(206.7,340.8,o),
(204.2,232.8,o),
(206,126.2,c),
(193.3,113.6,o),
(183.8,108.3,o),
(176.7,108.3,cs),
(135,108.3,o),
(171.3,289.4,o),
(102.2,281.1,cs),
(52.4,275.2,o),
(15.2,175.5,o),
(27.9,133.2,cs),
(39.2,95.3,o),
(138.8,-3.3,o),
(179.7,0.7,cs),
(212.7,4,o),
(314.2,113.3,o),
(323.3,145.3,cs),
(332.3,177.5,o),
(303.7,361.4,o),
(307,422.2,cs),
(309.4,467.1,o),
(336.6,526.3,o),
(328.6,569.1,cs),
(321.5,607.4,o),
(283.6,665.5,o),
(250.8,686,c)
);
}
);
width = 356;
}
);
note = uni004A;
unicode = 74;
},
{
glyphname = uni004B;
layers = (
{
anchors = (
{
name = top;
pos = (212,709);
},
{
name = top_;
pos = (212,709);
},
{
name = top__;
pos = (212,709);
},
{
name = top___;
pos = (212,709);
},
{
name = top____;
pos = (212,709);
},
{
name = top_____;
pos = (212,709);
},
{
name = top______;
pos = (212,709);
},
{
name = top_______;
pos = (212,709);
},
{
name = top________;
pos = (212,709);
},
{
name = top_________;
pos = (212,709);
},
{
name = top__________;
pos = (212,709);
}
);
layerId = m01;
shapes = (
{
closed = 1;
nodes = (
(271.2,398.5,o),
(382.6,503.7,o),
(390.3,550.3,cs),
(395.2,579.7,o),
(356.5,678,o),
(318,678,cs),
(313.4,678,o),
(308.8,676.6,o),
(304.2,673.5,cs),
(191.6,596.2,o),
(279.4,419.2,o),
(176.4,371.4,c),
(170.6,387.6,o),
(168.4,403.5,o),
(168.4,419,cs),
(168.4,478.9,o),
(202.1,532.1,o),
(196.9,571.4,cs),
(193.8,594.5,o),
(175.1,617.6,o),
(162.8,636.9,cs),
(153.3,651.8,o),
(142.4,673.7,o),
(125.2,680.9,cs),
(85,697.6,o),
(40.1,601.4,o),
(35.8,571.9,cs),
(30.7,536.4,o),
(61.1,494,o),
(67,458.2,cs),
(72,428.2,o),
(73.9,397.8,o),
(73.9,367.3,cs),
(73.9,326.7,o),
(70.5,285.9,o),
(66,245.9,cs),
(61.8,208.9,o),
(29.3,162.5,o),
(29.3,124.3,cs),
(29.3,117.8,o),
(30.2,111.6,o),
(32.4,105.7,cs),
(51.7,52.6,o),
(75.2,8.4,o),
(106.2,8.4,cs),
(124.3,8.4,o),
(144.9,23.5,o),
(168.8,60.8,cs),
(180.9,79.7,o),
(199.1,103.7,o),
(196.9,127.3,cs),
(192,180.8,o),
(168.5,232.2,o),
(168.5,286.2,cs),
(168.5,298.6,o),
(169.7,311.1,o),
(172.7,323.8,c),
(244.8,332.3,o),
(231.2,152.7,o),
(241.5,109.1,cs),
(248.6,79.1,o),
(272.7,41.6,o),
(294.4,19.9,cs),
(305.2,9.2,o),
(322,-1,o),
(337.7,5.1,cs),
(354.3,11.6,o),
(363.2,33.8,o),
(370.9,48.5,cs),
(382.9,71,o),
(400.4,99.9,o),
(396,126.4,cs),
(390.3,161.6,o),
(264.7,327.6,o),
(235.3,362.3,c)
);
}
);
width = 424;
}
);
note = uni004B;
unicode = 75;
},
{
glyphname = uni004C;
layers = (
{
anchors = (
{
name = top;
pos = (191,713);
},
{
name = top_;
pos = (191,713);
},
{
name = top__;
pos = (191,713);
},
{
name = top___;
pos = (191,713);
},
{
name = top____;
pos = (191,713);
},
{
name = top_____;
pos = (191,713);
},
{
name = top______;
pos = (191,713);
},
{
name = top_______;
pos = (191,713);
},
{
name = top________;
pos = (191,713);
},
{
name = top_________;
pos = (191,713);
},
{
name = top__________;
pos = (191,713);
}
);
layerId = m01;
shapes = (
{
closed = 1;
nodes = (
(229.5,113.9,o),
(219.5,108.9,o),
(211.4,108.9,cs),
(174.9,108.9,o),
(178.6,212.5,o),
(178,242.5,cs),
(176.3,315.3,o),
(171.3,392.1,o),
(184,464.1,cs),
(190.5,500.8,o),
(220.5,540.8,o),
(219,577.4,cs),
(217.4,614.5,o),
(167.1,692.4,o),
(123.9,682.6,cs),
(88.3,674.6,o),
(43.6,611.9,o),
(41.6,576.4,cs),
(40,546.6,o),
(64.5,513.2,o),
(70.7,483.5,cs),
(81.7,430.2,o),
(78.7,373.1,o),
(77,319,cs),
(75.8,279.3,o),
(74.7,238.6,o),
(62.7,200.3,cs),
(53.9,172.5,o),
(27.7,145.8,o),
(28.2,116,cs),
(28.8,85,o),
(64.1,3.6,o),
(102.7,3.6,cs),
(126.3,3.6,o),
(141.9,37.4,o),
(166.8,36.4,cs),
(200.1,35,o),
(230.4,-7,o),
(265.1,5.2,cs),
(284.4,11.9,o),
(299.6,33.8,o),
(312.5,48.8,cs),
(327.3,66,o),
(349.1,86.7,o),
(354.7,109.4,cs),
(367.5,161.1,o),
(320.9,244.5,o),
(283.8,244.5,cs),
(261.2,244.5,o),
(242.1,213.6,o),
(242,126,c)
);
}
);
width = 381;
}
);
note = uni004C;
unicode = 76;
},
{
glyphname = uni004D;
layers = (
{
anchors = (
{
name = top;
pos = (300,706);
},
{
name = top_;
pos = (300,706);
},
{
name = top__;
pos = (300,706);
},
{
name = top___;
pos = (300,706);
},
{
name = top____;
pos = (300,706);
},
{
name = top_____;
pos = (300,706);
},
{
name = top______;
pos = (300,706);
},
{
name = top_______;
pos = (300,706);
},
{
name = top________;
pos = (300,706);
},
{
name = top_________;
pos = (300,706);
},
{
name = top__________;
pos = (300,706);
}
);
layerId = m01;
shapes = (
{
closed = 1;
nodes = (
(318.5,535.3,o),
(321.6,513.7,o),
(321.6,491.6,cs),
(321.6,458.1,o),
(314.4,423.7,o),
(303.3,394,c),
(243.2,483.6,o),
(336,577.7,o),
(211.7,671.2,cs),
(202.5,678.1,o),
(193.1,681.1,o),
(183.4,681.1,cs),
(130.9,681.1,o),
(74.5,591.6,o),
(50.5,556.7,c),
(77.7,499.6,o),
(90.4,437.3,o),
(90.4,374.5,cs),
(90.4,321.1,o),
(81.2,267.3,o),
(64.2,216,cs),
(54,184.9,o),
(27.6,152.3,o),
(26.6,119.2,cs),
(24.5,48.2,o),
(63.2,7,o),
(105.8,7,cs),
(139.2,7,o),
(174.9,32.2,o),
(195.4,88.1,cs),
(199.9,100.6,o),
(201.6,113.3,o),
(201.6,126.1,cs),
(201.6,157.6,o),
(191.3,189.7,o),
(187.8,220.8,cs),
(183.7,258.2,o),
(176.1,353.8,o),
(176.1,434.3,cs),
(176.1,486.9,o),
(179.3,533,o),
(188.9,552.1,c),
(238.6,497.6,o),
(253.2,414.3,o),
(253.2,334.2,cs),
(253.2,292.2,o),
(249.2,251,o),
(244.1,215.3,cs),
(239.5,182.9,o),
(223.5,151.9,o),
(224.6,118.9,cs),
(225.6,87.8,o),
(265.3,0.2,o),
(305,7.6,cs),
(341.2,14.3,o),
(376.9,86.3,o),
(378.6,119.4,cs),
(380.5,154.9,o),
(361.6,192.3,o),
(356.7,227.5,cs),
(353.7,249.1,o),
(351.3,282.6,o),
(351.3,320.3,cs),
(351.3,410.5,o),
(364.8,524.4,o),
(415.5,554,c),
(425.8,525.5,o),
(429.4,477,o),
(429.4,424.3,cs),
(429.4,349,o),
(422,265.3,o),
(416.5,220.1,cs),
(412.3,186.3,o),
(397.9,151,o),
(400.8,116.9,cs),
(406.7,47.1,o),
(450.8,6.2,o),
(492.9,6.2,cs),
(528.8,6.2,o),
(563.3,35.9,o),
(571.6,102.8,cs),
(576.8,144.9,o),
(540.8,188.6,o),
(531,229.1,cs),
(515.9,291.3,o),
(512.2,356,o),
(513.5,419.8,cs),
(514.3,459,o),
(551.3,542.9,o),
(542.5,569,cs),
(533.7,595.2,o),
(507.9,620.6,o),
(489.7,640.8,cs),
(466.7,666.2,o),
(445.6,676.5,o),
(426.3,676.5,cs),
(377.1,676.5,o),
(339.4,610,o),
(311.4,555,c)
);
}
);
width = 598;
}
);
note = uni004D;
unicode = 77;
},
{
glyphname = uni004E;
layers = (
{
anchors = (
{
name = top;
pos = (220,703);
},
{
name = top_;
pos = (220,703);
},
{
name = top__;
pos = (220,703);
},
{
name = top___;
pos = (220,703);
},
{
name = top____;
pos = (220,703);
},
{
name = top_____;
pos = (220,703);
},
{
name = top______;
pos = (220,703);
},
{
name = top_______;
pos = (220,703);
},
{
name = top________;
pos = (220,703);
},
{
name = top_________;
pos = (220,703);
},
{
name = top__________;
pos = (220,703);
}
);
layerId = m01;
shapes = (
{
closed = 1;
nodes = (
(241.5,308.3,o),
(215.1,418.6,o),
(204.6,503.1,cs),
(201.6,527.4,o),
(215.9,552.1,o),
(208.9,575.3,cs),
(199.5,606.2,o),
(163.3,667.1,o),
(130.5,676.3,cs),
(83.6,689.4,o),
(42.3,607.8,o),
(37.3,570.9,cs),
(33.1,539.6,o),
(59.2,505.4,o),
(66.7,475.6,cs),
(72.5,452.7,o),
(71.9,427.7,o),
(72.8,404.2,cs),
(74.7,355.4,o),
(75.3,306,o),
(67.1,257.6,cs),
(58.8,208.5,o),
(29.4,162.1,o),
(29.4,114,cs),
(29.4,100,o),
(31.9,85.8,o),
(38.1,71.4,cs),
(58.6,23.8,o),
(85.1,5.8,o),
(110.8,5.8,cs),
(162.7,5.8,o),
(211,79.9,o),
(198.2,132.8,cs),
(186.1,183,o),
(166.4,224.3,o),
(162.5,277.2,cs),
(157.1,348,o),
(158.5,419.2,o),
(159,490.1,c),
(196.4,413.8,o),
(214.9,312.5,o),
(232.1,229.4,cs),
(245.9,162.4,o),
(228.7,14.9,o),
(330.8,2.7,cs),
(373.5,-2.4,o),
(414.9,78.5,o),
(414.1,114.3,cs),
(413.3,144.8,o),
(388.3,173.2,o),
(379.9,202.2,cs),
(366.3,249.6,o),
(368.2,302.4,o),
(367.8,351.3,cs),
(367.4,393.9,o),
(366.8,437.9,o),
(377.5,479.5,cs),
(385.4,509.8,o),
(408.5,540.8,o),
(407.6,572.5,cs),
(406.6,606.3,o),
(371.4,666.6,o),
(338.4,678.3,cs),
(293.6,694.1,o),
(247.2,606.1,o),
(246.5,570.4,cs),
(246,542.1,o),
(265,512.5,o),
(271.3,485,cs),
(281.6,439.4,o),
(290.2,379.5,o),
(290.2,323.4,cs),
(290.2,290.5,o),
(287.2,258.9,o),
(280,232.3,c)
);
}
);
width = 440;
}
);
note = uni004E;
unicode = 78;
},
{
glyphname = uni004F;
layers = (
{
anchors = (
{
name = top;
pos = (184,710);
},
{
name = top_;
pos = (184,710);
},
{
name = top__;
pos = (184,710);
},
{
name = top___;
pos = (184,710);
},
{
name = top____;
pos = (184,710);
},
{
name = top_____;
pos = (184,710);
},
{
name = top______;
pos = (184,710);
},
{
name = top_______;
pos = (184,710);
},
{
name = top________;
pos = (184,710);
},
{
name = top_________;
pos = (184,710);
},
{
name = top__________;
pos = (184,710);
}
);
layerId = m01;
shapes = (
{
closed = 1;
nodes = (
(274.1,66.7,o),
(330.1,98.8,o),
(344.2,139.1,cs),
(347.2,147.5,o),
(348.4,158.4,o),
(348.4,170.7,cs),
(348.4,221.2,o),
(328.5,297,o),
(327,337.7,cs),
(325,398.2,o),
(353.6,500.9,o),
(346.8,545.5,cs),
(342.2,576.2,o),
(305.4,598.9,o),
(283.9,618.1,cs),
(236.1,660.8,o),
(205.3,678.9,o),
(178.9,678.9,cs),
(138.2,678.9,o),
(108.2,635.7,o),
(42.7,573.6,cs),
(29.6,561.2,o),
(25.5,546.5,o),
(25.5,530.9,cs),
(25.5,512.3,o),
(31.4,492.5,o),
(35,474,cs),
(42.6,434.7,o),
(45.8,395.5,o),
(45.8,356.2,cs),
(45.8,322.9,o),
(43.6,289.7,o),
(39.8,256.2,cs),
(36,222.7,o),
(19.4,180.1,o),
(26.5,147,cs),
(32.8,117.5,o),
(151.5,3.1,o),
(181.1,1.5,cs),
(207.4,0.2,o),
(226.6,21.3,o),
(244,38,cs)
);
},
{
closed = 1;
nodes = (
(160.6,141.7,o),
(154.8,151.1,o),
(152.5,164.8,cs),
(147.3,196,o),
(142.8,316.6,o),
(142.8,413.6,cs),
(142.8,472.5,o),
(144.4,522.7,o),
(148.6,538.9,cs),
(153.6,558.6,o),
(166.9,574.9,o),
(182.8,574.9,cs),
(190.1,574.9,o),
(197.9,571.5,o),
(205.8,563.4,cs),
(214.9,554.1,o),
(219.9,542.5,o),
(221.7,529.7,cs),
(224.4,510.3,o),
(226.3,431.2,o),
(226.3,348.7,cs),
(226.3,249.4,o),
(223.5,145,o),
(216,133.2,cs),
(210.4,124.3,o),
(203.3,121,o),
(195.7,121,cs),
(186.8,121,o),
(177.3,125.5,o),
(169,131,c)
);
}
);
width = 374;
}
);
note = uni004F;
unicode = 79;
},
{
glyphname = uni0050;
layers = (
{
anchors = (
{
name = top;
pos = (189,706);
},
{
name = top_;
pos = (189,706);
},
{
name = top__;
pos = (189,706);
},
{
name = top___;
pos = (189,706);
},
{
name = top____;
pos = (189,706);
},
{
name = top_____;
pos = (189,706);
},
{
name = top______;
pos = (189,706);
},
{
name = top_______;
pos = (189,706);
},
{
name = top________;
pos = (189,706);
},
{
name = top_________;
pos = (189,706);
},
{
name = top__________;
pos = (189,706);
}
);
layerId = m01;
shapes = (
{
closed = 1;
nodes = (
(190.4,282.2,o),
(214.4,265.6,o),
(236.8,267.3,cs),
(256.9,268.9,o),
(273.4,287.9,o),
(287.1,300.8,cs),
(307,319.6,o),
(335.5,341.3,o),
(347,366.6,cs),
(354.8,383.8,o),
(358.3,428,o),
(358.3,471.8,cs),
(358.3,513.1,o),
(355.2,554,o),
(349.6,571.3,cs),
(340.3,600.4,o),
(315,626.8,o),
(295.9,650,cs),
(284.3,664,o),
(268.8,685.2,o),
(248,681.6,cs),
(211.4,675.3,o),
(186.2,628.5,o),
(163.6,603,c),
(149.8,639.1,o),
(133.8,675.4,o),
(111.1,675.4,cs),
(98.6,675.4,o),
(84.2,664.5,o),
(67.1,636.8,cs),
(55.7,618.3,o),
(41.4,596.9,o),
(37,575.4,cs),
(29.7,540,o),
(65.7,472.5,o),
(66.9,428.2,cs),
(68.7,364.1,o),
(68.7,297.1,o),
(58.5,233.6,cs),
(52.7,198,o),
(22.6,151.6,o),
(28.1,116.8,cs),
(39.4,45.6,o),
(79,8,o),
(118.2,8,cs),
(155,8,o),
(191.5,41.1,o),
(203.7,111,cs),
(212.6,161.7,o),
(166.2,212,o),
(166.2,264.7,cs),
(166.2,273.3,o),
(167.4,281.8,o),
(170.3,290.5,c)
);
},
{
closed = 1;
nodes = (
(166.6,393.8,o),
(159.5,578.7,o),
(202,578.7,cs),
(222.7,578.7,o),
(232.1,551.9,o),
(234.2,535.5,cs),
(236.1,521.4,o),
(239.6,484.7,o),
(239.6,445.8,cs),
(239.6,383.2,o),
(230.5,315.1,o),
(190.4,326.9,cs),
(169.8,333,o),
(167.3,353.7,o),
(166,372,cs)
);
}
);
width = 379;
}
);
note = uni0050;
unicode = 80;
},
{
glyphname = uni0051;
layers = (
{
anchors = (
{
name = top;
pos = (201,711);
},
{
name = top_;
pos = (201,711);
},
{
name = top__;
pos = (201,711);
},
{
name = top___;
pos = (201,711);
},
{
name = top____;
pos = (201,711);
},
{
name = top_____;
pos = (201,711);
},
{
name = top______;
pos = (201,711);
},
{
name = top_______;
pos = (201,711);
},
{
name = top________;
pos = (201,711);
},
{
name = top_________;
pos = (201,711);
},
{
name = top__________;
pos = (201,711);
}
);
layerId = m01;
shapes = (
{
closed = 1;
nodes = (
(267.7,21.2,o),
(296.6,-6.2,o),
(323.9,-6.2,cs),
(338.3,-6.2,o),
(352.3,1.5,o),
(364.9,22.2,cs),
(371.6,33.3,o),
(375,44.1,o),
(375,55.3,cs),
(375,62.5,o),
(373.6,69.9,o),
(370.7,77.5,c),
(343.9,75,o),
(320.7,73,o),
(294.9,81.8,c),
(304.2,112,o),
(339.3,129.5,o),
(344.4,161.5,cs),
(349.5,193,o),
(335.7,230.5,o),
(331.6,261.8,cs),
(327.3,295.5,o),
(324.9,329.8,o),
(324.9,364,cs),
(324.9,387.9,o),
(326.1,411.8,o),
(328.7,435.4,cs),
(331.6,462.9,o),
(347.1,502.9,o),
(347.1,534.8,cs),
(347.1,543.4,o),
(346,551.4,o),
(343.2,558.4,cs),
(332.4,586,o),
(215.3,685.5,o),
(186.3,684.2,cs),
(163.5,683.2,o),
(39,579.1,o),
(29.2,556.8,cs),
(25,547.1,o),
(23.3,535.6,o),
(23.3,522.9,cs),
(23.3,480,o),
(42.3,424.5,o),
(43.5,388.6,cs),
(45.7,318.8,o),
(21.9,224.1,o),
(27.7,165,cs),
(30.4,138,o),
(54.7,119.1,o),
(68.6,97.5,cs),
(103,43.9,o),
(125.9,5.4,o),
(164.8,5.4,cs),
(185.2,5.4,o),
(210,15.9,o),
(243.1,40.3,c)
);
},
{
closed = 1;
nodes = (
(186.9,59.2,o),
(165,43.9,o),
(140.8,50.5,cs),
(119.8,56.2,o),
(111.6,68.8,o),
(111.6,82.2,cs),
(111.6,103.8,o),
(132.8,127.4,o),
(155.8,127.4,cs),
(173.2,127.4,o),
(191.7,113.9,o),
(202.7,75.6,c)
);
},
{
closed = 1;
nodes = (
(152.2,181.9,l),
(151.6,208,o),
(147.2,291.2,o),
(147.2,374.4,cs),
(147.2,471.9,o),
(153.2,569.6,o),
(178.3,575.2,cs),
(198.8,579.8,o),
(214.1,556.1,o),
(218.7,539.2,cs),
(223.5,521.6,o),
(225.3,452.5,o),
(225.3,377.9,cs),
(225.3,288.8,o),
(222.7,191.8,o),
(219.2,165.2,c)
);
}
);
width = 402;
}
);
note = uni0051;
unicode = 81;
},
{
glyphname = uni0052;
layers = (
{
anchors = (
{
name = top;
pos = (213,705);
},
{
name = top_;
pos = (213,705);
},
{
name = top__;
pos = (213,705);
},
{
name = top___;
pos = (213,705);
},
{
name = top____;
pos = (213,705);
},
{
name = top_____;
pos = (213,705);
},
{
name = top______;
pos = (213,705);
},
{
name = top_______;
pos = (213,705);
},
{
name = top________;
pos = (213,705);
},
{
name = top_________;
pos = (213,705);
},
{
name = top__________;
pos = (213,705);
}
);
layerId = m01;
shapes = (
{
closed = 1;
nodes = (
(289.1,396.2,o),
(343.3,393.3,o),
(351.9,456.1,cs),
(354.7,476.3,o),
(356.9,498.2,o),
(356.9,519.8,cs),
(356.9,534.8,o),
(355.8,549.6,o),
(353.1,563.6,cs),
(345.4,602.6,o),
(289.7,701.1,o),
(238.5,674.9,cs),
(205.1,657.9,o),
(189.7,619.7,o),
(171.1,589.4,c),
(157.5,611.9,o),
(143.1,673,o),
(109.9,673,cs),
(73.4,673,o),
(33.7,587.2,o),
(32.8,561,cs),
(31.8,532.5,o),
(59.7,507.8,o),
(65.2,479.7,cs),
(71.1,449.4,o),
(73.2,416.4,o),
(73.2,383.2,cs),
(73.2,344.6,o),
(70.4,305.7,o),
(67.5,270.1,cs),
(63.3,218.7,o),
(17.9,155.3,o),
(28.9,106.5,cs),
(45.1,35.2,o),
(80.7,6.4,o),
(115.4,6.4,cs),
(159.2,6.4,o),
(201.5,52.2,o),
(201.2,116,cs),
(201.2,139.1,o),
(188.4,159.6,o),
(182.5,181.5,cs),
(174.4,211.5,o),
(168.2,249.5,o),
(168.2,284.7,cs),
(168.2,300.5,o),
(169.5,315.7,o),
(172.3,329.5,c),
(303.9,338.4,o),
(205,99.2,o),
(293,21,cs),
(303.8,11.3,o),
(318.1,0.7,o),
(333.6,4.8,cs),
(365.9,13.5,o),
(399.2,84.6,o),
(397,115.7,cs),
(395.1,141.2,o),
(370.5,162.2,o),
(360.9,185.3,cs),
(343,228.7,o),
(349.7,283,o),
(319.4,321.6,cs),
(303.6,341.7,o),
(277.8,346.7,o),
(255.3,356.2,c)
);
},
{
closed = 1;
nodes = (
(166.4,391.9,o),
(162.9,419.1,o),
(162.9,447.3,cs),
(162.9,495.5,o),
(173,546.9,o),
(199.9,573.8,c),
(229.5,563.5,o),
(244.6,524.1,o),
(244.6,482.7,cs),
(244.6,430.9,o),
(220.8,376,o),
(172,371.4,c)
);
}
);
width = 423;
}
);
note = uni0052;
unicode = 82;
},
{
glyphname = uni0053;
layers = (
{
anchors = (
{
name = top;
pos = (178,711);
},
{
name = top_;
pos = (178,711);
},
{
name = top__;
pos = (178,711);
},
{
name = top___;
pos = (178,711);
},
{
name = top____;
pos = (178,711);
},
{
name = top_____;
pos = (178,711);
},
{
name = top______;
pos = (178,711);
},
{
name = top_______;
pos = (178,711);
},
{
name = top________;
pos = (178,711);
},
{
name = top_________;
pos = (178,711);
},
{
name = top__________;
pos = (178,711);
}
);
layerId = m01;
shapes = (
{
closed = 1;
nodes = (
(116.8,137.9,o),
(187.2,220.4,o),
(135.7,252.3,cs),
(126.8,257.8,o),
(118.1,260.3,o),
(109.6,260.3,cs),
(58.9,260.3,o),
(18.5,172.5,o),
(26.4,130.4,cs),
(31.4,103.5,o),
(61.9,83.4,o),
(80.8,65.9,cs),
(125.7,24.5,o),
(150.9,2.9,o),
(177.2,2.9,cs),
(201.4,2.9,o),
(226.5,21.1,o),
(268.6,58.8,cs),
(290.9,78.7,o),
(320.4,95.4,o),
(333,123.6,cs),
(342.6,145.1,o),
(346.8,165.2,o),
(346.8,184.2,cs),
(346.8,314.7,o),
(148.7,393.7,o),
(147.3,526.9,cs),
(147.1,551.2,o),
(163.7,575.3,o),
(180.9,575.3,cs),
(190,575.3,o),
(199.2,568.7,o),
(206.2,552,cs),
(221.6,515.4,o),
(190.1,424.6,o),
(265,428.3,cs),
(292.4,429.6,o),
(305.6,466.8,o),
(315.8,487.4,cs),
(326.4,509,o),
(341.9,535.2,o),
(338.2,560.2,cs),
(333.8,589.6,o),
(299.2,605.8,o),
(277.3,621.1,cs),
(251.4,639.2,o),
(225.4,674.8,o),
(194.2,682.7,cs),
(160.6,691.1,o),
(54,595.3,o),
(36.9,565.6,cs),
(28.1,550.5,o),
(24.2,534.6,o),
(24.2,518.3,cs),
(24.2,399.1,o),
(229.2,253.2,o),
(229.2,154.5,cs),
(229.2,133.9,o),
(220.3,115.4,o),
(198.6,99.6,c)
);
}
);
width = 366;
}
);
note = uni0053;
unicode = 83;
},
{
glyphname = uni0054;
layers = (
{
anchors = (
{
name = top;
pos = (195,702);
},
{
name = top_;
pos = (195,702);
},
{
name = top__;
pos = (195,702);
},
{
name = top___;
pos = (195,702);
},
{
name = top____;
pos = (195,702);
},
{
name = top_____;
pos = (195,702);
},
{
name = top______;
pos = (195,702);
},
{
name = top_______;
pos = (195,702);
},
{
name = top________;
pos = (195,702);
},
{
name = top_________;
pos = (195,702);
},
{
name = top__________;
pos = (195,702);
}
);
layerId = m01;
shapes = (
{
closed = 1;
nodes = (
(340.2,512.7,o),
(359.9,546.5,o),
(359.9,579.8,cs),
(359.9,603.3,o),
(350.1,626.6,o),
(326.3,648.5,cs),
(311.8,661.8,o),
(293.1,676.4,o),
(272.5,676.5,cs),
(242.3,676.7,o),
(221.6,643.4,o),
(192.6,644.8,cs),
(158.7,646.4,o),
(142,675.6,o),
(114.8,675.6,cs),
(106.1,675.6,o),
(96.3,672.5,o),
(84.5,664.6,cs),
(45.3,638.1,o),
(30.9,602.3,o),
(30.9,570,cs),
(30.9,521.8,o),
(63,481.4,o),
(92.4,491.8,cs),
(130.4,505.3,o),
(104.8,562.5,o),
(141.3,569,c),
(150.2,541.3,o),
(153.6,494.2,o),
(153.6,442.7,cs),
(153.6,363,o),
(145.5,272.5,o),
(137.2,226.2,cs),
(130.9,190.4,o),
(101.1,145.4,o),
(110.4,109.1,cs),
(123.8,57.3,o),
(159.5,2,o),
(199.5,2,cs),
(219.4,2,o),
(240.5,15.7,o),
(260.3,50.5,cs),
(270.6,68.4,o),
(283.3,89.6,o),
(285.2,110.6,cs),
(288.4,144.8,o),
(262.6,182.6,o),
(256.3,216.3,cs),
(249.6,251.7,o),
(239.8,364.6,o),
(239.8,455.2,cs),
(239.8,511,o),
(243.5,558.4,o),
(254,573.9,c),
(282.3,534.7,o),
(256.1,511.3,o),
(313,482,c)
);
}
);
width = 387;
}
);
note = uni0054;
unicode = 84;
},
{
glyphname = uni0055;
layers = (
{
anchors = (
{
name = top;
pos = (204,711);
},
{
name = top_;
pos = (204,711);
},
{
name = top__;
pos = (204,711);
},
{
name = top___;
pos = (204,711);
},
{
name = top____;
pos = (204,711);
},
{
name = top_____;
pos = (204,711);
},
{
name = top______;
pos = (204,711);
},
{
name = top_______;
pos = (204,711);
},
{
name = top________;
pos = (204,711);
},
{
name = top_________;
pos = (204,711);
},
{
name = top__________;
pos = (204,711);
}
);
layerId = m01;
shapes = (
{
closed = 1;
nodes = (
(345.4,254,o),
(339.6,326.6,o),
(344,399.8,cs),
(347.8,461.3,o),
(378.3,512,o),
(381.4,555.5,cs),
(383.9,590.5,o),
(344.7,682.6,o),
(299.8,682.6,cs),
(292.7,682.6,o),
(285.3,680.2,o),
(278,674.9,cs),
(252.3,656.1,o),
(221,609.8,o),
(216.6,578.1,cs),
(211.7,543.7,o),
(233.3,507.5,o),
(236.6,473.2,cs),
(243.7,398.2,o),
(239.6,320.5,o),
(238.6,245.3,cs),
(238.2,216.8,o),
(252.4,93.5,o),
(195.6,115.8,cs),
(171.1,125.4,o),
(164.3,219.9,o),
(164.3,311.3,cs),
(164.3,385.2,o),
(168.7,457.1,o),
(171.9,480.9,cs),
(175.6,508.8,o),
(195.5,539,o),
(193,566.8,cs),
(190,601,o),
(140.8,705.5,o),
(94.1,682.1,cs),
(63.1,666.7,o),
(30.8,606.3,o),
(27.5,572.8,cs),
(23.7,534.7,o),
(61.5,464.2,o),
(65.3,417.5,cs),
(69.7,364.7,o),
(42.9,143.4,o),
(48.4,129.6,cs),
(64.2,89.4,o),
(125.5,39.9,o),
(159.2,13.5,cs),
(171.9,3.5,o),
(188.3,-2.5,o),
(204.7,-2.5,cs),
(211.8,-2.5,o),
(218.9,-1.4,o),
(225.7,1.1,cs),
(248.2,9.2,o),
(352.8,110.7,o),
(361.4,132.8,cs),
(367.5,148.3,o),
(362.1,166.4,o),
(359,182,cs)
);
}
);
width = 407;
}
);
note = uni0055;
unicode = 85;
},
{
glyphname = uni0056;
layers = (
{
anchors = (
{
name = top;
pos = (202,718);
},
{
name = top_;
pos = (202,718);
},
{
name = top__;
pos = (202,718);
},
{
name = top___;
pos = (202,718);
},
{
name = top____;
pos = (202,718);
},
{
name = top_____;
pos = (202,718);
},
{
name = top______;
pos = (202,718);
},
{
name = top_______;
pos = (202,718);
},
{
name = top________;
pos = (202,718);
},
{
name = top_________;
pos = (202,718);
},
{
name = top__________;
pos = (202,718);
}
);
layerId = m01;
shapes = (
{
closed = 1;
nodes = (
(183.8,217,o),
(175.7,319.1,o),
(175.7,400,cs),
(175.7,434.5,o),
(177.1,465.2,o),
(179.2,485.3,cs),
(182.1,514.6,o),
(198.7,546.5,o),
(193.4,576,cs),
(187.9,606.7,o),
(140.1,697.1,o),
(100.3,684.1,cs),
(65.7,672.8,o),
(28.3,597.5,o),
(27.9,563.2,cs),
(27.2,514.7,o),
(65.7,454.7,o),
(78.4,407.2,cs),
(101.9,320,o),
(113.4,230.9,o),
(124.7,141.5,cs),
(130,100.3,o),
(149.8,1.5,o),
(206.8,4.3,cs),
(256.5,6.7,o),
(276.8,111.8,o),
(281.9,149.1,cs),
(295.3,246,o),
(309.4,340,o),
(334.4,434.9,cs),
(344.9,474.8,o),
(376.3,521.3,o),
(377.5,561.8,cs),
(378.6,595.5,o),
(345.6,674.4,o),
(310.8,685.5,cs),
(271.5,697.9,o),
(226.6,611.7,o),
(221.9,581.4,cs),
(217.2,550.6,o),
(239.5,522.6,o),
(243.8,493,cs),
(246.8,471.9,o),
(248.6,441.9,o),
(248.6,408.5,cs),
(248.6,326.9,o),
(238.4,224.5,o),
(212.3,180.1,c)
);
}
);
width = 403;
}
);
note = uni0056;
unicode = 86;
},
{
glyphname = uni0057;
layers = (
{
anchors = (
{
name = top;
pos = (286,709);
},
{
name = top_;
pos = (286,709);
},
{
name = top__;
pos = (286,709);
},
{
name = top___;
pos = (286,709);
},
{
name = top____;
pos = (286,709);
},
{
name = top_____;
pos = (286,709);
},
{
name = top______;
pos = (286,709);
},
{
name = top_______;
pos = (286,709);
},
{
name = top________;
pos = (286,709);
},
{
name = top_________;
pos = (286,709);
},
{
name = top__________;
pos = (286,709);
}
);
layerId = m01;
shapes = (
{
closed = 1;
nodes = (
(303.8,234.8,o),
(334.5,1,o),
(397.8,1,cs),
(404.1,1,o),
(410.9,3.4,o),
(417.9,8.5,cs),
(452.4,33.9,o),
(451.8,92.6,o),
(454.2,130.7,cs),
(459.3,213.7,o),
(465.3,293.3,o),
(487.8,373.7,cs),
(503.5,429.8,o),
(544.9,498,o),
(544.8,556.1,cs),
(544.8,591.1,o),
(507.1,683.7,o),
(461.9,683.7,cs),
(455.7,683.7,o),
(449.3,682,o),
(442.9,678.1,cs),
(413,659.9,o),
(383.4,607.8,o),
(379.3,573.3,cs),
(375.6,542.4,o),
(390.5,507.3,o),
(394.2,476.4,cs),
(398.3,442.2,o),
(402.4,390.5,o),
(402.4,338.2,cs),
(402.4,276,o),
(396.6,212.9,o),
(377.9,176.8,c),
(336.8,237.1,o),
(325.4,402.6,o),
(334.2,475,cs),
(338,506.7,o),
(357.4,538.5,o),
(355.3,570.6,cs),
(352.7,608.9,o),
(315.9,667.2,o),
(283.1,686,c),
(251.4,665.8,o),
(217.6,617,o),
(213.1,578.8,cs),
(208.5,540.1,o),
(232.9,495.1,o),
(238.3,456.6,cs),
(246.3,399.5,o),
(231.4,218.4,o),
(200.4,172,c),
(178.5,202.4,o),
(172.3,275.4,o),
(172.3,344.9,cs),
(172.3,397,o),
(175.8,447.1,o),
(178.9,475.7,cs),
(182.2,505.3,o),
(196.2,536.9,o),
(193.7,566.7,cs),
(190.6,603.2,o),
(160.9,661.7,o),
(129,681,cs),
(122.6,684.8,o),
(116.2,686.6,o),
(110,686.6,cs),
(65,686.6,o),
(25.8,596.9,o),
(26.4,562.2,cs),
(27.6,503.3,o),
(69.3,434.8,o),
(83.1,376.6,cs),
(104.9,284,o),
(107.6,191.1,o),
(116.3,97,cs),
(119.2,65.8,o),
(132.8,-10.9,o),
(180.7,2,cs),
(235.1,16.6,o),
(262.8,217.7,o),
(282.5,269.1,c)
);
}
);
width = 571;
}
);
note = uni0057;
unicode = 87;
},
{
glyphname = uni0058;
layers = (
{
anchors = (
{
name = top;
pos = (194,715);
},
{
name = top_;
pos = (194,715);
},
{
name = top__;
pos = (194,715);
},
{
name = top___;
pos = (194,715);
},
{
name = top____;
pos = (194,715);
},
{
name = top_____;
pos = (194,715);
},
{
name = top______;
pos = (194,715);
},
{
name = top_______;
pos = (194,715);
},
{
name = top________;
pos = (194,715);
},
{
name = top_________;
pos = (194,715);
},
{
name = top__________;
pos = (194,715);
}
);
layerId = m01;
shapes = (
{
closed = 1;
nodes = (
(174.2,412.5,o),
(167.9,440.6,o),
(167.9,469.9,cs),
(167.9,506.4,o),
(177.7,545,o),
(175.4,579.2,cs),
(173.3,610.5,o),
(140.4,677.3,o),
(105.4,682.3,cs),
(64.4,688.2,o),
(36.6,593.4,o),
(26.6,564.1,c),
(73,491.1,o),
(111.7,415.2,o),
(145.7,335.7,c),
(127.1,295.2,o),
(28.6,144.5,o),
(27.9,119.3,cs),
(26.8,80,o),
(61.6,1.6,o),
(103.3,1.6,cs),
(114.7,1.6,o),
(126.6,7.4,o),
(138.5,21.6,cs),
(209.8,106.6,o),
(116.8,220.2,o),
(190.1,304.7,c),
(210.3,260.8,o),
(221.3,207.2,o),
(217.8,158.9,cs),
(216.2,135.5,o),
(208.6,111.2,o),
(213.1,87.8,cs),
(219,57.7,o),
(264.1,-19.7,o),
(303.4,1.9,cs),
(322.3,12.2,o),
(333.5,38,o),
(342.2,56.6,cs),
(351.3,76.2,o),
(364.3,102.1,o),
(361.1,124.3,cs),
(353.1,179.5,o),
(238,264.5,o),
(241.3,335.5,cs),
(242.2,355.1,o),
(256,375.4,o),
(264.5,392.5,cs),
(282.6,429.5,o),
(354.5,533,o),
(353.4,566.7,cs),
(352.5,594.5,o),
(330.8,627.5,o),
(317.4,651,cs),
(309.8,664.2,o),
(297.9,686.8,o),
(279.5,684.2,cs),
(246.9,679.7,o),
(207.5,613.2,o),
(206.3,583.3,cs),
(204.6,542.4,o),
(219.5,504,o),
(219.5,463.2,cs),
(219.5,439.6,o),
(214.5,415.2,o),
(198.4,389.1,c)
);
}
);
width = 386;
}
);
note = uni0058;
unicode = 88;
},
{
glyphname = uni0059;
layers = (
{
anchors = (
{
name = top;
pos = (192,712);
},
{
name = top_;
pos = (192,712);
},
{
name = top__;
pos = (192,712);
},
{
name = top___;
pos = (192,712);
},
{
name = top____;
pos = (192,712);
},
{
name = top_____;
pos = (192,712);
},
{
name = top______;
pos = (192,712);
},
{
name = top_______;
pos = (192,712);
},
{
name = top________;
pos = (192,712);
},
{
name = top_________;
pos = (192,712);
},
{
name = top__________;
pos = (192,712);
}
);
layerId = m01;
shapes = (
{
closed = 1;
nodes = (
(171.7,409.2,o),
(161.7,479.2,o),
(166.6,521.2,cs),
(169.1,542.5,o),
(179.1,563.8,o),
(175.5,585.5,cs),
(170.9,613,o),
(123.5,705,o),
(85.7,680.8,cs),
(68.7,669.9,o),
(58.7,648.1,o),
(49.8,630.7,cs),
(40.1,611.9,o),
(25.9,589.2,o),
(26.9,567.2,cs),
(30,502.2,o),
(134.8,403.4,o),
(138.9,309.1,cs),
(140.4,274.9,o),
(141.5,238.2,o),
(132.4,204.8,cs),
(124.3,175.2,o),
(92.4,140.3,o),
(96.3,109.5,cs),
(102.1,63.9,o),
(137.4,0.9,o),
(187.7,-1.3,cs),
(237.5,-3.5,o),
(276.2,64.4,o),
(281.7,108.4,cs),
(285.6,140.3,o),
(257.8,172.8,o),
(250.4,203.3,cs),
(241.6,239.4,o),
(242.6,279.9,o),
(244.7,316.7,cs),
(250.1,408.1,o),
(352.1,492.2,o),
(356.6,562,cs),
(358.1,585.3,o),
(344.3,608.9,o),
(334.4,629.1,cs),
(325.1,648,o),
(313.2,685.1,o),
(286.8,685.1,cs),
(252.4,685.1,o),
(214.1,613.8,o),
(210.6,589.3,cs),
(207.1,565.4,o),
(217.2,542.3,o),
(221,519,cs),
(228.2,474.4,o),
(219.8,416.5,o),
(199.4,376.3,c)
);
}
);
width = 384;
}
);
note = uni0059;
unicode = 89;
},
{
glyphname = uni005A;
layers = (
{
anchors = (
{
name = top;
pos = (192,711);
},
{
name = top_;
pos = (192,711);
},
{
name = top__;
pos = (192,711);
},
{
name = top___;
pos = (192,711);
},
{
name = top____;
pos = (192,711);
},
{
name = top_____;
pos = (192,711);
},
{
name = top______;
pos = (192,711);
},
{
name = top_______;
pos = (192,711);
},
{
name = top________;
pos = (192,711);
},
{
name = top_________;
pos = (192,711);
},
{
name = top__________;
pos = (192,711);
}
);
layerId = m01;
shapes = (
{
closed = 1;
nodes = (
(214.3,107.3,o),
(180.2,104.1,o),
(180.2,130,cs),
(180.2,161.5,o),
(208.1,231.6,o),
(214.4,249.6,cs),
(243.3,332.3,o),
(272.8,416.1,o),
(307.5,496.6,cs),
(317.9,520.5,o),
(352.4,567.4,o),
(354.6,589.7,cs),
(356.6,609.3,o),
(337.3,638.9,o),
(328.2,655.7,cs),
(315.1,680,o),
(304.1,688.6,o),
(294.1,688.6,cs),
(270,688.6,o),
(251.8,638.7,o),
(223,642.3,cs),
(209.2,644,o),
(196.2,657.7,o),
(185,665.1,cs),
(164.3,678.7,o),
(142,687.2,o),
(120.4,687.2,cs),
(100.1,687.2,o),
(80.4,679.7,o),
(63.2,662,cs),
(48.1,646.4,o),
(30,623.4,o),
(25.6,601.6,cs),
(19.5,571.7,o),
(58.3,493.8,o),
(98.8,493.8,cs),
(105.7,493.8,o),
(112.7,496.1,o),
(119.5,501.3,cs),
(142.7,519,o),
(121.4,558.7,o),
(145.3,573.8,cs),
(153.1,578.7,o),
(163.8,580.9,o),
(174.6,580.9,cs),
(185.9,580.9,o),
(197.3,578.5,o),
(205.6,574.6,c),
(216.6,530.1,o),
(97,246.4,o),
(71.8,188.6,cs),
(60.9,163.7,o),
(33.5,132.4,o),
(30.7,105.9,cs),
(28,79.1,o),
(51.6,29.6,o),
(69.1,9.8,cs),
(76.1,1.9,o),
(82.7,-1.1,o),
(89.1,-1.1,cs),
(111.6,-1.1,o),
(131.3,36.7,o),
(154,37.4,cs),
(197.2,38.7,o),
(240.9,-15.6,o),
(283.5,-0.4,cs),
(301.4,6.1,o),
(313,23.7,o),
(324.3,38.1,cs),
(337.3,54.8,o),
(358,77.5,o),
(360.2,99.5,cs),
(363.2,129.5,o),
(327.6,212.4,o),
(286.7,212.4,cs),
(276.9,212.4,o),
(266.7,207.6,o),
(256.8,196.2,cs),
(236.8,173.1,o),
(249.1,133.1,o),
(232.8,106.1,c)
);
}
);
width = 386;
}
);
note = uni005A;
unicode = 90;
},
{
glyphname = uni0061;
layers = (
{
anchors = (
{
name = top;
pos = (182,556);
},
{
name = top_;
pos = (182,556);
},
{
name = top__;
pos = (182,556);
},
{
name = top___;
pos = (182,556);
},
{
name = top____;
pos = (182,556);
},
{
name = top_____;
pos = (182,556);
},
{
name = top______;
pos = (182,556);
},
{
name = top_______;
pos = (182,556);
},
{
name = top________;
pos = (182,556);
},
{
name = top_________;
pos = (182,556);
},
{
name = top__________;
pos = (182,556);
}
);
layerId = m01;
shapes = (
{
closed = 1;
nodes = (
(214.9,31.8,o),
(236.1,5.4,o),
(260.2,5.4,cs),
(281.8,5.4,o),
(305.7,26.5,o),
(336,69,c),
(326,106.5,o),
(298.7,133.4,o),
(293.5,174,cs),
(288.6,212.8,o),
(299.5,309.3,o),
(299.5,374.2,cs),
(299.5,402.9,o),
(297.4,425.3,o),
(290.8,433.9,cs),
(265.4,467.1,o),
(219.1,522.8,o),
(176.5,532,cs),
(137.2,540.4,o),
(27.4,451.6,o),
(31.4,411.8,cs),
(33.8,386.7,o),
(51.3,356.1,o),
(70.1,339.7,cs),
(86,326,o),
(98,320.4,o),
(107.1,320.4,cs),
(148.5,320.4,o),
(133.5,434.4,o),
(160.9,434.4,cs),
(195.2,434.4,o),
(186.7,369.3,o),
(186.1,349.6,cs),
(183,261.1,o),
(55.7,321.9,o),
(36.2,174.2,cs),
(33.6,155.1,o),
(26.2,134.9,o),
(28.1,115.5,cs),
(30.7,89.6,o),
(52.3,66.3,o),
(67.7,46.7,cs),
(89.8,18.6,o),
(106.3,7.8,o),
(120.1,7.8,cs),
(146.9,7.8,o),
(163.3,49.2,o),
(191.2,84.4,c)
);
},
{
closed = 1;
nodes = (
(191.2,230.8,o),
(187.8,211.4,o),
(186.2,192.8,cs),
(185.1,179.8,o),
(184,166.9,o),
(182.5,153.9,cs),
(180.7,139.5,o),
(170.2,109.9,o),
(157.9,109.9,cs),
(153,109.9,o),
(147.8,114.5,o),
(142.8,126.6,cs),
(138,137.9,o),
(134.6,158.9,o),
(134.6,180.6,cs),
(134.6,212,o),
(146,267.6,o),
(187.9,249.2,c)
);
}
);
width = 362;
}
);
note = uni0061;
unicode = 97;
},
{
glyphname = uni0062;
layers = (
{
anchors = (
{
name = top;
pos = (175,712);
},
{
name = top_;
pos = (175,712);
},
{
name = top__;
pos = (175,712);
},
{
name = top___;
pos = (175,712);
},
{
name = top____;
pos = (175,712);
},
{
name = top_____;
pos = (175,712);
},
{
name = top______;
pos = (175,712);
},
{
name = top_______;
pos = (175,712);
},
{
name = top________;
pos = (175,712);
},
{
name = top_________;
pos = (175,712);
},
{
name = top__________;
pos = (175,712);
}
);
layerId = m01;
shapes = (
{
closed = 1;
nodes = (
(151.7,485.1,o),
(165.6,534.5,o),
(165.6,579.5,cs),
(165.6,622.1,o),
(153.1,660.7,o),
(101.5,692,c),
(63.2,670.7,o),
(42.5,634.8,o),
(24.5,596.2,c),
(51.7,513.7,o),
(63.8,422.3,o),
(63.8,332.4,cs),
(63.8,293.5,o),
(61.5,254.8,o),
(57.2,217.2,cs),
(53.3,182.7,o),
(26.9,138.4,o),
(30.5,105.6,cs),
(33.7,75.8,o),
(69.4,6.5,o),
(106.8,6.5,cs),
(112.8,6.5,o),
(118.7,8.3,o),
(124.6,12.2,cs),
(145.9,26.4,o),
(149.5,52.4,o),
(162.8,72.2,c),
(189.3,35.4,o),
(208.3,10,o),
(230.2,10,cs),
(246.2,10,o),
(263.7,23.5,o),
(286.8,55.6,cs),
(300.3,74.4,o),
(320.5,95.3,o),
(325.3,118.5,cs),
(330,141,o),
(332.8,207.7,o),
(332.8,273.3,cs),
(332.8,337.1,o),
(330.1,399.9,o),
(324.2,420.1,cs),
(316.3,446.7,o),
(291.2,472.2,o),
(274.3,493.7,cs),
(264.6,506.1,o),
(251.3,526.4,o),
(232.8,521.9,cs),
(196.6,513.2,o),
(177.5,460.6,o),
(155,435.1,c)
);
},
{
closed = 1;
nodes = (
(201.6,414.4,o),
(209.5,410.8,o),
(212.9,401.8,cs),
(217.9,388.3,o),
(220.5,339.3,o),
(220.5,284.2,cs),
(220.5,202.1,o),
(214.7,106.5,o),
(202.5,95,c),
(173.9,114.3,o),
(157.7,202.4,o),
(157.7,282,cs),
(157.7,348.3,o),
(168.9,408.8,o),
(193.6,418.5,c)
);
}
);
width = 353;
}
);
note = uni0062;
unicode = 98;
},
{
glyphname = uni0063;
layers = (
{
anchors = (
{
name = top;
pos = (168,555);
},
{
name = top_;
pos = (168,555);
},
{
name = top__;
pos = (168,555);
},
{
name = top___;
pos = (168,555);
},
{
name = top____;
pos = (168,555);
},
{
name = top_____;
pos = (168,555);
},
{
name = top______;
pos = (168,555);
},
{
name = top_______;
pos = (168,555);
},
{
name = top________;
pos = (168,555);
},
{
name = top_________;
pos = (168,555);
},
{
name = top__________;
pos = (168,555);
}
);
layerId = m01;
shapes = (
{
closed = 1;
nodes = (
(37.3,356.2,o),
(44.1,293.7,o),
(39.9,229.1,cs),
(37.9,198.7,o),
(28.1,167.4,o),
(30,136.9,cs),
(30.6,126,o),
(34.8,116.5,o),
(41.3,107.8,cs),
(67,73.1,o),
(118.3,8.4,o),
(163.8,2.3,cs),
(196.6,-2.2,o),
(310.6,106.8,o),
(308.3,139.3,cs),
(305.9,173.4,o),
(261.9,258.6,o),
(218.5,239.7,cs),
(162.6,215.3,o),
(219.4,108.5,o),
(168.7,111.7,cs),
(157.2,112.4,o),
(148.8,120.7,o),
(145.4,131.2,cs),
(139.3,149.4,o),
(135.9,210.8,o),
(135.9,272.1,cs),
(135.9,334.6,o),
(139.4,397,o),
(147.3,413.9,cs),
(149.8,419.3,o),
(154.1,423.7,o),
(160,425.3,cs),
(226.3,442.7,o),
(166.1,321.2,o),
(232.2,309,cs),
(249.8,305.8,o),
(262.9,315.5,o),
(273.4,328.6,cs),
(288.5,347.4,o),
(305.9,372,o),
(308.8,396.6,cs),
(312.3,427,o),
(284,446.8,o),
(264.1,464.9,cs),
(240.4,486.3,o),
(211.4,521.4,o),
(179.7,530.3,cs),
(139.5,541.6,o),
(52,447.3,o),
(24.4,419.4,c)
);
}
);
width = 336;
}
);
note = uni0063;
unicode = 99;
},
{
glyphname = uni0064;
layers = (
{
anchors = (
{
name = top;
pos = (175,716);
},
{
name = top_;
pos = (175,716);
},
{
name = top__;
pos = (175,716);
},
{
name = top___;
pos = (175,716);
},
{
name = top____;
pos = (175,716);
},
{
name = top_____;
pos = (175,716);
},
{
name = top______;
pos = (175,716);
},
{
name = top_______;
pos = (175,716);
},
{
name = top________;
pos = (175,716);
},
{
name = top_________;
pos = (175,716);
},
{
name = top__________;
pos = (175,716);
}
);
layerId = m01;
shapes = (
{
closed = 1;
nodes = (
(293.4,172.4,o),
(283.6,249.6,o),
(283.6,327.7,cs),
(283.6,378.9,o),
(287.8,430.4,o),
(292.2,481,cs),
(294.7,509.4,o),
(319.5,575.8,o),
(316.6,594.3,cs),
(313.5,613.9,o),
(297.6,633.3,o),
(286.5,649.1,cs),
(277.9,661.3,o),
(268.1,680.9,o),
(254.3,687.8,cs),
(222.9,703.7,o),
(187.3,637.2,o),
(177.6,615.8,cs),
(167.2,592.7,o),
(197.8,512.7,o),
(197.8,465.6,cs),
(197.8,454.8,o),
(196.2,445.8,o),
(192.1,439.5,c),
(167.9,477.8,o),
(150.7,522.5,o),
(122.1,522.5,cs),
(108.5,522.5,o),
(92.4,512.5,o),
(71.7,487,cs),
(57.9,470,o),
(34.1,448.2,o),
(27.3,427.2,cs),
(24.3,417.8,o),
(22.8,350.2,o),
(22.8,279.1,cs),
(22.8,198.9,o),
(24.7,114.4,o),
(28.3,104.1,cs),
(35.7,83,o),
(52.1,63.9,o),
(65.6,46.4,cs),
(86.4,19.3,o),
(104.3,8,o),
(119.8,8,cs),
(147.2,8,o),
(167,43.3,o),
(182.5,88.3,c),
(196.1,73.9,o),
(200.7,51.6,o),
(209.8,34,cs),
(221.9,10.7,o),
(234.3,1.6,o),
(246.3,1.6,cs),
(279.7,1.6,o),
(310.7,71.2,o),
(327,101,c)
);
},
{
closed = 1;
nodes = (
(136.8,129.2,o),
(128.3,212,o),
(128.3,288,cs),
(128.3,350.8,o),
(134.1,408.9,o),
(148.2,425.6,c),
(165.1,414.5,o),
(180.4,399.2,o),
(187.1,379.5,cs),
(192.3,364.1,o),
(195.4,331,o),
(195.4,292.8,cs),
(195.4,215.3,o),
(182.7,117.1,o),
(149.5,104.5,c)
);
}
);
width = 352;
}
);
note = uni0064;
unicode = 100;
},
{
glyphname = uni0065;
layers = (
{
anchors = (
{
name = top;
pos = (168,558);
},
{
name = top_;
pos = (168,558);
},
{
name = top__;
pos = (168,558);
},
{
name = top___;
pos = (168,558);
},
{
name = top____;
pos = (168,558);
},
{
name = top_____;
pos = (168,558);
},
{
name = top______;
pos = (168,558);
},
{
name = top_______;
pos = (168,558);
},
{
name = top________;
pos = (168,558);
},
{
name = top_________;
pos = (168,558);
},
{
name = top__________;
pos = (168,558);
}
);
layerId = m01;
shapes = (
{
closed = 1;
nodes = (
(172.3,272.7,o),
(276.8,267.1,o),
(290.9,285.2,cs),
(301.4,298.8,o),
(309.3,353.2,o),
(309.3,391.4,cs),
(309.3,406.9,o),
(308,419.7,o),
(305.1,426.1,cs),
(296,445.6,o),
(193.8,537.8,o),
(174.5,536.7,cs),
(147.7,535.2,o),
(36.2,436.8,o),
(30.1,411,cs),
(27.5,399.9,o),
(35.2,384.5,o),
(38,373.8,cs),
(49.5,329,o),
(43.5,276.3,o),
(43.8,230.3,cs),
(44.1,200.1,o),
(16.9,159.9,o),
(27.7,131.7,cs),
(40.7,97.8,o),
(123,18.1,o),
(156.5,4,cs),
(191.5,-10.6,o),
(300.2,88.1,o),
(311,121.3,cs),
(319.6,147.9,o),
(291.3,201.5,o),
(271,217.8,cs),
(259,227.5,o),
(243.2,229,o),
(228.6,225.4,cs),
(200.4,218.3,o),
(192.9,205.5,o),
(192.9,190.5,cs),
(192.9,167.2,o),
(211,138.4,o),
(197.2,117.2,cs),
(192.7,110.4,o),
(185,107.4,o),
(177.2,107.6,cs),
(133,109.1,o),
(144.6,179.1,o),
(145.3,207.1,cs),
(145.8,229.1,o),
(146.2,251.1,o),
(147.1,273,c)
);
},
{
closed = 1;
nodes = (
(189.1,439.9,o),
(199.4,409.2,o),
(199.4,375.5,cs),
(199.4,354.9,o),
(195.6,333.2,o),
(192.1,319.1,c),
(144.3,318,l),
(144.3,354.9,o),
(143.6,393,o),
(150.1,429.4,c)
);
}
);
width = 337;
}
);
note = uni0065;
unicode = 101;
},
{
glyphname = uni0066;
layers = (
{
anchors = (
{
name = top;
pos = (162,754);
},
{
name = top_;
pos = (162,754);
},
{
name = top__;
pos = (162,754);
},
{
name = top___;
pos = (162,754);
},
{
name = top____;
pos = (162,754);
},
{
name = top_____;
pos = (162,754);
},
{
name = top______;
pos = (162,754);
},
{
name = top_______;
pos = (162,754);
},
{
name = top________;
pos = (162,754);
},
{
name = top_________;
pos = (162,754);
},
{
name = top__________;
pos = (162,754);
}
);
layerId = m01;
shapes = (
{
closed = 1;
nodes = (
(172.3,220.1,o),
(175.4,311.2,o),
(174,426.1,c),
(198.9,427.6,o),
(260.3,414.9,o),
(250.9,458.9,cs),
(248.6,469.3,o),
(242.3,483.2,o),
(230.6,485.3,cs),
(212.9,488.3,o),
(192.4,480.1,o),
(174.3,480,c),
(168.7,491.6,o),
(152.8,548.5,o),
(152.8,588,cs),
(152.8,614.7,o),
(160.1,633.5,o),
(182.9,624.7,cs),
(216,612,o),
(183.6,518.9,o),
(245.1,537.3,cs),
(260.1,541.8,o),
(270.2,562.5,o),
(277,575.3,cs),
(287.1,594.2,o),
(301.9,620.5,o),
(298.5,642.7,cs),
(295.3,663.3,o),
(220.2,724.3,o),
(199.7,730.7,cs),
(155.4,744.7,o),
(39.6,668.9,o),
(38.4,619.9,cs),
(37.3,572.9,o),
(74.6,528.3,o),
(71.5,481.2,c),
(27.6,475.9,l),
(24,460.7,o),
(26,447,o),
(29.3,431.9,c),
(76,422.5,l),
(79.6,382.8,o),
(82,341.4,o),
(82,300.3,cs),
(82,270.7,o),
(80.7,241.3,o),
(77.8,212.7,cs),
(74.7,181.8,o),
(50,137.7,o),
(56.1,107.8,cs),
(60.9,84.5,o),
(82.8,57.7,o),
(95,37.4,cs),
(109.7,12.9,o),
(123.4,3.3,o),
(136,3.3,cs),
(170.8,3.3,o),
(197.4,77.1,o),
(215,111,c)
);
}
);
width = 323;
}
);
note = uni0066;
unicode = 102;
},
{
glyphname = uni0067;
layers = (
{
anchors = (
{
name = top;
pos = (186,556);
},
{
name = top_;
pos = (186,556);
},
{
name = top__;
pos = (186,556);
},
{
name = top___;
pos = (186,556);
},
{
name = top____;
pos = (186,556);
},
{
name = top_____;
pos = (186,556);
},
{
name = top______;
pos = (186,556);
},
{
name = top_______;
pos = (186,556);
},
{
name = top________;
pos = (186,556);
},
{
name = top_________;
pos = (186,556);
},
{
name = top__________;
pos = (186,556);
}
);
layerId = m01;
shapes = (
{
closed = 1;
nodes = (
(318.2,504.8,o),
(295,527.3,o),
(272.5,527.3,cs),
(250.3,527.3,o),
(228.9,505.4,o),
(203.3,459.5,c),
(176.9,501.3,o),
(156.3,527.5,o),
(132,527.5,cs),
(114,527.5,o),
(94.1,513.3,o),
(68.2,480.7,cs),
(54,462.7,o),
(32.7,442.6,o),
(26.5,420.1,cs),
(22.4,405.4,o),
(20.2,343.7,o),
(20.2,282.1,cs),
(20.2,219.3,o),
(22.5,156.6,o),
(27.4,143.3,cs),
(38,115,o),
(74.3,86.2,o),
(96.1,66,cs),
(107.1,55.8,o),
(118.1,51.7,o),
(128.8,51.7,cs),
(152.8,51.7,o),
(175,72.9,o),
(191.4,94.5,c),
(193.6,78.3,o),
(197.6,50.1,o),
(197.6,22.4,cs),
(197.6,-14.6,o),
(190.4,-50.7,o),
(162.2,-56,c),
(148.8,-34.6,o),
(150.7,-5.1,o),
(134.4,14.2,cs),
(124.2,26.2,o),
(107.5,29.2,o),
(92.9,24.7,cs),
(65.6,16.5,o),
(54.7,-3.1,o),
(54.7,-26.6,cs),
(54.7,-81.4,o),
(113.9,-156.9,o),
(163.5,-156.9,cs),
(172.2,-156.9,o),
(180.7,-154.6,o),
(188.4,-149.4,cs),
(203.3,-139.3,o),
(287.2,-58.7,o),
(292.6,-45.5,cs),
(304.2,-17.1,o),
(296,27.6,o),
(296,58,cs),
(296,109.4,o),
(290.2,185.3,o),
(290.2,255.1,cs),
(290.2,303.5,o),
(293,349,o),
(302.4,381.4,cs),
(311,410.9,o),
(333.4,435,o),
(347.5,462,c)
);
},
{
closed = 1;
nodes = (
(181.1,415.3,o),
(194.7,336.7,o),
(194.7,263.5,cs),
(194.7,195.7,o),
(183,132.4,o),
(165.4,127.1,cs),
(141.8,119.9,o),
(130.7,210.8,o),
(130.7,296.2,cs),
(130.7,355.9,o),
(136.1,412.9,o),
(146.5,431.7,c)
);
}
);
width = 372;
}
);
note = uni0067;
unicode = 103;
},
{
glyphname = uni0068;
layers = (
{
anchors = (
{
name = top;
pos = (180,716);
},
{
name = top_;
pos = (180,716);
},
{
name = top__;
pos = (180,716);
},
{
name = top___;
pos = (180,716);
},
{
name = top____;
pos = (180,716);
},
{
name = top_____;
pos = (180,716);
},
{
name = top______;
pos = (180,716);
},
{
name = top_______;
pos = (180,716);
},
{
name = top________;
pos = (180,716);
},
{
name = top_________;
pos = (180,716);
},
{
name = top__________;
pos = (180,716);
}
);
layerId = m01;
shapes = (
{
closed = 1;
nodes = (
(151.7,452.7,o),
(150.1,466.8,o),
(150.1,481.7,cs),
(150.1,508.4,o),
(155.3,537.7,o),
(159.6,559,cs),
(162.1,571.6,o),
(170,586.6,o),
(168.4,599.5,cs),
(166.6,614.7,o),
(152.5,631.2,o),
(144.3,643.8,cs),
(133.3,660.5,o),
(113.8,702.1,o),
(87.8,686.5,cs),
(65.1,672.9,o),
(25.3,621.4,o),
(26.8,593.5,cs),
(28.1,569.2,o),
(44.3,546.2,o),
(47.9,522.1,cs),
(60,439.2,o),
(61,348.1,o),
(58.7,264.4,cs),
(57.8,230.9,o),
(53.1,199.1,o),
(43.5,167,cs),
(38.2,149.4,o),
(27.6,131.3,o),
(26.3,112.9,cs),
(24.6,88.9,o),
(72,-3.5,o),
(100.8,4.6,cs),
(114.5,8.5,o),
(124.5,24.5,o),
(131.9,35.6,cs),
(145.2,55.5,o),
(159.1,79.4,o),
(162.1,103.6,cs),
(168,151.4,o),
(144,238.9,o),
(144,310.7,cs),
(144,353,o),
(152.3,389.8,o),
(180,409.8,c),
(204.6,392.9,o),
(211.8,357.5,o),
(211.8,315.6,cs),
(211.8,240.2,o),
(188.4,143.7,o),
(200.4,96.1,cs),
(206,74,o),
(239.1,-3.9,o),
(268.1,1.6,cs),
(288.9,5.5,o),
(333.5,83.2,o),
(334.8,103.8,cs),
(335.9,120.7,o),
(301.7,203.7,o),
(298.7,241.9,cs),
(296.2,273.8,o),
(296.2,306.1,o),
(303.8,337.3,cs),
(309,358.9,o),
(328.6,389.6,o),
(325.8,411.4,cs),
(322.6,436,o),
(298,463.9,o),
(283.9,483.4,cs),
(262.4,513.4,o),
(245.7,524.9,o),
(231.6,524.9,cs),
(202.6,524.9,o),
(184.2,476.6,o),
(156,441.2,c)
);
}
);
width = 360;
}
);
note = uni0068;
unicode = 104;
},
{
glyphname = uni0069;
layers = (
{
anchors = (
{
name = top;
pos = (99,711);
},
{
name = top_;
pos = (99,711);
},
{
name = top__;
pos = (99,711);
},
{
name = top___;
pos = (99,711);
},
{
name = top____;
pos = (99,711);
},
{
name = top_____;
pos = (99,711);
},
{
name = top______;
pos = (99,711);
},
{
name = top_______;
pos = (99,711);
},
{
name = top________;
pos = (99,711);
},
{
name = top_________;
pos = (99,711);
},
{
name = top__________;
pos = (99,711);
}
);
layerId = m01;
shapes = (
{
closed = 1;
nodes = (
(148.2,174.8,o),
(139.9,223.6,o),
(139.9,272.4,cs),
(139.9,299.7,o),
(142.5,327,o),
(147.9,353.7,cs),
(152.4,376,o),
(170.3,401.1,o),
(168.5,423.7,cs),
(166.4,450.6,o),
(131.8,503.2,o),
(108.3,516.2,cs),
(76.6,533.6,o),
(31,458.3,o),
(29,432.6,cs),
(27,406.1,o),
(46.1,379,o),
(50.2,352.8,cs),
(53.9,329.6,o),
(55.5,304.7,o),
(55.5,279.5,cs),
(55.5,242.3,o),
(52,204.4,o),
(46.1,170.3,cs),
(42.3,147.6,o),
(27.9,124.8,o),
(30.4,101.4,cs),
(33,76.7,o),
(50.8,49.2,o),
(65.3,29.7,cs),
(76.2,15.1,o),
(87.7,9,o),
(98.8,9,cs),
(139.7,9,o),
(176.3,91.1,o),
(164,129,cs)
);
},
{
closed = 1;
nodes = (
(128.8,562.8,o),
(156.5,590.1,o),
(156.5,620.3,cs),
(156.5,633.7,o),
(151.1,647.6,o),
(138,661.7,cs),
(127.9,672.5,o),
(115,684.7,o),
(99.4,685.4,cs),
(84.6,686.1,o),
(71.9,676,o),
(62.2,665.9,cs),
(47.9,651,o),
(41.9,636.2,o),
(41.9,621.9,cs),
(41.9,591.8,o),
(68.5,564.3,o),
(98,544,c)
);
}
);
width = 196;
}
);
note = uni0069;
unicode = 105;
},
{
glyphname = uni006A;
layers = (
{
anchors = (
{
name = top;
pos = (154,712);
},
{
name = top_;
pos = (139,709);
},
{
name = top__;
pos = (139,709);
},
{
name = top___;
pos = (139,709);
},
{
name = top____;
pos = (139,709);
},
{
name = top_____;
pos = (139,709);
},
{
name = top______;
pos = (139,709);
},
{
name = top_______;
pos = (139,709);
},
{
name = top________;
pos = (139,709);
},
{
name = top_________;
pos = (139,709);
},
{
name = top__________;
pos = (139,709);
},
{
name = top___________;
pos = (139,709);
}
);
layerId = m01;
shapes = (
{
closed = 1;
nodes = (
(171.2,509.6,o),
(130.9,461.7,o),
(124.1,429.4,cs),
(118.3,401.9,o),
(143.6,367.4,o),
(146.2,339,cs),
(150.4,293.8,o),
(153.9,217.4,o),
(153.9,141.9,cs),
(153.9,66.5,o),
(150.4,-8,o),
(140.5,-49.9,c),
(132.6,-51.4,o),
(128.1,-51.2,o),
(120.2,-49.1,c),
(109.4,-24.2,o),
(98.9,40.8,o),
(58.7,19.9,cs),
(35.5,7.9,o),
(26.1,-15.4,o),
(26.1,-41.2,cs),
(26.1,-93.3,o),
(64.6,-155.6,o),
(105.8,-155.6,cs),
(114.4,-155.6,o),
(123,-152.9,o),
(131.5,-146.9,cs),
(152,-132.3,o),
(235.5,-56.9,o),
(243.3,-36.9,cs),
(249.6,-20.7,o),
(251.7,17.2,o),
(251.7,63.4,cs),
(251.7,157.3,o),
(243.2,285.2,o),
(244.8,333.8,cs),
(245.8,364.6,o),
(271,398.1,o),
(265.8,427.7,cs),
(260.4,458.4,o),
(221.7,507,o),
(198.4,526.9,c)
);
},
{
closed = 1;
nodes = (
(234.2,573.2,o),
(255.1,593.2,o),
(257.2,613.3,cs),
(260.6,644.8,o),
(225.6,681.9,o),
(193.9,681.9,cs),
(185.2,681.9,o),
(176.7,679.1,o),
(169.3,672.5,cs),
(148.7,654.1,o),
(138.1,636.6,o),
(138.1,618.8,cs),
(138.1,602.7,o),
(146.7,586.4,o),
(164.5,568.8,cs),
(172.7,560.7,o),
(183.9,548.6,o),
(196,547.6,cs),
(205.7,546.9,o),
(213.6,554.4,o),
(220.5,560,cs)
);
}
);
width = 294;
}
);
note = uni006A;
unicode = 106;
},
{
glyphname = uni006B;
layers = (
{
anchors = (
{
name = top;
pos = (183,708);
},
{
name = top_;
pos = (183,708);
},
{
name = top__;
pos = (183,708);
},
{
name = top___;
pos = (183,708);
},
{
name = top____;
pos = (183,708);
},
{
name = top_____;
pos = (183,708);
},
{
name = top______;
pos = (183,708);
},
{
name = top_______;
pos = (183,708);
},
{
name = top________;
pos = (183,708);
},
{
name = top_________;
pos = (183,708);
},
{
name = top__________;
pos = (183,708);
}
);
layerId = m01;
shapes = (
{
closed = 1;
nodes = (
(219.3,216.1,o),
(181.3,105.6,o),
(220.3,46.4,cs),
(239.6,17,o),
(255.7,3.6,o),
(270.6,3.6,cs),
(287.8,3.6,o),
(303.5,21.7,o),
(320.8,53.9,cs),
(328,67.3,o),
(344.3,90,o),
(341.5,105.8,cs),
(337.4,128.6,o),
(213.5,251.8,o),
(202.8,297.6,c),
(330.6,411.1,l),
(335.6,438.8,o),
(292,519.4,o),
(268.4,534.9,c),
(234.5,524.7,o),
(197.6,485.3,o),
(190.6,449.8,cs),
(182.1,406,o),
(208,374.1,o),
(178.4,332.4,cs),
(171.7,323.1,o),
(166.3,316.2,o),
(154.9,316.4,c),
(149.7,373,o),
(148.2,430.5,o),
(150.4,487.3,cs),
(151.7,518.4,o),
(172.6,579.6,o),
(163.5,605.2,cs),
(149.3,644.9,o),
(129.1,679.8,o),
(102.9,679.8,cs),
(89.1,679.8,o),
(73.6,670.1,o),
(56.5,646.3,cs),
(46.5,632.5,o),
(31.2,614.9,o),
(26.4,598.4,cs),
(25.3,594.3,o),
(53.1,488.9,o),
(53.5,462.1,cs),
(54.7,371.8,o),
(58.8,279.3,o),
(52.1,189.2,cs),
(49.9,161,o),
(23,130.8,o),
(25.4,104.6,cs),
(27.7,79.7,o),
(79.3,-6.9,o),
(109.1,3.4,cs),
(123.6,8.4,o),
(133.1,25.7,o),
(141.1,37.8,cs),
(151.8,53.9,o),
(167.5,73.6,o),
(170.1,93.3,cs),
(175.2,132.6,o),
(146.4,181.3,o),
(146.4,224.4,cs),
(146.4,236.8,o),
(148.8,248.7,o),
(155.1,259.8,c)
);
}
);
width = 368;
}
);
note = uni006B;
unicode = 107;
},
{
glyphname = uni006C;
layers = (
{
anchors = (
{
name = top;
pos = (98,707);
},
{
name = top_;
pos = (98,707);
},
{
name = top__;
pos = (98,707);
},
{
name = top___;
pos = (98,707);
},
{
name = top____;
pos = (98,707);
},
{
name = top_____;
pos = (98,707);
},
{
name = top______;
pos = (98,707);
},
{
name = top_______;
pos = (98,707);
},
{
name = top________;
pos = (98,707);
},
{
name = top_________;
pos = (98,707);
},
{
name = top__________;
pos = (98,707);
}
);
layerId = m01;
shapes = (
{
closed = 1;
nodes = (
(141.1,415.2,o),
(137.8,471.1,o),
(146.3,523.8,cs),
(150.1,547.4,o),
(172.2,573.8,o),
(164.2,597.3,cs),
(157.6,616.9,o),
(114.3,690.7,o),
(90.3,684.1,cs),
(74.8,679.9,o),
(61.8,658.8,o),
(52.9,646.6,cs),
(42.1,631.9,o),
(27,613,o),
(24.9,594.3,cs),
(22.4,572.4,o),
(40.5,547.4,o),
(44.6,525.8,cs),
(50.1,496.6,o),
(48,465.5,o),
(48.3,435.9,cs),
(49.1,357.5,o),
(53.8,277.3,o),
(47.3,199,cs),
(44.7,167.4,o),
(27.6,136.6,o),
(27.6,105.4,cs),
(27.6,77,o),
(66.9,3.7,o),
(98.5,0.8,cs),
(128.5,-1.9,o),
(162,67.4,o),
(169,91.1,cs),
(176.8,117.5,o),
(154,148.2,o),
(148.9,174,cs),
(136.9,234.9,o),
(141.1,300.3,o),
(141,362,cs)
);
}
);
width = 197;
}
);
note = uni006C;
unicode = 108;
},
{
glyphname = uni006D;
layers = (
{
anchors = (
{
name = top;
pos = (260,551);
},
{
name = top_;
pos = (260,551);
},
{
name = top__;
pos = (260,551);
},
{
name = top___;
pos = (260,551);
},
{
name = top____;
pos = (260,551);
},
{
name = top_____;
pos = (260,551);
},
{
name = top______;
pos = (260,551);
},
{
name = top_______;
pos = (260,551);
},
{
name = top________;
pos = (260,551);
},
{
name = top_________;
pos = (260,551);
},
{
name = top__________;
pos = (260,551);
}
);
layerId = m01;
shapes = (
{
closed = 1;
nodes = (
(367,510.4,o),
(343,471.4,o),
(317.1,441.8,c),
(300.8,461.1,o),
(289.7,485.1,o),
(275.4,505.9,cs),
(266.9,518.2,o),
(257.9,523.2,o),
(248.9,523.2,cs),
(217.8,523.2,o),
(185.3,464.5,o),
(164.8,441.8,c),
(137,461.8,o),
(130.6,507.8,o),
(100,530,c),
(66.1,511.1,o),
(44.4,463.1,o),
(24.6,431,c),
(53.9,356.6,o),
(70.3,330.4,o),
(70.3,273.7,cs),
(70.3,255.5,o),
(68.6,234.1,o),
(65.1,207,cs),
(61.1,176.4,o),
(23.5,122,o),
(28.5,97.5,cs),
(32.6,77.9,o),
(75.1,4,o),
(95.6,2.4,cs),
(114.9,0.9,o),
(161.5,75.5,o),
(166,94,cs),
(170.7,113.1,o),
(159.7,136.5,o),
(157.9,155.8,cs),
(155.3,183.7,o),
(151.4,227.6,o),
(151.4,272.1,cs),
(151.4,327.6,o),
(157.4,384,o),
(179.4,411.6,c),
(213.2,399.4,o),
(222.8,345.1,o),
(222.8,290.7,cs),
(222.8,247.9,o),
(216.9,205,o),
(212.1,182.6,cs),
(206.8,157.5,o),
(190.5,127.4,o),
(190.7,101.9,cs),
(190.9,79,o),
(238.9,-1.4,o),
(264.3,-0.2,cs),
(285,0.8,o),
(331.9,80.4,o),
(331.7,100.5,cs),
(331.4,125.4,o),
(317.3,151.4,o),
(312.5,175.9,cs),
(308.2,197.8,o),
(303.4,236.4,o),
(303.4,276.4,cs),
(303.4,335.9,o),
(314,398.5,o),
(352.4,413.5,c),
(416.8,359,o),
(294.3,41.9,o),
(418.6,2.8,cs),
(446.5,-6,o),
(493,79.6,o),
(494,103.4,cs),
(494.8,122.3,o),
(474.6,142.7,o),
(467.7,160.1,cs),
(458.4,183.6,o),
(453.5,207.8,o),
(451.5,233,cs),
(448.5,271.8,o),
(446.8,314.7,o),
(460.9,351.7,cs),
(468.6,371.8,o),
(489,395.4,o),
(489.9,417,cs),
(491,441.9,o),
(424.4,520,o),
(401.9,529.9,c)
);
}
);
width = 520;
}
);
note = uni006D;
unicode = 109;
},
{
glyphname = uni006E;
layers = (
{
anchors = (
{
name = top;
pos = (178,556);
},
{
name = top_;
pos = (178,556);
},
{
name = top__;
pos = (178,556);
},
{
name = top___;
pos = (178,556);
},
{
name = top____;
pos = (178,556);
},
{
name = top_____;
pos = (178,556);
},
{
name = top______;
pos = (178,556);
},
{
name = top_______;
pos = (178,556);
},
{
name = top________;
pos = (178,556);
},
{
name = top_________;
pos = (178,556);
},
{
name = top__________;
pos = (178,556);
}
);
layerId = m01;
shapes = (
{
closed = 1;
nodes = (
(203.8,390.2,o),
(209.7,355.2,o),
(209.7,314.9,cs),
(209.7,242.5,o),
(190.8,152.8,o),
(197.4,105.3,cs),
(201,78.9,o),
(214.6,53.7,o),
(229.3,31.9,cs),
(240.7,14.8,o),
(251.6,8,o),
(261.8,8,cs),
(293.6,8,o),
(319,73.6,o),
(332.7,104.5,c),
(307.1,154.5,o),
(289.6,210.7,o),
(289.6,267.2,cs),
(289.6,290.3,o),
(292.5,313.4,o),
(299,336.1,cs),
(305.4,358.6,o),
(324.6,384.9,o),
(321.8,408.7,cs),
(318.7,434.1,o),
(250.7,536.8,o),
(222.9,524.9,cs),
(186.7,509.4,o),
(174.3,462,o),
(148.8,435.6,c),
(137.5,470.6,o),
(123.3,501.9,o),
(99.3,530.1,c),
(60.4,513.7,o),
(42.1,467.3,o),
(24.1,431.9,c),
(48.4,376.3,o),
(62.3,321.2,o),
(62.3,263.9,cs),
(62.3,236.8,o),
(59.2,209.3,o),
(52.7,181,cs),
(47.1,156.9,o),
(28.3,129.8,o),
(30.4,104.9,cs),
(33.5,69.7,o),
(65,20.1,o),
(93.2,0,c),
(246.6,88,o),
(67.2,302.5,o),
(184.5,409.5,c)
);
}
);
width = 358;
}
);
note = uni006E;
unicode = 110;
},
{
glyphname = uni006F;
layers = (
{
anchors = (
{
name = top;
pos = (162,560);
},
{
name = top_;
pos = (162,560);
},
{
name = top__;
pos = (162,560);
},
{
name = top___;
pos = (162,560);
},
{
name = top____;
pos = (162,560);
},
{
name = top_____;
pos = (162,560);
},
{
name = top______;
pos = (162,560);
},
{
name = top_______;
pos = (162,560);
},
{
name = top________;
pos = (162,560);
},
{
name = top_________;
pos = (162,560);
},
{
name = top__________;
pos = (162,560);
}
);
layerId = m01;
shapes = (
{
closed = 1;
nodes = (
(238.7,56.8,o),
(278.8,87.3,o),
(293.1,122,cs),
(298.3,134.7,o),
(301.1,229.1,o),
(301.1,307,cs),
(301.1,357.4,o),
(300,400.9,o),
(297.5,411.1,cs),
(290.6,439.6,o),
(192.6,534.2,o),
(163.1,532.6,cs),
(138,531.2,o),
(116.8,507.7,o),
(99.8,491.5,cs),
(77.7,470.3,o),
(43.7,445.8,o),
(31.8,416.9,cs),
(28.1,407.6,o),
(25.8,311.9,o),
(25.8,232.4,cs),
(25.8,178.4,o),
(26.8,131.9,o),
(29.2,125.2,cs),
(39.1,97.4,o),
(129.2,5.4,o),
(158,2.1,cs),
(180.6,-0.4,o),
(198.2,15.2,o),
(213,30,cs)
);
},
{
closed = 1;
nodes = (
(151.8,109,o),
(140.5,119.1,o),
(135.8,134.5,cs),
(131.4,148.8,o),
(129.3,201.8,o),
(129.3,258.2,cs),
(129.3,325.4,o),
(132.2,397.3,o),
(137.9,414.1,cs),
(141.3,424,o),
(149.4,433.5,o),
(160.7,433.5,cs),
(174.9,433.6,o),
(185.4,419.5,o),
(189.3,407.3,cs),
(194,392.3,o),
(196.1,339.3,o),
(196.1,283,cs),
(196.1,216.6,o),
(193.2,145.5,o),
(188.1,126.9,cs),
(184.4,113.5,o),
(175.4,107.1,o),
(164.4,100.1,c)
);
}
);
width = 323;
}
);
note = uni006F;
unicode = 111;
},
{
glyphname = uni0070;
layers = (
{
anchors = (
{
name = top;
pos = (177,557);
},
{
name = top_;
pos = (177,557);
},
{
name = top__;
pos = (177,557);
},
{
name = top___;
pos = (177,557);
},
{
name = top____;
pos = (177,557);
},
{
name = top_____;
pos = (177,557);
},
{
name = top______;
pos = (177,557);
},
{
name = top_______;
pos = (177,557);
},
{
name = top________;
pos = (177,557);
},
{
name = top_________;
pos = (177,557);
},
{
name = top__________;
pos = (177,557);
}
);
layerId = m01;
shapes = (
{
closed = 1;
nodes = (
(163.3,91.6,o),
(215.1,11.6,o),
(246.1,19.8,cs),
(262.9,24.2,o),
(275.4,46.8,o),
(284.9,60,cs),
(299.1,79.6,o),
(319.8,102,o),
(324.2,126.5,cs),
(334.1,181.7,o),
(325.6,244.4,o),
(326.3,300.4,cs),
(326.6,324.4,o),
(332.4,356.1,o),
(332.4,384.3,cs),
(332.4,397.3,o),
(331.2,409.5,o),
(327.6,419.9,cs),
(319.7,443,o),
(259.6,538.6,o),
(233.7,533,cs),
(200.4,525.8,o),
(176.4,471.7,o),
(156.9,447.2,c),
(143,480.4,o),
(135.8,516.4,o),
(98.5,531.9,c),
(65.5,515.4,o),
(45.3,468.6,o),
(27.1,437.9,c),
(37.8,416.3,o),
(52.4,393.2,o),
(57.7,369.6,cs),
(63.8,341.9,o),
(66,302.3,o),
(66,259.1,cs),
(66,182.6,o),
(58.9,95,o),
(53.6,43,cs),
(50.5,13.3,o),
(21.5,-15,o),
(24.8,-43.5,cs),
(28.2,-71.8,o),
(79.6,-165.7,o),
(114.3,-155.2,cs),
(138.6,-147.8,o),
(160.2,-108.6,o),
(171.5,-87.7,cs),
(175.6,-80.3,o),
(177.2,-71.1,o),
(177.2,-60.6,cs),
(177.2,-13.2,o),
(143.1,59,o),
(143.1,95.4,cs),
(143.1,103.5,o),
(144.7,109.8,o),
(148.8,113.7,c)
);
},
{
closed = 1;
nodes = (
(199.1,428.2,o),
(212.1,419.5,o),
(215.1,407.8,cs),
(221.5,382.8,o),
(216,350,o),
(216,324.2,cs),
(216,251.2,o),
(216,178.2,o),
(216,105.2,c),
(193.6,105,o),
(179.8,122.4,o),
(172.1,142.4,cs),
(163.6,164.4,o),
(158.4,246.5,o),
(158.4,310.8,cs),
(158.4,344.9,o),
(159.9,374,o),
(163.1,386.3,cs),
(167.3,402.5,o),
(179,419.3,o),
(188.9,432.7,c)
);
}
);
width = 356;
}
);
note = uni0070;
unicode = 112;
},
{
glyphname = uni0071;
layers = (
{
anchors = (
{
name = top;
pos = (182,564);
},
{
name = top_;
pos = (182,564);
},
{
name = top__;
pos = (182,564);
},
{
name = top___;
pos = (182,564);
},
{
name = top____;
pos = (182,564);
},
{
name = top_____;
pos = (182,564);
},
{
name = top______;
pos = (182,564);
},
{
name = top_______;
pos = (182,564);
},
{
name = top________;
pos = (182,564);
},
{
name = top_________;
pos = (182,564);
},
{
name = top__________;
pos = (182,564);
}
);
layerId = m01;
shapes = (
{
closed = 1;
nodes = (
(198.8,492.3,o),
(176.2,529.1,o),
(145.7,536.4,cs),
(122.3,542.1,o),
(104.1,521.7,o),
(90.2,506,cs),
(70.8,484.2,o),
(39,457.7,o),
(29.2,429.8,cs),
(23.9,414.5,o),
(21.5,347.8,o),
(21.5,281,cs),
(21.5,214.8,o),
(23.9,148.4,o),
(28.3,131.8,cs),
(34.5,108.4,o),
(57.3,87.3,o),
(72.5,69.4,cs),
(94.5,43.6,o),
(111.6,33.4,o),
(125.9,33.4,cs),
(155.4,33.4,o),
(173.4,76.7,o),
(198.8,116.5,c),
(206.9,58.8,o),
(185.7,14.3,o),
(185.7,-30.9,cs),
(185.7,-56.9,o),
(192.7,-83.2,o),
(216.3,-112.4,cs),
(232.9,-133,o),
(250.7,-150.7,o),
(276.2,-158.9,c),
(301.6,-136.6,o),
(335.1,-90.2,o),
(337.8,-55.5,cs),
(340.3,-22,o),
(309.5,11.5,o),
(305.2,45.7,cs),
(293.2,140.4,o),
(297.9,241.1,o),
(299.2,336.5,cs),
(299.7,375.4,o),
(336.8,470.5,o),
(335.5,475.5,cs),
(331.2,491.6,o),
(318.4,508.1,o),
(307.4,520.2,cs),
(297.3,531.5,o),
(287.8,536.1,o),
(279.2,536.1,cs),
(253.1,536.1,o),
(233.6,494.9,o),
(219.5,470.8,c)
);
},
{
closed = 1;
nodes = (
(172.7,432.1,o),
(185.2,416.3,o),
(189.6,401.2,cs),
(192.7,390.6,o),
(194.1,338.6,o),
(194.1,285.8,cs),
(194.1,232,o),
(192.7,177.3,o),
(190.1,164.8,cs),
(186.2,146.3,o),
(173.8,126.2,o),
(156.9,118.1,c),
(146.6,124.4,o),
(142.4,131.6,o),
(139.5,143.6,cs),
(133.9,166.8,o),
(129.9,242.1,o),
(129.9,309.4,cs),
(129.9,360.4,o),
(132.2,406.8,o),
(137.9,422.6,cs),
(141.6,432.9,o),
(150.2,436.9,o),
(159.7,440.4,c)
);
}
);
width = 366;
}
);
note = uni0071;
unicode = 113;
},
{
glyphname = uni0072;
layers = (
{
anchors = (
{
name = top;
pos = (166,557);
},
{
name = top_;
pos = (166,557);
},
{
name = top__;
pos = (166,557);
},
{
name = top___;
pos = (166,557);
},
{
name = top____;
pos = (166,557);
},
{
name = top_____;
pos = (166,557);
},
{
name = top______;
pos = (166,557);
},
{
name = top_______;
pos = (166,557);
},
{
name = top________;
pos = (166,557);
},
{
name = top_________;
pos = (166,557);
},
{
name = top__________;
pos = (166,557);
}
);
layerId = m01;
shapes = (
{
closed = 1;
nodes = (
(187.8,375.3,o),
(187,352.6,o),
(195.9,332,cs),
(204.5,312.2,o),
(215.2,304.5,o),
(226.6,304.5,cs),
(257.4,304.5,o),
(293.4,360.4,o),
(307.6,383.4,c),
(271.3,429,o),
(266.5,490,o),
(231.4,532.9,c),
(191.2,520,o),
(169.5,473.8,o),
(148.1,440.1,c),
(136,470.9,o),
(118.1,522.4,o),
(91.8,522.4,cs),
(82,522.4,o),
(70.9,515.2,o),
(58.6,497,cs),
(47.4,480.5,o),
(30.9,460.2,o),
(28.1,440,cs),
(23.1,405.2,o),
(52.8,360.2,o),
(54.1,322.5,cs),
(55.6,280.3,o),
(57.1,235.6,o),
(51.3,193.7,cs),
(47.1,163.8,o),
(26.5,128.6,o),
(31.4,98.6,cs),
(35.8,71.5,o),
(66.2,10.3,o),
(96.1,5,cs),
(131.4,-1.3,o),
(168.6,72.2,o),
(167.8,100.7,cs),
(166.1,157.8,o),
(135,229.5,o),
(135,294.4,cs),
(135,331.4,o),
(145.1,366.2,o),
(176.6,394.9,c)
);
}
);
width = 332;
}
);
note = uni0072;
unicode = 114;
},
{
glyphname = uni0073;
layers = (
{
anchors = (
{
name = top;
pos = (160,556);
},
{
name = top_;
pos = (160,556);
},
{
name = top__;
pos = (160,556);
},
{
name = top___;
pos = (160,556);
},
{
name = top____;
pos = (160,556);
},
{
name = top_____;
pos = (160,556);
},
{
name = top______;
pos = (160,556);
},
{
name = top_______;
pos = (160,556);
},
{
name = top________;
pos = (160,556);
},
{
name = top_________;
pos = (160,556);
},
{
name = top__________;
pos = (160,556);
}
);
layerId = m01;
shapes = (
{
closed = 1;
nodes = (
(161.9,436.4,o),
(168.8,433.4,o),
(180,425.9,c),
(183,361.3,o),
(200.5,335.1,o),
(221.3,335.1,cs),
(247.4,335.1,o),
(278.7,377.1,o),
(291.8,436.8,c),
(247.9,484.4,o),
(210.1,525.8,o),
(163.6,525.8,cs),
(140.9,525.8,o),
(116,515.9,o),
(87.4,492,cs),
(64.8,473.2,o),
(40.4,452.6,o),
(34,422.6,cs),
(12.4,322.5,o),
(186.7,226.6,o),
(186.7,139.7,cs),
(186.7,124.5,o),
(181.3,109.5,o),
(168.7,94.9,c),
(117,117.6,o),
(162.2,218.2,o),
(96.4,218.2,cs),
(57,218.2,o),
(23.5,151.6,o),
(27.1,118.6,cs),
(30,92,o),
(55.1,72.5,o),
(73.6,55.8,cs),
(108.8,23.9,o),
(131.2,3.9,o),
(156.1,3.9,cs),
(175.3,3.9,o),
(195.9,15.8,o),
(224.9,43.2,cs),
(243.5,60.8,o),
(265.6,76.5,o),
(279.6,98.2,cs),
(291.5,116.6,o),
(296.6,134.3,o),
(296.6,151.4,cs),
(296.6,246.8,o),
(139.2,324,o),
(139.2,405.2,cs),
(139.2,416.2,o),
(142.1,427.3,o),
(148.6,438.5,c)
);
}
);
width = 316;
}
);
note = uni0073;
unicode = 115;
},
{
glyphname = uni0074;
layers = (
{
anchors = (
{
name = top;
pos = (132,641);
},
{
name = top_;
pos = (132,641);
},
{
name = top__;
pos = (132,641);
},
{
name = top___;
pos = (132,641);
},
{
name = top____;
pos = (132,641);
},
{
name = top_____;
pos = (132,641);
},
{
name = top______;
pos = (132,641);
},
{
name = top_______;
pos = (132,641);
},
{
name = top________;
pos = (132,641);
},
{
name = top_________;
pos = (132,641);
},
{
name = top__________;
pos = (132,641);
}
);
layerId = m01;
shapes = (
{
closed = 1;
nodes = (
(180.6,550.4,o),
(181.3,593.2,o),
(158.6,619.9,c),
(131.3,612.6,o),
(33.9,526.7,o),
(25.9,499.2,cs),
(14.8,461,o),
(65.6,477.1,o),
(76,456,cs),
(87.7,432.5,o),
(80.7,389.6,o),
(81.2,363.7,cs),
(82.2,310,o),
(84.6,255.3,o),
(79,201.8,cs),
(75.5,168.8,o),
(61.6,134.5,o),
(63.4,101.2,cs),
(64.2,86.1,o),
(70.7,72.3,o),
(78.1,59.3,cs),
(97.6,25,o),
(115.3,5.2,o),
(134,5.2,cs),
(149.8,5.2,o),
(166.1,19.1,o),
(184.8,50.1,cs),
(193,63.7,o),
(207,81.9,o),
(206.3,98.6,cs),
(205.1,123.2,o),
(189.8,148.6,o),
(186,173.5,cs),
(179,219.7,o),
(173.1,290.8,o),
(173.1,355.8,cs),
(173.1,396.8,o),
(175.4,435.5,o),
(181.4,463.9,c),
(207.2,470.3,o),
(242.3,468.5,o),
(242.3,494.7,cs),
(242.3,500.5,o),
(240.6,507.7,o),
(236.6,516.6,c),
(219.3,520.3,o),
(201.6,518.2,o),
(184,517,c)
);
}
);
width = 265;
}
);
note = uni0074;
unicode = 116;
},
{
glyphname = uni0075;
layers = (
{
anchors = (
{
name = top;
pos = (187,558);
},
{
name = top_;
pos = (187,558);
},
{
name = top__;
pos = (187,558);
},
{
name = top___;
pos = (187,558);
},
{
name = top____;
pos = (187,558);
},
{
name = top_____;
pos = (187,558);
},
{
name = top______;
pos = (187,558);
},
{
name = top_______;
pos = (187,558);
},
{
name = top________;
pos = (187,558);
},
{
name = top_________;
pos = (187,558);
},
{
name = top__________;
pos = (187,558);
}
);
layerId = m01;
shapes = (
{
closed = 1;
nodes = (
(239.7,523.8,o),
(194.1,459.5,o),
(193.7,424.6,cs),
(193.5,405,o),
(209.5,384.9,o),
(213.4,365.4,cs),
(221.5,324.7,o),
(218.7,281,o),
(217.7,239.7,cs),
(217,213.3,o),
(217.7,122.3,o),
(181.7,117.7,cs),
(153.4,114.2,o),
(155.5,202.2,o),
(154.5,221.4,cs),
(152,267.4,o),
(151.4,313.5,o),
(156.9,359.2,cs),
(159.5,381.2,o),
(174.2,403.8,o),
(170.6,425.9,cs),
(166.4,452.5,o),
(149.7,479.3,o),
(134.8,501.2,cs),
(121.2,521,o),
(108.9,528.9,o),
(97.5,528.9,cs),
(64.6,528.9,o),
(40.7,462.1,o),
(24.1,425.8,c),
(49.9,375.8,o),
(59.8,308.9,o),
(59.8,245.6,cs),
(59.8,217.4,o),
(57.8,189.8,o),
(54.4,164.8,cs),
(51.6,144.6,o),
(35.7,122.1,o),
(37.8,101.8,cs),
(40,80.1,o),
(63.3,51.7,o),
(76.2,34.8,cs),
(92.6,13.3,o),
(107,4.9,o),
(119.9,4.9,cs),
(153.1,4.9,o),
(177.2,60.2,o),
(203.8,93.7,c),
(222,71.7,o),
(224.7,41,o),
(244.6,18.8,cs),
(253.7,8.5,o),
(267.1,-4.2,o),
(282.1,-1.4,cs),
(298.5,1.6,o),
(345.7,73.8,o),
(348.1,90.8,cs),
(349.6,101.6,o),
(338.8,116,o),
(334.4,125.4,cs),
(313.9,169.3,o),
(308.2,211,o),
(308.4,259.2,cs),
(308.6,291.5,o),
(308.4,326.2,o),
(315.5,357.8,cs),
(320.8,381.6,o),
(343,405.8,o),
(339.3,430.9,cs),
(334.2,465.6,o),
(298.5,517.6,o),
(270.7,537.9,c)
);
}
);
width = 374;
}
);
note = uni0075;
unicode = 117;
},
{
glyphname = uni0076;
layers = (
{
anchors = (
{
name = top;
pos = (187,560);
},
{
name = top_;
pos = (187,560);
},
{
name = top__;
pos = (187,560);
},
{
name = top___;
pos = (187,560);
},
{
name = top____;
pos = (187,560);
},
{
name = top_____;
pos = (187,560);
},
{
name = top______;
pos = (187,560);
},
{
name = top_______;
pos = (187,560);
},
{
name = top________;
pos = (187,560);
},
{
name = top_________;
pos = (187,560);
},
{
name = top__________;
pos = (187,560);
}
);
layerId = m01;
shapes = (
{
closed = 1;
nodes = (
(121.7,293.2,o),
(235,438.3,o),
(116.9,524.8,cs),
(111.7,528.7,o),
(106.5,530.4,o),
(101.4,530.4,cs),
(65.2,530.4,o),
(35.1,442.8,o),
(24.6,419.3,c),
(46.6,360.3,o),
(75.9,304.6,o),
(94.3,244.2,cs),
(115.4,174.9,o),
(120.2,85.2,o),
(158.7,23,cs),
(166.8,9.9,o),
(181.2,1.8,o),
(196.7,5.2,cs),
(213.5,9,o),
(222.7,25,o),
(228.9,39.6,cs),
(271.4,139.3,o),
(276.1,251.3,o),
(321.8,350.9,cs),
(330.7,370.2,o),
(346.4,391.9,o),
(347,413.8,cs),
(347.8,440.8,o),
(308.9,536.6,o),
(274.3,530,cs),
(157.5,507.7,o),
(252.5,259.7,o),
(190.3,204.5,c)
);
}
);
width = 375;
}
);
note = uni0076;
unicode = 118;
},
{
glyphname = uni0077;
layers = (
{
anchors = (
{
name = top;
pos = (269,564);
},
{
name = top_;
pos = (269,564);
},
{
name = top__;
pos = (269,564);
},
{
name = top___;
pos = (269,564);
},
{
name = top____;
pos = (269,564);
},
{
name = top_____;
pos = (269,564);
},
{
name = top______;
pos = (269,564);
},
{
name = top_______;
pos = (269,564);
},
{
name = top________;
pos = (269,564);
},
{
name = top_________;
pos = (269,564);
},
{
name = top__________;
pos = (269,564);
}
);
layerId = m01;
shapes = (
{
closed = 1;
nodes = (
(285.5,288.3,o),
(393.7,448,o),
(270.4,534.9,c),
(220.4,503.2,o),
(208.8,465.5,o),
(208.8,424.9,cs),
(208.8,393.2,o),
(215.9,359.6,o),
(217.2,325.7,cs),
(219.1,277.7,o),
(211,217.1,o),
(192.9,172.6,c),
(126.5,248.8,o),
(242.2,467.4,o),
(118.1,531.1,cs),
(74.5,553.5,o),
(29.3,441.4,o),
(27.8,409.9,cs),
(25.3,358.9,o),
(72.8,299.7,o),
(88.1,251.5,cs),
(104.2,201.1,o),
(111.8,148.1,o),
(122.7,96.4,cs),
(128.3,69.7,o),
(136.5,1.5,o),
(174.9,1.5,cs),
(227.7,1.5,o),
(251.9,203,o),
(269.1,237,c),
(287.1,187.5,o),
(300.9,21.6,o),
(349.6,2.1,cs),
(368.2,-5.4,o),
(384,9,o),
(392.3,24.5,cs),
(426.8,89.5,o),
(421,171.9,o),
(444.9,241.1,cs),
(461.8,290.3,o),
(510.3,348.6,o),
(511.9,400.3,cs),
(512.9,430.8,o),
(460.8,548.6,o),
(421.2,528.5,cs),
(302.5,468.4,o),
(415,265.4,o),
(352.7,175.6,c)
);
}
);
width = 538;
}
);
note = uni0077;
unicode = 119;
},
{
glyphname = uni0078;
layers = (
{
anchors = (
{
name = top;
pos = (169,559);
},
{
name = top_;
pos = (169,559);
},
{
name = top__;
pos = (169,559);
},
{
name = top___;
pos = (169,559);
},
{
name = top____;
pos = (169,559);
},
{
name = top_____;
pos = (169,559);
},
{
name = top______;
pos = (169,559);
},
{
name = top_______;
pos = (169,559);
},
{
name = top________;
pos = (169,559);
},
{
name = top_________;
pos = (169,559);
},
{
name = top__________;
pos = (169,559);
}
);
layerId = m01;
shapes = (
{
closed = 1;
nodes = (
(208,191.5,o),
(149.8,30.6,o),
(253.8,-5.9,c),
(273.8,5.8,o),
(284.4,27.8,o),
(294.7,47.9,cs),
(302.4,63,o),
(315.4,83.1,o),
(313.2,100.8,cs),
(307.7,144,o),
(208.1,217,o),
(207.5,269.2,cs),
(206.8,320.2,o),
(299.6,397.2,o),
(300.6,430.7,cs),
(301.1,446.5,o),
(287,466.2,o),
(280,479.8,cs),
(269.6,499.8,o),
(259.3,521.6,o),
(242.2,536.7,c),
(225.2,532.1,o),
(212.9,521.4,o),
(201.6,508.1,cs),
(148,445.1,o),
(218.5,385.8,o),
(173.6,325.8,c),
(122.5,374,o),
(185.2,493.4,o),
(90.9,534.9,c),
(72.8,522.1,o),
(63.1,501.5,o),
(53,482.2,cs),
(45.7,468.2,o),
(32.2,449.2,o),
(32.1,433.1,cs),
(31.9,387.2,o),
(133.3,313.6,o),
(124.9,264.9,cs),
(116.6,217.3,o),
(26.8,122.3,o),
(25.8,107,cs),
(23.9,78.7,o),
(63.3,4.1,o),
(89.8,-5.9,c),
(184.1,43.7,o),
(111.4,163,o),
(163.9,232.5,c)
);
}
);
width = 339;
}
);
note = uni0078;
unicode = 120;
},
{
glyphname = uni0079;
layers = (
{
anchors = (
{
name = top;
pos = (201,557);
},
{
name = top_;
pos = (201,557);
},
{
name = top__;
pos = (201,557);
},
{
name = top___;
pos = (201,557);
},
{
name = top____;
pos = (201,557);
},
{
name = top_____;
pos = (201,557);
},
{
name = top______;
pos = (201,557);
},
{
name = top_______;
pos = (201,557);
},
{
name = top________;
pos = (201,557);
},
{
name = top_________;
pos = (201,557);
},
{
name = top__________;
pos = (201,557);
}
);
layerId = m01;
shapes = (
{
closed = 1;
nodes = (
(159.9,443.8,o),
(289.8,303.8,o),
(211,209.3,c),
(144.1,308.3,o),
(245,423.7,o),
(121,533.3,c),
(87.7,511.2,o),
(48.3,452,o),
(50.4,410.5,cs),
(52.4,370.7,o),
(84.3,328.6,o),
(98.8,292,cs),
(117.8,244.3,o),
(160.3,113.5,o),
(160.3,24.7,cs),
(160.3,-9.2,o),
(154.1,-37,o),
(138,-51.7,c),
(124.4,-31.1,o),
(124,-0.8,o),
(106,16.5,cs),
(96.3,25.8,o),
(81.7,26.4,o),
(70,20.7,cs),
(44.7,8.4,o),
(34.8,-13.7,o),
(34.8,-38.2,cs),
(34.8,-91.7,o),
(81.7,-156.7,o),
(118.5,-156.7,cs),
(124,-156.7,o),
(129.2,-155.3,o),
(134,-152.2,cs),
(155.2,-138.6,o),
(240.1,-64.1,o),
(250.4,-44.4,cs),
(271.7,-3.9,o),
(261.3,94,o),
(272.4,144.9,cs),
(281.9,188.8,o),
(294.5,232.3,o),
(312.3,273.6,cs),
(328.8,311.9,o),
(369.7,364.7,o),
(370.9,406.6,cs),
(372,446.8,o),
(331.7,510.3,o),
(299.8,532.6,c)
);
}
);
width = 392;
}
);
note = uni0079;
unicode = 121;
},
{
glyphname = uni007A;
layers = (
{
anchors = (
{
name = top;
pos = (173,554);
},
{
name = top_;
pos = (173,554);
},
{
name = top__;
pos = (173,554);
},
{
name = top___;
pos = (173,554);
},
{
name = top____;
pos = (173,554);
},
{
name = top_____;
pos = (173,554);
},
{
name = top______;
pos = (173,554);
},
{
name = top_______;
pos = (173,554);
},
{
name = top________;
pos = (173,554);
},
{
name = top_________;
pos = (173,554);
},
{
name = top__________;
pos = (173,554);
}
);
layerId = m01;
shapes = (
{
closed = 1;
nodes = (
(161.8,192.2,o),
(224.9,294.3,o),
(263.7,360.8,cs),
(276.2,382.2,o),
(299.2,405.1,o),
(303.9,429.8,cs),
(309.9,461.6,o),
(280.9,512,o),
(255.9,529.7,c),
(233.5,516.1,o),
(221,493.3,o),
(201.7,476,c),
(171,488.2,o),
(148.4,525.8,o),
(114.7,529.2,cs),
(61.6,534.7,o),
(34.2,489.8,o),
(34.2,441.2,cs),
(34.2,403.3,o),
(50.9,363.1,o),
(85.2,343.2,c),
(108.8,363.6,o),
(116,394.5,o),
(131.3,421,c),
(144.9,420.1,o),
(155.3,418.7,o),
(168,413.8,c),
(155.4,339.3,o),
(115.3,257.8,o),
(80,191.5,cs),
(65.2,163.7,o),
(33,129.1,o),
(29.5,97.6,cs),
(25.7,64.4,o),
(53.8,23.3,o),
(75.8,0.8,c),
(96.7,12.1,o),
(116.4,35.8,o),
(140.7,38.7,cs),
(173.9,42.6,o),
(206.5,0.7,o),
(237.7,0.7,cs),
(245.1,0.7,o),
(252.5,3.1,o),
(259.7,9,cs),
(281.5,26.8,o),
(310.5,58.9,o),
(317.8,86.7,cs),
(325.5,115.8,o),
(292.9,198,o),
(258.8,200.8,cs),
(199.1,205.7,o),
(235.2,106.6,o),
(188.4,106.6,cs),
(181.6,106.6,o),
(173.1,108.7,o),
(162.4,113.4,c)
);
}
);
width = 345;
}
);
note = uni007A;
unicode = 122;
},
{
glyphname = uni00AA;
layers = (
{
anchors = (
{
name = top;
pos = (94,585);
},
{
name = top_;
pos = (94,585);
},
{
name = top__;
pos = (94,585);
},
{
name = top___;
pos = (94,585);
},
{
name = top____;
pos = (94,585);
},
{
name = top_____;
pos = (94,585);
},
{
name = top______;
pos = (94,585);
},
{
name = top_______;
pos = (94,585);
},
{
name = top________;
pos = (94,585);
},
{
name = top_________;
pos = (94,585);
},
{
name = top__________;
pos = (94,585);
}
);
layerId = m01;
shapes = (
{
closed = 1;
nodes = (
(106.9,342.4,o),
(114.9,333,o),
(130.3,324.7,c),
(143.2,334.5,o),
(153.4,345.1,o),
(163.5,357.7,c),
(131.3,409.1,o),
(154.9,450.9,o),
(145.1,504.4,cs),
(142.5,518.8,o),
(131.3,530.2,o),
(121,539.8,cs),
(108.3,551.5,o),
(96.8,556.2,o),
(86.1,556.2,cs),
(64.3,556.2,o),
(45.5,536.8,o),
(26,516,c),
(30.6,493.9,o),
(40.5,477.4,o),
(61,467.4,c),
(74.8,482.5,o),
(74.2,500.3,o),
(81.3,518.8,c),
(92.8,508.3,o),
(97.4,499.3,o),
(97.4,491.3,cs),
(97.4,467.6,o),
(57.4,452.8,o),
(40.9,435.2,cs),
(30,423.6,o),
(25.4,410.1,o),
(25.4,396.4,cs),
(25.4,368.5,o),
(44.5,340.2,o),
(68.7,327.4,c),
(78.8,336.8,o),
(86.5,350.4,o),
(98,357.4,c)
);
},
{
closed = 1;
nodes = (
(77.2,382.4,o),
(73.1,393.5,o),
(73.1,404.5,cs),
(73.1,417.2,o),
(78.7,429.6,o),
(90.2,437.9,c),
(93.6,429.7,o),
(95.1,421.3,o),
(95.1,412.7,cs),
(95.1,399.3,o),
(91.4,385.8,o),
(85.4,373.5,c)
);
}
);
width = 188;
}
);
note = uni00AA;
unicode = 170;
},
{
glyphname = uni00BA;
layers = (
{
anchors = (
{
name = top;
pos = (86,584);
},
{
name = top_;
pos = (86,584);
},
{
name = top__;
pos = (86,584);
},
{
name = top___;
pos = (86,584);
},
{
name = top____;
pos = (86,584);
},
{
name = top_____;
pos = (86,584);
},
{
name = top______;
pos = (86,584);
},
{
name = top_______;
pos = (86,584);
},
{
name = top________;
pos = (86,584);
},
{
name = top_________;
pos = (86,584);
},
{
name = top__________;
pos = (86,584);
}
);
layerId = m01;
shapes = (
{
closed = 1;
nodes = (
(132.7,526.3,o),
(114.2,552.6,o),
(93.1,560.7,cs),
(81,565.3,o),
(71.1,555.3,o),
(63,547.6,cs),
(52.6,537.5,o),
(37.2,525.9,o),
(30.5,512.9,cs),
(19.1,490.9,o),
(26.1,411.1,o),
(24,382,c),
(42.1,362.4,o),
(60.9,337.5,o),
(85.3,325.8,c),
(162.1,354.3,o),
(148.2,444.1,o),
(148.4,510.6,c)
);
},
{
closed = 1;
nodes = (
(99,489.4,o),
(102.7,460.8,o),
(102.7,433.6,cs),
(102.7,409.6,o),
(99.8,386.7,o),
(88.9,371.6,c),
(75.1,386.1,o),
(69.4,417.1,o),
(69.4,447.9,cs),
(69.4,475.4,o),
(73.9,502.8,o),
(81.3,518.4,c),
(89.7,517.7,o),
(92.2,516.1,o),
(99,510,c)
);
}
);
width = 174;
}
);
note = uni00BA;
unicode = 186;
},
{
glyphname = uni00C0;
layers = (
{
anchors = (
{
name = top;
pos = (219,882);
},
{
name = top_;
pos = (219,882);
},
{
name = top__;
pos = (219,882);
},
{
name = top___;
pos = (219,882);
},
{
name = top____;
pos = (219,882);
},
{
name = top_____;
pos = (219,882);
},
{
name = top______;
pos = (219,882);
},
{
name = top_______;
pos = (219,882);
},
{
name = top________;
pos = (219,882);
},
{
name = top_________;
pos = (219,882);
},
{
name = top__________;
pos = (219,882);
}
);
layerId = m01;
shapes = (
{
closed = 1;
nodes = (
(347,580.8,o),
(250.8,693.5,o),
(220.2,686.4,cs),
(189.3,679.2,o),
(160.8,638.3,o),
(137.2,618.6,cs),
(119.9,604.2,o),
(82,586.3,o),
(75.2,563.6,cs),
(70.4,547.6,o),
(85.2,519.2,o),
(89.6,503.5,cs),
(96.8,477.8,o),
(99.5,449.5,o),
(99.5,420.6,cs),
(99.5,381.6,o),
(94.6,341.8,o),
(88.9,306.6,cs),
(84,276,o),
(76.7,245.8,o),
(66.4,216.5,cs),
(55,184.3,o),
(21.8,142.9,o),
(26.9,108,cs),
(29.7,88.7,o),
(40.2,69.5,o),
(49.1,52.5,cs),
(66.6,18.7,o),
(85.3,4.2,o),
(104.6,4.2,cs),
(126.4,4.2,o),
(148.9,22.5,o),
(171.5,52.1,cs),
(185.1,69.9,o),
(199.4,90.1,o),
(200.4,113.3,cs),
(203,177.3,o),
(164.8,244.1,o),
(177.4,309,c),
(261.4,309,l),
(261.6,265.2,o),
(239.2,179.3,o),
(239.2,124.2,cs),
(239.2,109.8,o),
(240.7,97.5,o),
(244.6,88.5,cs),
(263.7,44.3,o),
(295.1,3.9,o),
(328.9,3.9,cs),
(347.8,3.9,o),
(367.3,16.4,o),
(386,47.7,cs),
(397.1,66.4,o),
(410.3,88.8,o),
(413,110.8,cs),
(417,142.7,o),
(370.6,214.3,o),
(360.4,250,cs),
(346.8,298,o),
(339.1,349.2,o),
(339.1,400,cs),
(339.1,453.2,o),
(347.5,506.2,o),
(366,555,c)
);
},
{
closed = 1;
nodes = (
(245.1,559.8,o),
(253.4,415,o),
(253.8,375.7,c),
(229.3,370.6,o),
(204.5,370.2,o),
(179.5,371.1,c),
(181.2,432.9,o),
(188.4,508.1,o),
(205,567.6,c)
);
},
{
closed = 1;
nodes = (
(259.8,743.9,o),
(228,855.7,o),
(173.1,855.7,cs),
(144.5,855.7,o),
(89.4,828.8,o),
(107.2,792.9,cs),
(119.4,768.4,o),
(157.4,751.3,o),
(180.1,738.2,cs),
(206.5,723,o),
(239.1,698.9,o),
(270.6,702.2,c)
);
}
);
width = 437;
}
);
note = uni00C0;
unicode = 192;
},
{
glyphname = uni00C1;
layers = (
{
anchors = (
{
name = top;
pos = (220,877);
},
{
name = top_;
pos = (220,877);
},
{
name = top__;
pos = (220,877);
},
{
name = top___;
pos = (220,877);
},
{
name = top____;
pos = (220,877);
},
{
name = top_____;
pos = (220,877);
},
{
name = top______;
pos = (220,877);
},
{
name = top_______;
pos = (220,877);
},
{
name = top________;
pos = (220,877);
},
{
name = top_________;
pos = (220,877);
},
{
name = top__________;
pos = (220,877);
}
);
layerId = m01;
shapes = (
{
closed = 1;
nodes = (
(201.7,310.6,o),
(228.7,308.8,o),
(255.5,308,c),
(261.3,249.3,o),
(243.9,194.7,o),
(239.6,136.8,cs),
(234.7,70,o),
(278.6,6.6,o),
(326.5,6.6,cs),
(356.1,6.6,o),
(387.1,30.6,o),
(409.3,92.6,cs),
(411.5,98.8,o),
(412.5,105.5,o),
(412.5,112.5,cs),
(412.5,160.4,o),
(366.2,223.7,o),
(356.1,267.3,cs),
(345.4,313.3,o),
(337.9,362.4,o),
(337.9,410.6,cs),
(337.9,428.5,o),
(339,446.3,o),
(341.2,463.8,cs),
(344.9,491.8,o),
(366.3,528.1,o),
(361.3,555.7,cs),
(356.8,580.4,o),
(253.1,682.9,o),
(227.9,684.5,cs),
(204.6,685.9,o),
(79.6,579.5,o),
(75.8,556.1,cs),
(71.2,527.8,o),
(91.3,495.1,o),
(94.4,466.7,cs),
(101.3,403.3,o),
(93,334.9,o),
(79.6,272.9,cs),
(69.8,227.8,o),
(17.3,133.4,o),
(30.4,95.1,cs),
(52.2,32,o),
(82.2,9,o),
(110.8,9,cs),
(158.6,9,o),
(202.8,73,o),
(199.7,121.7,cs),
(195.7,183.4,o),
(168,241.5,o),
(175.4,304.7,c)
);
},
{
closed = 1;
nodes = (
(181.1,371.5,l),
(178.9,382.6,o),
(178,395.5,o),
(178,409.4,cs),
(178,461.7,o),
(191.6,528.6,o),
(205.3,568.8,c),
(251.2,554.8,o),
(246.6,418.4,o),
(250,374,c)
);
},
{
closed = 1;
nodes = (
(221.7,709.5,o),
(320.9,759.7,o),
(337.6,790.3,cs),
(353.7,820,o),
(314.6,854.8,o),
(286.9,854.8,cs),
(262.4,854.8,o),
(233.8,835.7,o),
(210.6,778.9,cs),
(200.3,753.7,o),
(185.5,723.8,o),
(187.7,696.2,c)
);
}
);
width = 443;
}
);
note = uni00C1;
unicode = 193;
},
{
glyphname = uni00C2;
layers = (
{
anchors = (
{
name = top;
pos = (223,882);
},
{
name = top_;
pos = (223,882);
},
{
name = top__;
pos = (223,882);
},
{
name = top___;
pos = (223,882);
},
{
name = top____;
pos = (223,882);
},
{
name = top_____;
pos = (223,882);
},
{
name = top______;
pos = (223,882);
},
{
name = top_______;
pos = (223,882);
},
{
name = top________;
pos = (223,882);
},
{
name = top_________;
pos = (223,882);
},
{
name = top__________;
pos = (223,882);
}
);
layerId = m01;
shapes = (
{
closed = 1;
nodes = (
(375.5,214.6,o),
(345.3,303.5,o),
(343.1,411,cs),
(342.5,444.1,o),
(373.5,550.2,o),
(365.5,566.2,cs),
(351.4,594.6,o),
(255.1,689.9,o),
(223.4,683.5,cs),
(191.9,677.1,o),
(159.5,638.3,o),
(135.6,618.2,cs),
(117.5,603.1,o),
(85,583.7,o),
(80,558.9,cs),
(73.9,528.7,o),
(97.5,488.9,o),
(101,458,cs),
(107.8,396.2,o),
(97.4,333.8,o),
(83.9,273.7,cs),
(75.1,234.6,o),
(22.3,142.1,o),
(28.4,113.1,cs),
(41.8,49.6,o),
(76.4,12.5,o),
(112.8,12.5,cs),
(142,12.5,o),
(172.5,36.6,o),
(193.9,90.4,cs),
(199.8,105.2,o),
(202,121.6,o),
(202,138.8,cs),
(202,194.2,o),
(178.8,258.4,o),
(179.7,309.1,c),
(206.5,311.7,o),
(233.1,313.1,o),
(260,311.5,c),
(259.1,257.9,o),
(245.9,204.8,o),
(245.9,154.3,cs),
(245.9,113.3,o),
(254.6,74,o),
(285.6,37.9,cs),
(297.5,24,o),
(313.3,6.9,o),
(332.3,3.7,cs),
(381.1,-4.5,o),
(409,85.8,o),
(422,119,c)
);
},
{
closed = 1;
nodes = (
(220.9,568.2,o),
(225.1,567.2,o),
(232.4,563.4,c),
(250.9,504.9,o),
(251.8,440.5,o),
(256.9,379.8,c),
(188.9,375.6,l),
(178.2,405.9,o),
(198.7,537.3,o),
(212.7,568.2,c)
);
},
{
closed = 1;
nodes = (
(109,733.9,o),
(124.3,706,o),
(143.3,685.6,c),
(171.6,693.1,o),
(200,736.6,o),
(219.9,757.8,c),
(243.4,735.6,o),
(272.6,693.7,o),
(303.9,684.2,c),
(323.5,704.5,o),
(340.7,733.8,o),
(348.5,761,c),
(330.2,778.6,o),
(245,860.5,o),
(224.8,860.7,cs),
(206.5,861,o),
(116,777.5,o),
(100.2,760.3,c)
);
}
);
width = 447;
}
);
note = uni00C2;
unicode = 194;
},
{
glyphname = uni00C3;
layers = (
{
anchors = (
{
name = top;
pos = (217,877);
},
{
name = top_;
pos = (217,877);
},
{
name = top__;
pos = (217,877);
},
{
name = top___;
pos = (217,877);
},
{
name = top____;
pos = (217,877);
},
{
name = top_____;
pos = (217,877);
},
{
name = top______;
pos = (217,877);
},
{
name = top_______;
pos = (217,877);
},
{
name = top________;
pos = (217,877);
},
{
name = top_________;
pos = (217,877);
},
{
name = top__________;
pos = (217,877);
}
);
layerId = m01;
shapes = (
{
closed = 1;
nodes = (
(73,530.1,o),
(88,496.3,o),
(95.5,461.7,cs),
(99.6,443,o),
(101.3,423.5,o),
(101.3,403.7,cs),
(101.3,370,o),
(96.4,335.6,o),
(90.3,303.8,cs),
(80.1,250.4,o),
(19.5,151.5,o),
(27,106.5,cs),
(38.3,38.9,o),
(74.2,9.5,o),
(110.2,9.5,cs),
(151.2,9.5,o),
(192.6,47.7,o),
(198,111,cs),
(202.6,164.5,o),
(176,218.7,o),
(176,271.9,cs),
(176,282.3,o),
(177,292.7,o),
(179.5,303.1,c),
(205.1,306.7,o),
(231.1,305.3,o),
(256.9,305,c),
(256.3,261.1,o),
(238.5,186.4,o),
(238.5,131.6,cs),
(238.5,113.7,o),
(240.4,97.9,o),
(245.4,86,cs),
(267.1,34.6,o),
(300.3,8.5,o),
(331.2,8.5,cs),
(364.5,8.5,o),
(395.3,38.8,o),
(406.6,100.5,cs),
(412.9,134.7,o),
(351.6,265,o),
(344.4,317.3,cs),
(340.2,348.2,o),
(337,380.9,o),
(337,413.3,cs),
(337,435.5,o),
(338.5,457.6,o),
(342.2,478.7,cs),
(346,500.9,o),
(364.3,526.5,o),
(362.8,548.5,cs),
(361.1,573.4,o),
(325.7,600.2,o),
(309.5,616.9,cs),
(289.9,636.9,o),
(260,677.9,o),
(230.8,682.6,cs),
(207,686.4,o),
(91,587,o),
(70.1,565.4,c)
);
},
{
closed = 1;
nodes = (
(183.7,370.9,l),
(180.6,428.8,o),
(187.9,514.2,o),
(210,567.9,c),
(235.2,556,o),
(252.8,459.5,o),
(252.8,404,cs),
(252.8,389.6,o),
(251.6,378,o),
(249.1,371.3,c)
);
},
{
closed = 1;
nodes = (
(239,810.9,o),
(209.4,840.3,o),
(171.9,838.5,cs),
(118.1,835.9,o),
(97.6,788.2,o),
(97.6,748.2,cs),
(97.6,718.7,o),
(108.7,693.3,o),
(125.8,693.3,cs),
(130.8,693.3,o),
(136.4,695.6,o),
(142.4,700.7,cs),
(157.2,713.1,o),
(159.6,737.8,o),
(171.1,753.5,c),
(207.7,742.7,o),
(236.7,704.7,o),
(277,707.8,cs),
(327.4,711.6,o),
(355.2,773.7,o),
(355.2,814.5,cs),
(355.2,834.7,o),
(348.4,849.7,o),
(334.1,849.7,cs),
(320.7,849.7,o),
(300.8,836.6,o),
(273.9,802.6,c)
);
}
);
width = 434;
}
);
note = uni00C3;
unicode = 195;
},
{
glyphname = uni00C4;
layers = (
{
anchors = (
{
name = top;
pos = (217,858);
},
{
name = top_;
pos = (217,858);
},
{
name = top__;
pos = (217,858);
},
{
name = top___;
pos = (217,858);
},
{
name = top____;
pos = (217,858);
},
{
name = top_____;
pos = (217,858);
},
{
name = top______;
pos = (217,858);
},
{
name = top_______;
pos = (217,858);
},
{
name = top________;
pos = (217,858);
},
{
name = top_________;
pos = (217,858);
},
{
name = top__________;
pos = (217,858);
}
);
layerId = m01;
shapes = (
{
closed = 1;
nodes = (
(256.8,304,l),
(261.8,239.3,o),
(236.6,181.5,o),
(235.3,118.7,cs),
(234.5,79.7,o),
(288.1,3.4,o),
(334.1,3.4,cs),
(346.4,3.4,o),
(358.1,8.9,o),
(368.1,22,cs),
(385.6,45,o),
(410.1,86.6,o),
(408.9,116.4,cs),
(407.3,154,o),
(376.8,194.5,o),
(364.7,230,cs),
(344.6,288.5,o),
(339.7,355,o),
(338.7,416.5,cs),
(338.3,448.6,o),
(369.1,542,o),
(360.7,559.9,cs),
(338,608.1,o),
(271,658.1,o),
(228.1,687.9,c),
(195.2,666.5,o),
(88.7,592.9,o),
(77.3,558.8,cs),
(65.4,523.3,o),
(96.5,465.7,o),
(98.9,427.9,cs),
(102.1,379.7,o),
(94.6,329.2,o),
(85.2,282,cs),
(74.1,227,o),
(30.1,168.3,o),
(30.1,112.1,cs),
(30.1,99.3,o),
(32.4,86.6,o),
(37.9,74.1,cs),
(57.9,28.5,o),
(86.1,10,o),
(113.4,10,cs),
(155.6,10,o),
(195.5,54.6,o),
(198.6,112.2,cs),
(202.1,176.8,o),
(169.4,238.2,o),
(175.8,304,c)
);
},
{
closed = 1;
nodes = (
(251.1,556.1,o),
(251.9,415.2,o),
(256.9,371.8,c),
(233.3,368.6,o),
(209.8,367.2,o),
(186,368.4,c),
(180.5,427.4,o),
(187.8,510.4,o),
(204.9,567.1,c)
);
},
{
closed = 1;
nodes = (
(193,721.4,o),
(202,746,o),
(202,767.6,cs),
(202,803.7,o),
(177,831.4,o),
(149.9,831.4,cs),
(139.8,831.4,o),
(129.4,827.5,o),
(120,818.9,cs),
(99.5,800.2,o),
(91.4,777.7,o),
(91.4,756.6,cs),
(91.4,720.2,o),
(115.9,688.1,o),
(143.8,688.1,cs),
(152.4,688.1,o),
(161.4,691.1,o),
(170,698,cs)
);
},
{
closed = 1;
nodes = (
(255.8,705.5,o),
(277.5,688.4,o),
(298.3,688.4,cs),
(334.4,688.4,o),
(368,739.9,o),
(359.2,774.6,cs),
(349,814.9,o),
(325.9,831.2,o),
(302.7,831.2,cs),
(269.3,831.2,o),
(235.9,797.4,o),
(241,753,c)
);
}
);
width = 437;
}
);
note = uni00C4;
unicode = 196;
},
{
glyphname = uni00C5;
layers = (
{
anchors = (
{
name = top;
pos = (220,945);
},
{
name = top_;
pos = (220,945);
},
{
name = top__;
pos = (220,945);
},
{
name = top___;
pos = (220,945);
},
{
name = top____;
pos = (220,945);
},
{
name = top_____;
pos = (220,945);
},
{
name = top______;
pos = (220,945);
},
{
name = top_______;
pos = (220,945);
},
{
name = top________;
pos = (220,945);
},
{
name = top_________;
pos = (220,945);
},
{
name = top__________;
pos = (220,945);
}
);
layerId = m01;
shapes = (
{
closed = 1;
nodes = (
(192.1,306.9,o),
(207.4,308.5,o),
(222.7,308.5,cs),
(235.1,308.5,o),
(247.6,307.4,o),
(259.7,305.2,c),
(262.5,294.1,o),
(263.7,282.8,o),
(263.7,271.5,cs),
(263.7,219.1,o),
(239.2,165.3,o),
(241.9,113.3,cs),
(243.1,89.9,o),
(258.4,67.9,o),
(271.9,49.7,cs),
(294.6,19.1,o),
(316.1,6.3,o),
(335.6,6.3,cs),
(368.6,6.3,o),
(395.6,43.6,o),
(411.4,94.5,cs),
(423.7,133.7,o),
(367.7,226,o),
(357.8,271.4,cs),
(347.6,317.9,o),
(340.4,368.4,o),
(340.4,417.7,cs),
(340.4,437.8,o),
(341.6,457.7,o),
(344.3,477.1,cs),
(347.8,502.4,o),
(370.4,533.8,o),
(366.6,558.6,cs),
(362.4,585.8,o),
(255.8,684.6,o),
(228.2,685.5,cs),
(199.8,686.4,o),
(180.1,658.1,o),
(161.3,641,cs),
(134.7,616.8,o),
(77.7,597.3,o),
(77.7,554.6,cs),
(77.7,530.5,o),
(93.5,501.4,o),
(96.5,480.2,cs),
(99.6,458.8,o),
(101,436,o),
(101,412.8,cs),
(101,365.7,o),
(95.2,316.9,o),
(85.5,274.3,cs),
(73.5,221.4,o),
(29.6,167.6,o),
(29.6,113.9,cs),
(29.6,103.3,o),
(31.3,92.7,o),
(35.3,82.1,cs),
(55.4,29,o),
(83.5,8.1,o),
(110.7,8.1,cs),
(161.2,8.1,o),
(208.8,80.4,o),
(197.4,152.7,cs),
(189.5,202.7,o),
(178.2,253.5,o),
(177.1,304.2,c)
);
},
{
closed = 1;
nodes = (
(182.5,373.3,l),
(184.5,433.2,o),
(189.4,511.8,o),
(207.9,568.6,c),
(253.7,559.7,o),
(251.3,417.2,o),
(260,375,c)
);
},
{
closed = 1;
nodes = (
(321.7,883.9,o),
(270.3,915.3,o),
(219.6,915.3,cs),
(163.9,915.3,o),
(109.1,877.4,o),
(113.2,804.6,cs),
(117.2,732.4,o),
(168.2,696.2,o),
(219.7,696.2,cs),
(274.4,696.2,o),
(329.6,737,o),
(330,819,cs)
);
},
{
closed = 1;
nodes = (
(247.7,825.9,o),
(251.3,813.9,o),
(251.3,803.7,cs),
(251.3,781.5,o),
(234.5,767.5,o),
(218.9,767.5,cs),
(191.9,767.5,o),
(190.8,801,o),
(194.6,820.7,cs),
(197.8,837.4,o),
(207.2,843.6,o),
(219,843.6,cs),
(225.2,843.6,o),
(232.1,841.8,o),
(239,839,c)
);
}
);
width = 442;
}
);
note = uni00C5;
unicode = 197;
},
{
glyphname = uni00C6;
layers = (
{
anchors = (
{
name = top;
pos = (289,706);
},
{
name = top_;
pos = (289,706);
},
{
name = top__;
pos = (289,706);
},
{
name = top___;
pos = (289,706);
},
{
name = top____;
pos = (289,706);
},
{
name = top_____;
pos = (289,706);
},
{
name = top______;
pos = (289,706);
},
{
name = top_______;
pos = (289,706);
},
{
name = top________;
pos = (289,706);
},
{
name = top_________;
pos = (289,706);
},
{
name = top__________;
pos = (289,706);
}
);
layerId = m01;
shapes = (
{
closed = 1;
nodes = (
(398.5,322.5,o),
(418.4,318.1,o),
(433,318.1,cs),
(459.9,318.1,o),
(469.4,333,o),
(469.4,349.9,cs),
(469.4,371.8,o),
(453.4,397.2,o),
(438.6,398,cs),
(417.5,399.1,o),
(396.6,375.4,o),
(376.6,369,c),
(361.2,391.8,o),
(357.4,425.7,o),
(357.4,460.7,cs),
(357.4,496.1,o),
(361.3,532.6,o),
(361,559.6,c),
(383.5,582.8,l),
(433.3,545.4,o),
(405,485.6,o),
(443.5,459.6,cs),
(451,454.5,o),
(458.9,452.2,o),
(466.8,452.2,cs),
(512.3,452.2,o),
(559.2,526.2,o),
(549.6,565.4,cs),
(543.8,589.1,o),
(419.5,684.9,o),
(395.5,682,cs),
(369.5,678.9,o),
(347,648.9,o),
(327,634,c),
(309,651.1,o),
(291.9,669.3,o),
(271,682.9,c),
(239.1,667.9,o),
(96.5,560.8,o),
(91.8,530.7,cs),
(87.5,503,o),
(111.7,479.2,o),
(116.4,453,cs),
(124.3,408.5,o),
(106,354.3,o),
(94.7,311.6,cs),
(83,267.6,o),
(21.2,155.3,o),
(29.2,119,cs),
(42,60.8,o),
(81,22.4,o),
(120.4,22.4,cs),
(148.8,22.4,o),
(177.4,42.4,o),
(196.5,89.3,cs),
(203.1,105.4,o),
(205.5,122.3,o),
(205.5,139.8,cs),
(205.5,193.2,o),
(182.5,251.2,o),
(183,302,c),
(187.2,306.2,l),
(214.1,305.4,o),
(243,305,o),
(268,294.6,c),
(266.5,258.6,o),
(239.2,197.8,o),
(239.2,152.7,cs),
(239.2,138.2,o),
(242,125.3,o),
(249.5,115.4,cs),
(270.3,87.7,o),
(374.9,-4.7,o),
(407.9,5.1,cs),
(440.8,14.9,o),
(467.5,48.2,o),
(494.4,68.2,cs),
(514.2,83,o),
(549.1,101.8,o),
(552.1,129.1,cs),
(556.7,171.5,o),
(522.5,254.8,o),
(476.2,254.8,cs),
(464.9,254.8,o),
(452.9,249.9,o),
(440.6,238.3,cs),
(405.2,205,o),
(450.6,150.3,o),
(422.2,124.9,cs),
(414.6,118.1,o),
(403.2,116.5,o),
(393.6,118.9,cs),
(368.5,125.1,o),
(361.3,168.9,o),
(361.3,216.2,cs),
(361.3,262.9,o),
(368.4,313.1,o),
(372.2,333.5,c)
);
},
{
closed = 1;
nodes = (
(194.4,415.1,o),
(202.8,507.8,o),
(235.3,558,c),
(269.3,530.7,o),
(265.5,404.4,o),
(264.9,360.3,c),
(189,356,l)
);
}
);
width = 579;
}
);
note = uni00C6;
unicode = 198;
},
{
glyphname = uni00C7;
layers = (
{
anchors = (
{
name = top;
pos = (188,708);
},
{
name = top_;
pos = (188,708);
},
{
name = top__;
pos = (188,708);
},
{
name = top___;
pos = (188,708);
},
{
name = top____;
pos = (188,708);
},
{
name = top_____;
pos = (188,708);
},
{
name = top______;
pos = (188,708);
},
{
name = top_______;
pos = (188,708);
},
{
name = top________;
pos = (188,708);
},
{
name = top_________;
pos = (188,708);
},
{
name = top__________;
pos = (188,708);
}
);
layerId = m01;
shapes = (
{
closed = 1;
nodes = (
(282.9,91.2,o),
(344.7,81,o),
(344.7,156.6,cs),
(344.7,178.4,o),
(339.6,207.2,o),
(328.1,247.5,cs),
(321.3,271.3,o),
(312.5,312.3,o),
(287.1,323.2,cs),
(274.6,328.6,o),
(260.1,324.5,o),
(248.7,318.3,cs),
(177.5,279.3,o),
(258.6,122,o),
(199.3,118.5,cs),
(180.5,117.4,o),
(165.4,133.6,o),
(160.2,150.3,cs),
(154,170.2,o),
(150.4,272.9,o),
(150.4,370.6,cs),
(150.4,459.9,o),
(153.4,545,o),
(160.4,559,cs),
(163.6,565.3,o),
(168.7,571,o),
(175.7,573,cs),
(249.9,594.7,o),
(179.1,408.9,o),
(256.6,389.9,cs),
(276.1,385.1,o),
(291.5,396.6,o),
(302.9,411.4,cs),
(325.3,440.6,o),
(341.2,482.5,o),
(345.3,519.1,cs),
(350.9,569.7,o),
(241,688.2,o),
(189.9,684.6,cs),
(157.8,682.3,o),
(53.6,589.9,o),
(35.2,561.8,cs),
(29.2,552.6,o),
(27,542.1,o),
(27,530.9,cs),
(27,504,o),
(39.8,473.4,o),
(42.1,449.3,cs),
(47,399.2,o),
(25.3,137.2,o),
(33.9,123.2,cs),
(58.8,83.1,o),
(110.1,59.2,o),
(141.8,24.5,cs),
(157.2,7.7,o),
(157.1,-15,o),
(170.3,-32.5,cs),
(187.6,-55.4,o),
(206.6,-68.5,o),
(206.6,-88.8,cs),
(206.6,-97.8,o),
(202.9,-108.3,o),
(193.6,-121.6,c),
(169.4,-115,o),
(151.4,-96.2,o),
(127.5,-88.1,c),
(117.3,-100.8,o),
(112.8,-112.6,o),
(112.8,-123.3,cs),
(112.8,-156.6,o),
(156.2,-178.5,o),
(201.6,-178.5,cs),
(252.2,-178.5,o),
(305.2,-151.3,o),
(303.2,-82.5,cs),
(301.6,-26,o),
(258.1,-12.7,o),
(212.9,2.3,c)
);
}
);
width = 374;
}
);
note = uni00C7;
unicode = 199;
},
{
glyphname = uni00C8;
layers = (
{
anchors = (
{
name = top;
pos = (186,878);
},
{
name = top_;
pos = (186,878);
},
{
name = top__;
pos = (186,878);
},
{
name = top___;
pos = (186,878);
},
{
name = top____;
pos = (186,878);
},
{
name = top_____;
pos = (186,878);
},
{
name = top______;
pos = (186,878);
},
{
name = top_______;
pos = (186,878);
},
{
name = top________;
pos = (186,878);
},
{
name = top_________;
pos = (186,878);
},
{
name = top__________;
pos = (186,878);
}
);
layerId = m01;
shapes = (
{
closed = 1;
nodes = (
(191.5,321,o),
(215.8,307.2,o),
(238.4,310.8,cs),
(262,314.6,o),
(273.2,335.4,o),
(273.2,355.2,cs),
(273.2,377.6,o),
(258.9,398.8,o),
(231.8,393.1,cs),
(209,388.2,o),
(190.1,369.3,o),
(169.9,358.4,c),
(164.9,370.9,o),
(157.7,426.1,o),
(157.7,477.4,cs),
(157.7,534,o),
(166.4,586,o),
(196.5,570.9,cs),
(236.5,550.7,o),
(203.5,472.1,o),
(248.8,453.9,cs),
(295.1,435.4,o),
(360.6,526.2,o),
(340.8,569.3,cs),
(329.8,593.3,o),
(222.4,684.6,o),
(197,683.4,cs),
(174.2,682.3,o),
(43.8,578.9,o),
(31.1,556.7,cs),
(21.5,540.1,o),
(30.9,520.5,o),
(36.7,504.2,cs),
(52.8,459.7,o),
(58.4,411.6,o),
(58.4,363.4,cs),
(58.4,326.9,o),
(55.2,290.3,o),
(50.9,255.1,cs),
(47.3,226,o),
(28.1,179.7,o),
(28.1,144.7,cs),
(28.1,136,o),
(29.3,127.9,o),
(32.2,121,cs),
(42,97.9,o),
(72,78.8,o),
(90.5,62.7,cs),
(114.5,41.7,o),
(147.3,5,o),
(180.8,1.9,cs),
(206.7,-0.6,o),
(331,92.2,o),
(340.7,116.8,cs),
(343.5,124,o),
(344.7,132.2,o),
(344.7,141,cs),
(344.7,173.6,o),
(327.8,213.6,o),
(310.6,234.2,cs),
(299,247.9,o),
(282.4,255.1,o),
(264.6,250.4,cs),
(201.3,233.8,o),
(234.9,181.1,o),
(224.3,139.9,cs),
(221.8,130,o),
(214.2,121.7,o),
(204.7,118.1,cs),
(169.7,104.7,o),
(160.4,162.9,o),
(160.4,221.4,cs),
(160.4,266.3,o),
(165.9,311.5,o),
(169.3,324.6,c)
);
},
{
closed = 1;
nodes = (
(228.2,738.2,o),
(204.1,815.4,o),
(167.1,844.8,cs),
(159.7,850.7,o),
(149.6,853.3,o),
(138.8,853.3,cs),
(104.9,853.3,o),
(63.7,827.5,o),
(75.4,793.9,cs),
(87.8,758.1,o),
(207.2,705,o),
(243.7,694.4,c)
);
}
);
width = 372;
}
);
note = uni00C8;
unicode = 200;
},
{
glyphname = uni00C9;
layers = (
{
anchors = (
{
name = top;
pos = (187,881);
},
{
name = top_;
pos = (187,881);
},
{
name = top__;
pos = (187,881);
},
{
name = top___;
pos = (187,881);
},
{
name = top____;
pos = (187,881);
},
{
name = top_____;
pos = (187,881);
},
{
name = top______;
pos = (187,881);
},
{
name = top_______;
pos = (187,881);
},
{
name = top________;
pos = (187,881);
},
{
name = top_________;
pos = (187,881);
},
{
name = top__________;
pos = (187,881);
}
);
layerId = m01;
shapes = (
{
closed = 1;
nodes = (
(222.8,123.1,o),
(212.4,118.3,o),
(202.1,118.3,cs),
(190.4,118.3,o),
(179,124.4,o),
(166.1,135.9,c),
(165.9,168.4,o),
(161.8,207.1,o),
(161.8,244.5,cs),
(161.8,273.6,o),
(164.3,301.9,o),
(173.2,325.8,c),
(196.2,323.4,o),
(219.6,311.2,o),
(242.9,314.5,cs),
(266.8,318,o),
(278.8,341.4,o),
(278.8,363,cs),
(278.8,383.2,o),
(266.3,403.3,o),
(244.1,400.4,cs),
(218.2,397.1,o),
(196.7,371,o),
(172.1,362.1,c),
(167.1,380.7,o),
(162.4,420.6,o),
(162.4,461.4,cs),
(162.4,515.4,o),
(170.6,570.9,o),
(197,580.3,c),
(225.3,550.2,o),
(212,482,o),
(245.8,461,cs),
(252.7,456.8,o),
(259.8,454.8,o),
(266.9,454.8,cs),
(310.6,454.8,o),
(361.7,533,o),
(343.9,574.6,cs),
(333,600.3,o),
(298.6,620.5,o),
(277.5,637.6,cs),
(257.8,653.5,o),
(234.2,678.1,o),
(208.6,683.4,cs),
(180.6,689.2,o),
(151.1,656.7,o),
(130.8,641.3,cs),
(100,618,o),
(27.5,585.1,o),
(27.5,540.2,cs),
(27.5,509.7,o),
(51.3,466.3,o),
(55.8,441.1,cs),
(60.1,416.8,o),
(61.7,391.6,o),
(61.7,366.4,cs),
(61.7,342.2,o),
(60.2,318,o),
(58.2,294.5,cs),
(55.5,262.7,o),
(31.7,189.4,o),
(31.7,145.9,cs),
(31.7,135,o),
(33.2,126,o),
(36.9,120,cs),
(55,90.8,o),
(158.2,4.2,o),
(191.9,3.3,cs),
(229.6,2.3,o),
(349.3,107.4,o),
(348,146.3,cs),
(345.8,213.5,o),
(307.7,253.9,o),
(275.5,253.9,cs),
(251.2,253.9,o),
(230.2,231,o),
(230.2,179.5,cs),
(230.2,166.1,o),
(231.6,150.8,o),
(234.7,133.4,c)
);
},
{
closed = 1;
nodes = (
(185.4,700.5,o),
(215.8,722.1,o),
(243.6,738.8,cs),
(268.3,753.6,o),
(316.8,772.2,o),
(316.8,807.2,cs),
(316.8,834.5,o),
(278.9,855.1,o),
(249.8,855.1,cs),
(242.6,855.1,o),
(235.8,853.8,o),
(230.4,851.1,cs),
(192,831.4,o),
(163.1,740.2,o),
(152,700.5,c)
);
}
);
width = 374;
}
);
note = uni00C9;
unicode = 201;
},
{
glyphname = uni00CA;
layers = (
{
anchors = (
{
name = top;
pos = (187,880);
},
{
name = top_;
pos = (187,880);
},
{
name = top__;
pos = (187,880);
},
{
name = top___;
pos = (187,880);
},
{
name = top____;
pos = (187,880);
},
{
name = top_____;
pos = (187,880);
},
{
name = top______;
pos = (187,880);
},
{
name = top_______;
pos = (187,880);
},
{
name = top________;
pos = (187,880);
},
{
name = top_________;
pos = (187,880);
},
{
name = top__________;
pos = (187,880);
}
);
layerId = m01;
shapes = (
{
closed = 1;
nodes = (
(162.6,195.9,o),
(161,264,o),
(172.3,323,c),
(190.3,318.9,o),
(205.4,317.2,o),
(218.1,317.2,cs),
(259.4,317.2,o),
(274.3,335.9,o),
(274.3,354.9,cs),
(274.3,375,o),
(257.6,395.4,o),
(237.9,394.3,cs),
(214.8,393,o),
(194.3,369.9,o),
(172.9,361.6,c),
(168.4,375,o),
(160.7,431.6,o),
(160.7,482.8,cs),
(160.7,534.8,o),
(168.6,581.2,o),
(195.9,570.6,cs),
(246.8,550.7,o),
(195.7,449.4,o),
(272.7,451.9,cs),
(297.4,452.7,o),
(312.8,475.7,o),
(324.4,494.8,cs),
(335.6,512.9,o),
(351.4,538.1,o),
(347,560.4,cs),
(339.4,599.2,o),
(234.6,666.3,o),
(200.2,687.6,c),
(166,667.4,o),
(45.1,584.8,o),
(30.5,553.1,cs),
(19.3,528.8,o),
(58,437.7,o),
(58.3,400.9,cs),
(59,322.7,o),
(55.2,248,o),
(35.3,172.1,cs),
(31.3,157,o),
(25,139,o),
(31,123.5,cs),
(42,95.3,o),
(83.6,71.5,o),
(106.4,53,cs),
(128.2,35.4,o),
(154.4,7.8,o),
(182.8,2.4,cs),
(212.2,-3.1,o),
(331.8,87.5,o),
(343.4,115.5,cs),
(346.7,123.6,o),
(348,132.5,o),
(348,141.8,cs),
(348,163.5,o),
(340.5,187,o),
(332.8,204.8,cs),
(324.4,224,o),
(311.2,244.3,o),
(289.3,249.3,cs),
(190.4,272.1,o),
(249.1,115.6,o),
(201.8,115.6,cs),
(192.7,115.6,o),
(179.5,121.4,o),
(160.5,135.6,c)
);
},
{
closed = 1;
nodes = (
(290.4,703.6,o),
(306.6,728.7,o),
(319.6,755.7,c),
(301.4,775.3,o),
(276.9,787.4,o),
(256.8,805.1,cs),
(240.3,819.6,o),
(221.7,845.3,o),
(200.1,851.7,cs),
(178.4,858,o),
(95.8,777.6,o),
(76.5,758.9,c),
(82.9,730.8,o),
(96.3,701.6,o),
(118.8,683.2,c),
(147.6,698,o),
(165,725.6,o),
(188.8,746.7,c),
(218.4,727.6,o),
(243,700.6,o),
(272,680,c)
);
}
);
width = 375;
}
);
note = uni00CA;
unicode = 202;
},
{
glyphname = uni00CB;
layers = (
{
anchors = (
{
name = top;
pos = (187,863);
},
{
name = top_;
pos = (187,863);
},
{
name = top__;
pos = (187,863);
},
{
name = top___;
pos = (187,863);
},
{
name = top____;
pos = (187,863);
},
{
name = top_____;
pos = (187,863);
},
{
name = top______;
pos = (187,863);
},
{
name = top_______;
pos = (187,863);
},
{
name = top________;
pos = (187,863);
},
{
name = top_________;
pos = (187,863);
},
{
name = top__________;
pos = (187,863);
}
);
layerId = m01;
shapes = (
{
closed = 1;
nodes = (
(167.9,323.8,l),
(188.8,318.7,o),
(205.9,316.5,o),
(219.7,316.5,cs),
(258.1,316.5,o),
(271.1,333.3,o),
(271.1,351.5,cs),
(271.1,373.4,o),
(252.2,397.4,o),
(236.1,396.6,cs),
(213.5,395.6,o),
(193.2,371.1,o),
(172.8,362.3,c),
(163.5,379.2,o),
(158.1,421.3,o),
(158.1,464.2,cs),
(158.1,513.4,o),
(165.2,563.8,o),
(181.6,578.8,c),
(232.4,554.5,o),
(202.4,476.6,o),
(252.3,455.3,cs),
(295.7,436.9,o),
(355,530.6,o),
(344.1,567.2,cs),
(336.4,593.1,o),
(224.1,686.9,o),
(197.3,684.7,cs),
(171.6,682.7,o),
(40.4,578.9,o),
(30.8,554.4,cs),
(20.4,528,o),
(58.3,432.7,o),
(60.2,395.4,cs),
(62.9,344,o),
(24,142.3,o),
(33.8,121,cs),
(47,92.1,o),
(88.3,69,o),
(111.6,48.2,cs),
(131.3,30.7,o),
(155.9,1,o),
(185.1,2.7,cs),
(214.5,4.4,o),
(332.1,98.1,o),
(342,126.5,cs),
(350.4,150.7,o),
(337.7,181.3,o),
(329,204,cs),
(322,222.1,o),
(312.1,244.1,o),
(292.7,251.8,cs),
(279.9,257,o),
(265.8,253.7,o),
(253.7,248.1,cs),
(202.1,223.9,o),
(236.1,114.3,o),
(202.9,114.3,cs),
(194.6,114.3,o),
(182.1,121.2,o),
(163,137.9,c)
);
},
{
closed = 1;
nodes = (
(151.3,707.5,o),
(171.6,735.4,o),
(171.6,765.6,cs),
(171.6,783.8,o),
(164.2,802.8,o),
(148.4,820.6,cs),
(141.6,828.2,o),
(131.6,840.7,o),
(120.7,841.4,cs),
(110.7,842.1,o),
(99.5,833.3,o),
(91.8,827.8,cs),
(69.7,812.2,o),
(60.4,792.4,o),
(60.4,772.4,cs),
(60.4,740.7,o),
(83.4,708.5,o),
(115.4,691.2,c)
);
},
{
closed = 1;
nodes = (
(309.6,726.2,o),
(327.9,745.7,o),
(329.9,766.7,cs),
(332.2,790.4,o),
(288.3,840.9,o),
(264.4,841.7,cs),
(253.1,842,o),
(242.4,830.8,o),
(235.1,823.4,cs),
(218,806.1,o),
(211,785.6,o),
(211,766.1,cs),
(211,729.6,o),
(235.5,696.9,o),
(264,696.9,cs),
(274.4,696.9,o),
(285.4,701.3,o),
(296,711.5,cs)
);
}
);
width = 372;
}
);
note = uni00CB;
unicode = 203;
},
{
glyphname = uni00CC;
layers = (
{
anchors = (
{
name = top;
pos = (140,880);
},
{
name = top_;
pos = (140,880);
},
{
name = top__;
pos = (140,880);
},
{
name = top___;
pos = (140,880);
},
{
name = top____;
pos = (140,880);
},
{
name = top_____;
pos = (140,880);
},
{
name = top______;
pos = (140,880);
},
{
name = top_______;
pos = (140,880);
},
{
name = top________;
pos = (140,880);
},
{
name = top_________;
pos = (140,880);
},
{
name = top__________;
pos = (140,880);
}
);
layerId = m01;
shapes = (
{
closed = 1;
nodes = (
(239,199.4,o),
(214.9,266.6,o),
(213.4,350.5,cs),
(212.6,394.9,o),
(210,441.3,o),
(219,485.1,cs),
(223.9,508.3,o),
(237,529.9,o),
(240.5,553.1,cs),
(244.9,582.4,o),
(187.4,685.6,o),
(154.2,681.8,cs),
(118.7,677.8,o),
(85.6,608.7,o),
(74.5,579.7,cs),
(71.9,572.7,o),
(70.8,565.1,o),
(70.8,557.2,cs),
(70.8,518.7,o),
(97.4,471.7,o),
(99.8,435.8,cs),
(101.7,408.9,o),
(103,381,o),
(103,353.1,cs),
(103,310.2,o),
(99.9,267.1,o),
(91.3,226.5,cs),
(84.2,193.3,o),
(61.1,157.5,o),
(61.6,123.7,cs),
(62,98.7,o),
(78,73.4,o),
(90.8,52.8,cs),
(114,15.2,o),
(136.4,0.5,o),
(157.1,0.5,cs),
(200.4,0.5,o),
(236.1,64.8,o),
(255,119,c)
);
},
{
closed = 1;
nodes = (
(194.1,730.5,o),
(180.1,755.4,o),
(168.6,779.8,cs),
(141.3,837.8,o),
(109.6,857,o),
(83.5,857,cs),
(58,857,o),
(19.9,829.1,o),
(33.2,800.1,cs),
(42.4,780,o),
(69.4,766.8,o),
(87.1,755.2,cs),
(120.5,733.4,o),
(156.2,708,o),
(196.6,703.4,c)
);
}
);
width = 278;
}
);
note = uni00CC;
unicode = 204;
},
{
glyphname = uni00CD;
layers = (
{
anchors = (
{
name = top;
pos = (139,877);
},
{
name = top_;
pos = (139,877);
},
{
name = top__;
pos = (139,877);
},
{
name = top___;
pos = (139,877);
},
{
name = top____;
pos = (139,877);
},
{
name = top_____;
pos = (139,877);
},
{
name = top______;
pos = (139,877);
},
{
name = top_______;
pos = (139,877);
},
{
name = top________;
pos = (139,877);
},
{
name = top_________;
pos = (139,877);
},
{
name = top__________;
pos = (139,877);
}
);
layerId = m01;
shapes = (
{
closed = 1;
nodes = (
(41.1,81.6,o),
(79.2,-1.8,o),
(125.9,-1.8,cs),
(142.2,-1.8,o),
(159.5,8.3,o),
(177.3,33.6,cs),
(192.6,55.3,o),
(210.3,85.1,o),
(215.9,111.2,cs),
(224.2,149.6,o),
(191.3,202.7,o),
(184.6,241.4,cs),
(175.7,293.1,o),
(173.6,347.5,o),
(174.4,399.9,cs),
(174.8,428.6,o),
(176.7,458.2,o),
(183.7,486.2,cs),
(189.8,510.9,o),
(211.9,539.8,o),
(207.6,565.6,cs),
(203.4,590.8,o),
(148.6,686.4,o),
(120.8,684.8,cs),
(97.2,683.4,o),
(40.1,596.8,o),
(34.6,574.2,cs),
(31,559.4,o),
(38.3,541.6,o),
(42.7,527.6,cs),
(61,468.2,o),
(70,409.8,o),
(68.3,347.5,cs),
(67.1,300,o),
(63.9,250.8,o),
(51.1,204.9,cs),
(43.5,177.7,o),
(28.3,151.7,o),
(24,124,c)
);
},
{
closed = 1;
nodes = (
(232.5,842.7,o),
(211.3,859.5,o),
(191.7,859.5,cs),
(143.4,859.5,o),
(105.6,756.8,o),
(86.2,704.7,c),
(143.5,702.7,o),
(213.8,763.3,o),
(255,799,c)
);
}
);
width = 279;
}
);
note = uni00CD;
unicode = 205;
},
{
glyphname = uni00CE;
layers = (
{
anchors = (
{
name = top;
pos = (147,881);
},
{
name = top_;
pos = (147,881);
},
{
name = top__;
pos = (147,881);
},
{
name = top___;
pos = (147,881);
},
{
name = top____;
pos = (147,881);
},
{
name = top_____;
pos = (147,881);
},
{
name = top______;
pos = (147,881);
},
{
name = top_______;
pos = (147,881);
},
{
name = top________;
pos = (147,881);
},
{
name = top_________;
pos = (147,881);
},
{
name = top__________;
pos = (147,881);
}
);
layerId = m01;
shapes = (
{
closed = 1;
nodes = (
(110.5,664.9,o),
(71.1,611,o),
(63.3,569.6,cs),
(59.3,548.4,o),
(93.9,414.1,o),
(95.5,367.3,cs),
(97.3,316.3,o),
(93.8,265.2,o),
(82.2,215.4,cs),
(75.5,186.6,o),
(60.3,155.5,o),
(60.4,125.7,cs),
(60.7,84.6,o),
(101.5,4.4,o),
(147.6,1.5,cs),
(194.6,-1.5,o),
(242.7,79.3,o),
(241,120.8,cs),
(239.7,152.3,o),
(221.2,184.6,o),
(213.8,215.2,cs),
(200.1,271.4,o),
(197.9,330.5,o),
(199.3,388.1,cs),
(200.4,435.9,o),
(237.7,534.7,o),
(230.8,565.6,cs),
(221.2,609,o),
(183,661.3,o),
(146.5,685.9,c)
);
},
{
closed = 1;
nodes = (
(224.6,791.3,o),
(189.7,831.6,o),
(145.4,860.8,c),
(100.7,836.9,o),
(65.8,793.5,o),
(24.7,763.5,c),
(37.3,736.1,o),
(50.7,707,o),
(74.6,687.9,c),
(101.7,702.7,o),
(119.2,728.8,o),
(141.7,749.4,c),
(222,681.8,l),
(241.9,706.4,o),
(256.8,734.3,o),
(270,763,c)
);
}
);
width = 295;
}
);
note = uni00CE;
unicode = 206;
},
{
glyphname = uni00CF;
layers = (
{
anchors = (
{
name = top;
pos = (163,866);
},
{
name = top_;
pos = (163,866);
},
{
name = top__;
pos = (163,866);
},
{
name = top___;
pos = (163,866);
},
{
name = top____;
pos = (163,866);
},
{
name = top_____;
pos = (163,866);
},
{
name = top______;
pos = (163,866);
},
{
name = top_______;
pos = (163,866);
},
{
name = top________;
pos = (163,866);
},
{
name = top_________;
pos = (163,866);
},
{
name = top__________;
pos = (163,866);
}
);
layerId = m01;
shapes = (
{
closed = 1;
nodes = (
(211.5,420,o),
(243.9,564.1,o),
(239.8,574.2,cs),
(229.4,599.8,o),
(195.1,673.8,o),
(169.2,683.6,cs),
(141.3,694.1,o),
(77.1,592.1,o),
(74.6,566.9,cs),
(71.8,539,o),
(89.5,509.9,o),
(95.8,483.2,cs),
(106.3,438.4,o),
(110.7,392.1,o),
(109.1,346.2,cs),
(107.1,289.4,o),
(62.2,141.5,o),
(74.5,105.2,cs),
(92,53.2,o),
(125.5,0.9,o),
(164,0.9,cs),
(184.5,0.9,o),
(206.4,15.7,o),
(228.1,53.1,cs),
(238.3,70.8,o),
(254,95.1,o),
(255,116.1,cs),
(256.3,142.3,o),
(235.6,173.2,o),
(229,198.5,cs),
(213.2,258.5,o),
(205.3,325.1,o),
(210,387,cs)
);
},
{
closed = 1;
nodes = (
(140.5,796.7,o),
(123.7,831.9,o),
(93.5,841.9,cs),
(67.1,850.7,o),
(28.7,810.9,o),
(28.7,766.3,cs),
(28.7,738.5,o),
(43.6,708.8,o),
(85.8,687.8,c),
(117.9,700.7,o),
(139.5,741.9,o),
(155,771,c)
);
},
{
closed = 1;
nodes = (
(298.6,806,o),
(265.9,835.2,o),
(234.1,835.2,cs),
(210.2,835.2,o),
(186.9,818.8,o),
(178,780,cs),
(172,753.8,o),
(209.9,688.5,o),
(240.9,692.9,cs),
(266.5,696.6,o),
(290.1,741,o),
(299,762,c)
);
}
);
width = 324;
}
);
note = uni00CF;
unicode = 207;
},
{
glyphname = uni00D0;
layers = (
{
anchors = (
{
name = top;
pos = (199,706);
},
{
name = top_;
pos = (199,706);
},
{
name = top__;
pos = (199,706);
},
{
name = top___;
pos = (199,706);
},
{
name = top____;
pos = (199,706);
},
{
name = top_____;
pos = (199,706);
},
{
name = top______;
pos = (199,706);
},
{
name = top_______;
pos = (199,706);
},
{
name = top________;
pos = (199,706);
},
{
name = top_________;
pos = (199,706);
},
{
name = top__________;
pos = (199,706);
}
);
layerId = m01;
shapes = (
{
closed = 1;
nodes = (
(358.7,226.3,o),
(353.2,325.2,o),
(354.8,428.7,cs),
(355.4,466.3,o),
(374.3,517,o),
(364.8,552.5,cs),
(351.6,601.5,o),
(303.5,649.9,o),
(267.5,683.7,c),
(221.2,669,o),
(206.3,624.8,o),
(183,587.3,c),
(171.9,609.3,o),
(169.1,634.7,o),
(154.4,654.9,cs),
(144.5,668.7,o),
(134.4,674.3,o),
(124.4,674.3,cs),
(87.4,674.3,o),
(52.8,597.2,o),
(40,569.1,c),
(66.8,501.8,o),
(76.9,446.9,o),
(78,374.4,c),
(60.6,371.4,o),
(43.8,369.9,o),
(27.3,363.6,c),
(26.9,350.8,o),
(28.2,341.4,o),
(31.4,329,c),
(79,328.6,l),
(78.4,251.1,o),
(64.1,188,o),
(32.6,117.3,c),
(43.7,91,o),
(77.5,5.3,o),
(116.5,5.3,cs),
(122.9,5.3,o),
(129.4,7.5,o),
(135.9,12.7,cs),
(153.5,26.5,o),
(160.9,50.6,o),
(174.9,67.7,c),
(192.9,47.9,o),
(208.3,16.9,o),
(234.4,6.9,cs),
(265.3,-4.9,o),
(350.7,99.8,o),
(374,124,c)
);
},
{
closed = 1;
nodes = (
(217.9,333.9,l),
(216.7,357.9,o),
(204,365.8,o),
(183,374.6,c),
(181.7,394.5,o),
(179,424.3,o),
(179,455.1,cs),
(179,502.9,o),
(185.6,553.1,o),
(214.5,572,c),
(228.9,562.4,o),
(239.1,551.2,o),
(242.8,533.5,cs),
(247.3,511.8,o),
(249.5,445.2,o),
(249.5,370.7,cs),
(249.5,262.5,o),
(244.8,137.8,o),
(235.3,110.1,c),
(187.2,116.5,o),
(177.5,173.2,o),
(177.5,230.3,cs),
(177.5,269.3,o),
(182,308.5,o),
(182,332,c)
);
}
);
width = 396;
}
);
note = uni00D0;
unicode = 208;
},
{
glyphname = uni00D1;
layers = (
{
anchors = (
{
name = top;
pos = (217,886);
},
{
name = top_;
pos = (217,886);
},
{
name = top__;
pos = (217,886);
},
{
name = top___;
pos = (217,886);
},
{
name = top____;
pos = (217,886);
},
{
name = top_____;
pos = (217,886);
},
{
name = top______;
pos = (217,886);
},
{
name = top_______;
pos = (217,886);
},
{
name = top________;
pos = (217,886);
},
{
name = top_________;
pos = (217,886);
},
{
name = top__________;
pos = (217,886);
}
);
layerId = m01;
shapes = (
{
closed = 1;
nodes = (
(185.1,398.8,o),
(208.5,308.9,o),
(225.1,220.3,cs),
(233.7,174.7,o),
(231.1,125.2,o),
(246.9,81.3,cs),
(256.6,54.4,o),
(273.3,32.1,o),
(295.6,14.4,cs),
(307.3,5,o),
(318,1.1,o),
(327.8,1.1,cs),
(371.2,1.1,o),
(395.8,79.7,o),
(409.9,115.8,c),
(394.6,147.1,o),
(377.5,178.2,o),
(368.2,211.9,cs),
(358.4,247.8,o),
(354.2,297.1,o),
(354.2,345.8,cs),
(354.2,389.6,o),
(357.6,432.9,o),
(363.2,465.9,cs),
(369.1,500.5,o),
(397,528.7,o),
(398.5,564,cs),
(400,598.8,o),
(359.8,671.7,o),
(323.2,679.7,cs),
(292.7,686.3,o),
(240.5,597.9,o),
(236.2,571.5,cs),
(232.2,546.6,o),
(256,514.1,o),
(261.2,489.3,cs),
(271.7,438.6,o),
(281.2,363.4,o),
(281.2,297.7,cs),
(281.2,268,o),
(279.2,240.2,o),
(274.6,217.5,c),
(257.1,227.9,o),
(251.3,285.7,o),
(246.1,305.9,cs),
(229.7,369.3,o),
(211.6,434.1,o),
(202.4,499,cs),
(199.1,521.6,o),
(207.5,537.2,o),
(207.5,555.9,cs),
(207.5,563.8,o),
(206,572.2,o),
(201.5,582,cs),
(189.9,607.5,o),
(146.8,695.5,o),
(111.6,681.5,cs),
(77,667.7,o),
(39.4,602.8,o),
(34.7,567.2,cs),
(30.5,534.7,o),
(60.3,505.4,o),
(66.9,475,cs),
(72.8,448.3,o),
(67.6,415.5,o),
(67.3,388.2,cs),
(66.7,332,o),
(69.8,273,o),
(59.1,217.6,cs),
(52,181.5,o),
(23.6,146.7,o),
(26,109.6,cs),
(28.6,68.6,o),
(60.8,-0.4,o),
(109,-0.4,cs),
(115.1,-0.4,o),
(121.4,0.7,o),
(128,3.1,cs),
(161.2,15.2,o),
(196.4,70.3,o),
(199.5,104.9,cs),
(201.7,129.6,o),
(169.1,185.4,o),
(163,214.3,cs),
(152.4,264.6,o),
(152.8,318.5,o),
(151.2,369.7,cs),
(150.5,391.5,o),
(143,476.1,o),
(160.3,485.4,c)
);
},
{
closed = 1;
nodes = (
(229.5,814.3,o),
(204.4,849.7,o),
(164.5,846.2,cs),
(109.7,841.3,o),
(89,795.5,o),
(89,757,cs),
(89,727.8,o),
(100.8,702.8,o),
(118.8,702.8,cs),
(123.9,702.8,o),
(129.6,704.9,o),
(135.6,709.6,cs),
(150.5,721,o),
(156.9,747.9,o),
(166,764,c),
(195.5,743.3,o),
(235.5,706.6,o),
(274.4,711.2,cs),
(308.3,715.2,o),
(350.7,785,o),
(350.7,828,cs),
(350.7,845.7,o),
(343.5,858.9,o),
(325.7,861,cs),
(316.5,862.1,o),
(305,861.2,o),
(297.8,854.7,cs),
(284.1,842.5,o),
(278,822,o),
(266,808,c)
);
}
);
width = 433;
}
);
note = uni00D1;
unicode = 209;
},
{
glyphname = uni00D2;
layers = (
{
anchors = (
{
name = top;
pos = (187,874);
},
{
name = top_;
pos = (187,874);
},
{
name = top__;
pos = (187,874);
},
{
name = top___;
pos = (187,874);
},
{
name = top____;
pos = (187,874);
},
{
name = top_____;
pos = (187,874);
},
{
name = top______;
pos = (187,874);
},
{
name = top_______;
pos = (187,874);
},
{
name = top________;
pos = (187,874);
},
{
name = top_________;
pos = (187,874);
},
{
name = top__________;
pos = (187,874);
}
);
layerId = m01;
shapes = (
{
closed = 1;
nodes = (
(56.1,103,o),
(142.8,3.4,o),
(183.8,2,cs),
(212.3,1,o),
(334.3,108.9,o),
(343.6,136.5,cs),
(351.2,159.2,o),
(329.4,390.6,o),
(332.8,446.5,cs),
(334.2,469.6,o),
(348,501.2,o),
(348,527.5,cs),
(348,535.8,o),
(346.6,543.6,o),
(343,550.5,cs),
(327.6,579.5,o),
(213.5,690,o),
(181.9,682.2,cs),
(150.9,674.6,o),
(121.7,633,o),
(96.7,613.8,cs),
(74.8,597.1,o),
(36.4,578.6,o),
(28.5,550.1,cs),
(25.9,540.7,o),
(24.8,530.3,o),
(24.8,519.4,cs),
(24.8,478.3,o),
(39.7,429.1,o),
(43.1,392.9,cs),
(51.1,306.2,o),
(30.9,219.7,o),
(24.6,133.4,c)
);
},
{
closed = 1;
nodes = (
(153.8,200,o),
(145,343,o),
(145,443.4,cs),
(145,488.8,o),
(146.8,525.6,o),
(151.9,540.8,cs),
(156.9,555.5,o),
(172.2,567.2,o),
(188.1,564.9,cs),
(199.2,563.3,o),
(209.3,555.9,o),
(214.6,546,cs),
(221.3,533.8,o),
(224.5,440.1,o),
(224.5,344.8,cs),
(224.5,246,o),
(221,145.5,o),
(214,132.7,cs),
(209.2,124,o),
(203.1,120.6,o),
(196.6,120.6,cs),
(180.9,120.6,o),
(162.8,140.5,o),
(155,152,c)
);
},
{
closed = 1;
nodes = (
(94.8,756.7,o),
(174.9,701.7,o),
(232,699.9,c),
(219.7,753.5,o),
(173.8,854.7,o),
(122.2,854.7,cs),
(102.5,854.7,o),
(81.9,839.9,o),
(62,802.1,c)
);
}
);
width = 375;
}
);
note = uni00D2;
unicode = 210;
},
